<?xml version="1.0" encoding="UTF-8" standalone="no"?>
<!-- Created with Inkscape (http://www.inkscape.org/) -->

<svg
   width="32"
   height="32"
   viewBox="0 0 8.4666665 8.4666666"
   version="1.1"
   id="svg920"
   inkscape:version="1.2.2 (732a01da63, 2022-12-09)"
   sodipodi:docname="fav_32_svg.svg"
   xmlns:inkscape="http://www.inkscape.org/namespaces/inkscape"
   xmlns:sodipodi="http://sodipodi.sourceforge.net/DTD/sodipodi-0.dtd"
   xmlns="http://www.w3.org/2000/svg"
   xmlns:svg="http://www.w3.org/2000/svg">
  <sodipodi:namedview
     id="namedview922"
     pagecolor="#ffffff"
     bordercolor="#666666"
     borderopacity="1.0"
     inkscape:showpageshadow="2"
     inkscape:pageopacity="0.0"
     inkscape:pagecheckerboard="0"
     inkscape:deskcolor="#d1d1d1"
     inkscape:document-units="px"
     showgrid="false"
     inkscape:zoom="25.1875"
     inkscape:cx="16"
     inkscape:cy="16"
     inkscape:window-width="1920"
     inkscape:window-height="1009"
     inkscape:window-x="-8"
     inkscape:window-y="-8"
     inkscape:window-maximized="1"
     inkscape:current-layer="layer1" />
  <defs
     id="defs917">
	
	
</defs>
  <g
     inkscape:label="Layer 1"
     inkscape:groupmode="layer"
     id="layer1">
    <script
       id="mesh_polyfill"
       type="text/javascript">
!function(){const t=&quot;http://www.w3.org/2000/svg&quot;,e=&quot;http://www.w3.org/1999/xlink&quot;,s=&quot;http://www.w3.org/1999/xhtml&quot;,r=2;if(document.createElementNS(t,&quot;meshgradient&quot;).x)return;const n=(t,e,s,r)=&gt;{let n=new x(.5*(e.x+s.x),.5*(e.y+s.y)),o=new x(.5*(t.x+e.x),.5*(t.y+e.y)),i=new x(.5*(s.x+r.x),.5*(s.y+r.y)),a=new x(.5*(n.x+o.x),.5*(n.y+o.y)),h=new x(.5*(n.x+i.x),.5*(n.y+i.y)),l=new x(.5*(a.x+h.x),.5*(a.y+h.y));return[[t,o,a,l],[l,h,i,r]]},o=t=&gt;{let e=t[0].distSquared(t[1]),s=t[2].distSquared(t[3]),r=.25*t[0].distSquared(t[2]),n=.25*t[1].distSquared(t[3]),o=e&gt;s?e:s,i=r&gt;n?r:n;return 18*(o&gt;i?o:i)},i=(t,e)=&gt;Math.sqrt(t.distSquared(e)),a=(t,e)=&gt;t.scale(2/3).add(e.scale(1/3)),h=t=&gt;{let e,s,r,n,o,i,a,h=new g;return t.match(/(\w+\(\s*[^)]+\))+/g).forEach(t=&gt;{let l=t.match(/[\w.-]+/g),d=l.shift();switch(d){case&quot;translate&quot;:2===l.length?e=new g(1,0,0,1,l[0],l[1]):(console.error(&quot;mesh.js: translate does not have 2 arguments!&quot;),e=new g(1,0,0,1,0,0)),h=h.append(e);break;case&quot;scale&quot;:1===l.length?s=new g(l[0],0,0,l[0],0,0):2===l.length?s=new g(l[0],0,0,l[1],0,0):(console.error(&quot;mesh.js: scale does not have 1 or 2 arguments!&quot;),s=new g(1,0,0,1,0,0)),h=h.append(s);break;case&quot;rotate&quot;:if(3===l.length&amp;&amp;(e=new g(1,0,0,1,l[1],l[2]),h=h.append(e)),l[0]){r=l[0]*Math.PI/180;let t=Math.cos(r),e=Math.sin(r);Math.abs(t)&lt;1e-16&amp;&amp;(t=0),Math.abs(e)&lt;1e-16&amp;&amp;(e=0),a=new g(t,e,-e,t,0,0),h=h.append(a)}else console.error(&quot;math.js: No argument to rotate transform!&quot;);3===l.length&amp;&amp;(e=new g(1,0,0,1,-l[1],-l[2]),h=h.append(e));break;case&quot;skewX&quot;:l[0]?(r=l[0]*Math.PI/180,n=Math.tan(r),o=new g(1,0,n,1,0,0),h=h.append(o)):console.error(&quot;math.js: No argument to skewX transform!&quot;);break;case&quot;skewY&quot;:l[0]?(r=l[0]*Math.PI/180,n=Math.tan(r),i=new g(1,n,0,1,0,0),h=h.append(i)):console.error(&quot;math.js: No argument to skewY transform!&quot;);break;case&quot;matrix&quot;:6===l.length?h=h.append(new g(...l)):console.error(&quot;math.js: Incorrect number of arguments for matrix!&quot;);break;default:console.error(&quot;mesh.js: Unhandled transform type: &quot;+d)}}),h},l=t=&gt;{let e=[],s=t.split(/[ ,]+/);for(let t=0,r=s.length-1;t&lt;r;t+=2)e.push(new x(parseFloat(s[t]),parseFloat(s[t+1])));return e},d=(t,e)=&gt;{for(let s in e)t.setAttribute(s,e[s])},c=(t,e,s,r,n)=&gt;{let o,i,a=[0,0,0,0];for(let h=0;h&lt;3;++h)e[h]&lt;t[h]&amp;&amp;e[h]&lt;s[h]||t[h]&lt;e[h]&amp;&amp;s[h]&lt;e[h]?a[h]=0:(a[h]=.5*((e[h]-t[h])/r+(s[h]-e[h])/n),o=Math.abs(3*(e[h]-t[h])/r),i=Math.abs(3*(s[h]-e[h])/n),a[h]&gt;o?a[h]=o:a[h]&gt;i&amp;&amp;(a[h]=i));return a},u=[[1,0,0,0,0,0,0,0,0,0,0,0,0,0,0,0],[0,0,0,0,1,0,0,0,0,0,0,0,0,0,0,0],[-3,3,0,0,-2,-1,0,0,0,0,0,0,0,0,0,0],[2,-2,0,0,1,1,0,0,0,0,0,0,0,0,0,0],[0,0,0,0,0,0,0,0,1,0,0,0,0,0,0,0],[0,0,0,0,0,0,0,0,0,0,0,0,1,0,0,0],[0,0,0,0,0,0,0,0,-3,3,0,0,-2,-1,0,0],[0,0,0,0,0,0,0,0,2,-2,0,0,1,1,0,0],[-3,0,3,0,0,0,0,0,-2,0,-1,0,0,0,0,0],[0,0,0,0,-3,0,3,0,0,0,0,0,-2,0,-1,0],[9,-9,-9,9,6,3,-6,-3,6,-6,3,-3,4,2,2,1],[-6,6,6,-6,-3,-3,3,3,-4,4,-2,2,-2,-2,-1,-1],[2,0,-2,0,0,0,0,0,1,0,1,0,0,0,0,0],[0,0,0,0,2,0,-2,0,0,0,0,0,1,0,1,0],[-6,6,6,-6,-4,-2,4,2,-3,3,-3,3,-2,-1,-2,-1],[4,-4,-4,4,2,2,-2,-2,2,-2,2,-2,1,1,1,1]],f=t=&gt;{let e=[];for(let s=0;s&lt;16;++s){e[s]=0;for(let r=0;r&lt;16;++r)e[s]+=u[s][r]*t[r]}return e},p=(t,e,s)=&gt;{const r=e*e,n=s*s,o=e*e*e,i=s*s*s;return t[0]+t[1]*e+t[2]*r+t[3]*o+t[4]*s+t[5]*s*e+t[6]*s*r+t[7]*s*o+t[8]*n+t[9]*n*e+t[10]*n*r+t[11]*n*o+t[12]*i+t[13]*i*e+t[14]*i*r+t[15]*i*o},y=t=&gt;{let e=[],s=[],r=[];for(let s=0;s&lt;4;++s)e[s]=[],e[s][0]=n(t[0][s],t[1][s],t[2][s],t[3][s]),e[s][1]=[],e[s][1].push(...n(...e[s][0][0])),e[s][1].push(...n(...e[s][0][1])),e[s][2]=[],e[s][2].push(...n(...e[s][1][0])),e[s][2].push(...n(...e[s][1][1])),e[s][2].push(...n(...e[s][1][2])),e[s][2].push(...n(...e[s][1][3]));for(let t=0;t&lt;8;++t){s[t]=[];for(let r=0;r&lt;4;++r)s[t][r]=[],s[t][r][0]=n(e[0][2][t][r],e[1][2][t][r],e[2][2][t][r],e[3][2][t][r]),s[t][r][1]=[],s[t][r][1].push(...n(...s[t][r][0][0])),s[t][r][1].push(...n(...s[t][r][0][1])),s[t][r][2]=[],s[t][r][2].push(...n(...s[t][r][1][0])),s[t][r][2].push(...n(...s[t][r][1][1])),s[t][r][2].push(...n(...s[t][r][1][2])),s[t][r][2].push(...n(...s[t][r][1][3]))}for(let t=0;t&lt;8;++t){r[t]=[];for(let e=0;e&lt;8;++e)r[t][e]=[],r[t][e][0]=s[t][0][2][e],r[t][e][1]=s[t][1][2][e],r[t][e][2]=s[t][2][2][e],r[t][e][3]=s[t][3][2][e]}return r};class x{constructor(t,e){this.x=t||0,this.y=e||0}toString(){return`(x=${this.x}, y=${this.y})`}clone(){return new x(this.x,this.y)}add(t){return new x(this.x+t.x,this.y+t.y)}scale(t){return void 0===t.x?new x(this.x*t,this.y*t):new x(this.x*t.x,this.y*t.y)}distSquared(t){let e=this.x-t.x,s=this.y-t.y;return e*e+s*s}transform(t){let e=this.x*t.a+this.y*t.c+t.e,s=this.x*t.b+this.y*t.d+t.f;return new x(e,s)}}class g{constructor(t,e,s,r,n,o){void 0===t?(this.a=1,this.b=0,this.c=0,this.d=1,this.e=0,this.f=0):(this.a=t,this.b=e,this.c=s,this.d=r,this.e=n,this.f=o)}toString(){return`affine: ${this.a} ${this.c} ${this.e} \n       ${this.b} ${this.d} ${this.f}`}append(t){t instanceof g||console.error(&quot;mesh.js: argument to Affine.append is not affine!&quot;);let e=this.a*t.a+this.c*t.b,s=this.b*t.a+this.d*t.b,r=this.a*t.c+this.c*t.d,n=this.b*t.c+this.d*t.d,o=this.a*t.e+this.c*t.f+this.e,i=this.b*t.e+this.d*t.f+this.f;return new g(e,s,r,n,o,i)}}class w{constructor(t,e){this.nodes=t,this.colors=e}paintCurve(t,e){if(o(this.nodes)&gt;r){const s=n(...this.nodes);let r=[[],[]],o=[[],[]];for(let t=0;t&lt;4;++t)r[0][t]=this.colors[0][t],r[1][t]=(this.colors[0][t]+this.colors[1][t])/2,o[0][t]=r[1][t],o[1][t]=this.colors[1][t];let i=new w(s[0],r),a=new w(s[1],o);i.paintCurve(t,e),a.paintCurve(t,e)}else{let s=Math.round(this.nodes[0].x);if(s&gt;=0&amp;&amp;s&lt;e){let r=4*(~~this.nodes[0].y*e+s);t[r]=Math.round(this.colors[0][0]),t[r+1]=Math.round(this.colors[0][1]),t[r+2]=Math.round(this.colors[0][2]),t[r+3]=Math.round(this.colors[0][3])}}}}class m{constructor(t,e){this.nodes=t,this.colors=e}split(){let t=[[],[],[],[]],e=[[],[],[],[]],s=[[[],[]],[[],[]]],r=[[[],[]],[[],[]]];for(let s=0;s&lt;4;++s){const r=n(this.nodes[0][s],this.nodes[1][s],this.nodes[2][s],this.nodes[3][s]);t[0][s]=r[0][0],t[1][s]=r[0][1],t[2][s]=r[0][2],t[3][s]=r[0][3],e[0][s]=r[1][0],e[1][s]=r[1][1],e[2][s]=r[1][2],e[3][s]=r[1][3]}for(let t=0;t&lt;4;++t)s[0][0][t]=this.colors[0][0][t],s[0][1][t]=this.colors[0][1][t],s[1][0][t]=(this.colors[0][0][t]+this.colors[1][0][t])/2,s[1][1][t]=(this.colors[0][1][t]+this.colors[1][1][t])/2,r[0][0][t]=s[1][0][t],r[0][1][t]=s[1][1][t],r[1][0][t]=this.colors[1][0][t],r[1][1][t]=this.colors[1][1][t];return[new m(t,s),new m(e,r)]}paint(t,e){let s,n=!1;for(let t=0;t&lt;4;++t)if((s=o([this.nodes[0][t],this.nodes[1][t],this.nodes[2][t],this.nodes[3][t]]))&gt;r){n=!0;break}if(n){let s=this.split();s[0].paint(t,e),s[1].paint(t,e)}else{new w([...this.nodes[0]],[...this.colors[0]]).paintCurve(t,e)}}}class b{constructor(t){this.readMesh(t),this.type=t.getAttribute(&quot;type&quot;)||&quot;bilinear&quot;}readMesh(t){let e=[[]],s=[[]],r=Number(t.getAttribute(&quot;x&quot;)),n=Number(t.getAttribute(&quot;y&quot;));e[0][0]=new x(r,n);let o=t.children;for(let t=0,r=o.length;t&lt;r;++t){e[3*t+1]=[],e[3*t+2]=[],e[3*t+3]=[],s[t+1]=[];let r=o[t].children;for(let n=0,o=r.length;n&lt;o;++n){let o=r[n].children;for(let r=0,i=o.length;r&lt;i;++r){let i=r;0!==t&amp;&amp;++i;let h,d=o[r].getAttribute(&quot;path&quot;),c=&quot;l&quot;;null!=d&amp;&amp;(c=(h=d.match(/\s*([lLcC])\s*(.*)/))[1]);let u=l(h[2]);switch(c){case&quot;l&quot;:0===i?(e[3*t][3*n+3]=u[0].add(e[3*t][3*n]),e[3*t][3*n+1]=a(e[3*t][3*n],e[3*t][3*n+3]),e[3*t][3*n+2]=a(e[3*t][3*n+3],e[3*t][3*n])):1===i?(e[3*t+3][3*n+3]=u[0].add(e[3*t][3*n+3]),e[3*t+1][3*n+3]=a(e[3*t][3*n+3],e[3*t+3][3*n+3]),e[3*t+2][3*n+3]=a(e[3*t+3][3*n+3],e[3*t][3*n+3])):2===i?(0===n&amp;&amp;(e[3*t+3][3*n+0]=u[0].add(e[3*t+3][3*n+3])),e[3*t+3][3*n+1]=a(e[3*t+3][3*n],e[3*t+3][3*n+3]),e[3*t+3][3*n+2]=a(e[3*t+3][3*n+3],e[3*t+3][3*n])):(e[3*t+1][3*n]=a(e[3*t][3*n],e[3*t+3][3*n]),e[3*t+2][3*n]=a(e[3*t+3][3*n],e[3*t][3*n]));break;case&quot;L&quot;:0===i?(e[3*t][3*n+3]=u[0],e[3*t][3*n+1]=a(e[3*t][3*n],e[3*t][3*n+3]),e[3*t][3*n+2]=a(e[3*t][3*n+3],e[3*t][3*n])):1===i?(e[3*t+3][3*n+3]=u[0],e[3*t+1][3*n+3]=a(e[3*t][3*n+3],e[3*t+3][3*n+3]),e[3*t+2][3*n+3]=a(e[3*t+3][3*n+3],e[3*t][3*n+3])):2===i?(0===n&amp;&amp;(e[3*t+3][3*n+0]=u[0]),e[3*t+3][3*n+1]=a(e[3*t+3][3*n],e[3*t+3][3*n+3]),e[3*t+3][3*n+2]=a(e[3*t+3][3*n+3],e[3*t+3][3*n])):(e[3*t+1][3*n]=a(e[3*t][3*n],e[3*t+3][3*n]),e[3*t+2][3*n]=a(e[3*t+3][3*n],e[3*t][3*n]));break;case&quot;c&quot;:0===i?(e[3*t][3*n+1]=u[0].add(e[3*t][3*n]),e[3*t][3*n+2]=u[1].add(e[3*t][3*n]),e[3*t][3*n+3]=u[2].add(e[3*t][3*n])):1===i?(e[3*t+1][3*n+3]=u[0].add(e[3*t][3*n+3]),e[3*t+2][3*n+3]=u[1].add(e[3*t][3*n+3]),e[3*t+3][3*n+3]=u[2].add(e[3*t][3*n+3])):2===i?(e[3*t+3][3*n+2]=u[0].add(e[3*t+3][3*n+3]),e[3*t+3][3*n+1]=u[1].add(e[3*t+3][3*n+3]),0===n&amp;&amp;(e[3*t+3][3*n+0]=u[2].add(e[3*t+3][3*n+3]))):(e[3*t+2][3*n]=u[0].add(e[3*t+3][3*n]),e[3*t+1][3*n]=u[1].add(e[3*t+3][3*n]));break;case&quot;C&quot;:0===i?(e[3*t][3*n+1]=u[0],e[3*t][3*n+2]=u[1],e[3*t][3*n+3]=u[2]):1===i?(e[3*t+1][3*n+3]=u[0],e[3*t+2][3*n+3]=u[1],e[3*t+3][3*n+3]=u[2]):2===i?(e[3*t+3][3*n+2]=u[0],e[3*t+3][3*n+1]=u[1],0===n&amp;&amp;(e[3*t+3][3*n+0]=u[2])):(e[3*t+2][3*n]=u[0],e[3*t+1][3*n]=u[1]);break;default:console.error(&quot;mesh.js: &quot;+c+&quot; invalid path type.&quot;)}if(0===t&amp;&amp;0===n||r&gt;0){let e=window.getComputedStyle(o[r]).stopColor.match(/^rgb\s*\(\s*(\d+)\s*,\s*(\d+)\s*,\s*(\d+)\s*\)$/i),a=window.getComputedStyle(o[r]).stopOpacity,h=255;a&amp;&amp;(h=Math.floor(255*a)),e&amp;&amp;(0===i?(s[t][n]=[],s[t][n][0]=Math.floor(e[1]),s[t][n][1]=Math.floor(e[2]),s[t][n][2]=Math.floor(e[3]),s[t][n][3]=h):1===i?(s[t][n+1]=[],s[t][n+1][0]=Math.floor(e[1]),s[t][n+1][1]=Math.floor(e[2]),s[t][n+1][2]=Math.floor(e[3]),s[t][n+1][3]=h):2===i?(s[t+1][n+1]=[],s[t+1][n+1][0]=Math.floor(e[1]),s[t+1][n+1][1]=Math.floor(e[2]),s[t+1][n+1][2]=Math.floor(e[3]),s[t+1][n+1][3]=h):3===i&amp;&amp;(s[t+1][n]=[],s[t+1][n][0]=Math.floor(e[1]),s[t+1][n][1]=Math.floor(e[2]),s[t+1][n][2]=Math.floor(e[3]),s[t+1][n][3]=h))}}e[3*t+1][3*n+1]=new x,e[3*t+1][3*n+2]=new x,e[3*t+2][3*n+1]=new x,e[3*t+2][3*n+2]=new x,e[3*t+1][3*n+1].x=(-4*e[3*t][3*n].x+6*(e[3*t][3*n+1].x+e[3*t+1][3*n].x)+-2*(e[3*t][3*n+3].x+e[3*t+3][3*n].x)+3*(e[3*t+3][3*n+1].x+e[3*t+1][3*n+3].x)+-1*e[3*t+3][3*n+3].x)/9,e[3*t+1][3*n+2].x=(-4*e[3*t][3*n+3].x+6*(e[3*t][3*n+2].x+e[3*t+1][3*n+3].x)+-2*(e[3*t][3*n].x+e[3*t+3][3*n+3].x)+3*(e[3*t+3][3*n+2].x+e[3*t+1][3*n].x)+-1*e[3*t+3][3*n].x)/9,e[3*t+2][3*n+1].x=(-4*e[3*t+3][3*n].x+6*(e[3*t+3][3*n+1].x+e[3*t+2][3*n].x)+-2*(e[3*t+3][3*n+3].x+e[3*t][3*n].x)+3*(e[3*t][3*n+1].x+e[3*t+2][3*n+3].x)+-1*e[3*t][3*n+3].x)/9,e[3*t+2][3*n+2].x=(-4*e[3*t+3][3*n+3].x+6*(e[3*t+3][3*n+2].x+e[3*t+2][3*n+3].x)+-2*(e[3*t+3][3*n].x+e[3*t][3*n+3].x)+3*(e[3*t][3*n+2].x+e[3*t+2][3*n].x)+-1*e[3*t][3*n].x)/9,e[3*t+1][3*n+1].y=(-4*e[3*t][3*n].y+6*(e[3*t][3*n+1].y+e[3*t+1][3*n].y)+-2*(e[3*t][3*n+3].y+e[3*t+3][3*n].y)+3*(e[3*t+3][3*n+1].y+e[3*t+1][3*n+3].y)+-1*e[3*t+3][3*n+3].y)/9,e[3*t+1][3*n+2].y=(-4*e[3*t][3*n+3].y+6*(e[3*t][3*n+2].y+e[3*t+1][3*n+3].y)+-2*(e[3*t][3*n].y+e[3*t+3][3*n+3].y)+3*(e[3*t+3][3*n+2].y+e[3*t+1][3*n].y)+-1*e[3*t+3][3*n].y)/9,e[3*t+2][3*n+1].y=(-4*e[3*t+3][3*n].y+6*(e[3*t+3][3*n+1].y+e[3*t+2][3*n].y)+-2*(e[3*t+3][3*n+3].y+e[3*t][3*n].y)+3*(e[3*t][3*n+1].y+e[3*t+2][3*n+3].y)+-1*e[3*t][3*n+3].y)/9,e[3*t+2][3*n+2].y=(-4*e[3*t+3][3*n+3].y+6*(e[3*t+3][3*n+2].y+e[3*t+2][3*n+3].y)+-2*(e[3*t+3][3*n].y+e[3*t][3*n+3].y)+3*(e[3*t][3*n+2].y+e[3*t+2][3*n].y)+-1*e[3*t][3*n].y)/9}}this.nodes=e,this.colors=s}paintMesh(t,e){let s=(this.nodes.length-1)/3,r=(this.nodes[0].length-1)/3;if(&quot;bilinear&quot;===this.type||s&lt;2||r&lt;2){let n;for(let o=0;o&lt;s;++o)for(let s=0;s&lt;r;++s){let r=[];for(let t=3*o,e=3*o+4;t&lt;e;++t)r.push(this.nodes[t].slice(3*s,3*s+4));let i=[];i.push(this.colors[o].slice(s,s+2)),i.push(this.colors[o+1].slice(s,s+2)),(n=new m(r,i)).paint(t,e)}}else{let n,o,a,h,l,d,u;const x=s,g=r;s++,r++;let w=new Array(s);for(let t=0;t&lt;s;++t){w[t]=new Array(r);for(let e=0;e&lt;r;++e)w[t][e]=[],w[t][e][0]=this.nodes[3*t][3*e],w[t][e][1]=this.colors[t][e]}for(let t=0;t&lt;s;++t)for(let e=0;e&lt;r;++e)0!==t&amp;&amp;t!==x&amp;&amp;(n=i(w[t-1][e][0],w[t][e][0]),o=i(w[t+1][e][0],w[t][e][0]),w[t][e][2]=c(w[t-1][e][1],w[t][e][1],w[t+1][e][1],n,o)),0!==e&amp;&amp;e!==g&amp;&amp;(n=i(w[t][e-1][0],w[t][e][0]),o=i(w[t][e+1][0],w[t][e][0]),w[t][e][3]=c(w[t][e-1][1],w[t][e][1],w[t][e+1][1],n,o));for(let t=0;t&lt;r;++t){w[0][t][2]=[],w[x][t][2]=[];for(let e=0;e&lt;4;++e)n=i(w[1][t][0],w[0][t][0]),o=i(w[x][t][0],w[x-1][t][0]),w[0][t][2][e]=n&gt;0?2*(w[1][t][1][e]-w[0][t][1][e])/n-w[1][t][2][e]:0,w[x][t][2][e]=o&gt;0?2*(w[x][t][1][e]-w[x-1][t][1][e])/o-w[x-1][t][2][e]:0}for(let t=0;t&lt;s;++t){w[t][0][3]=[],w[t][g][3]=[];for(let e=0;e&lt;4;++e)n=i(w[t][1][0],w[t][0][0]),o=i(w[t][g][0],w[t][g-1][0]),w[t][0][3][e]=n&gt;0?2*(w[t][1][1][e]-w[t][0][1][e])/n-w[t][1][3][e]:0,w[t][g][3][e]=o&gt;0?2*(w[t][g][1][e]-w[t][g-1][1][e])/o-w[t][g-1][3][e]:0}for(let s=0;s&lt;x;++s)for(let r=0;r&lt;g;++r){let n=i(w[s][r][0],w[s+1][r][0]),o=i(w[s][r+1][0],w[s+1][r+1][0]),c=i(w[s][r][0],w[s][r+1][0]),x=i(w[s+1][r][0],w[s+1][r+1][0]),g=[[],[],[],[]];for(let t=0;t&lt;4;++t){(d=[])[0]=w[s][r][1][t],d[1]=w[s+1][r][1][t],d[2]=w[s][r+1][1][t],d[3]=w[s+1][r+1][1][t],d[4]=w[s][r][2][t]*n,d[5]=w[s+1][r][2][t]*n,d[6]=w[s][r+1][2][t]*o,d[7]=w[s+1][r+1][2][t]*o,d[8]=w[s][r][3][t]*c,d[9]=w[s+1][r][3][t]*x,d[10]=w[s][r+1][3][t]*c,d[11]=w[s+1][r+1][3][t]*x,d[12]=0,d[13]=0,d[14]=0,d[15]=0,u=f(d);for(let e=0;e&lt;9;++e){g[t][e]=[];for(let s=0;s&lt;9;++s)g[t][e][s]=p(u,e/8,s/8),g[t][e][s]&gt;255?g[t][e][s]=255:g[t][e][s]&lt;0&amp;&amp;(g[t][e][s]=0)}}h=[];for(let t=3*s,e=3*s+4;t&lt;e;++t)h.push(this.nodes[t].slice(3*r,3*r+4));l=y(h);for(let s=0;s&lt;8;++s)for(let r=0;r&lt;8;++r)(a=new m(l[s][r],[[[g[0][s][r],g[1][s][r],g[2][s][r],g[3][s][r]],[g[0][s][r+1],g[1][s][r+1],g[2][s][r+1],g[3][s][r+1]]],[[g[0][s+1][r],g[1][s+1][r],g[2][s+1][r],g[3][s+1][r]],[g[0][s+1][r+1],g[1][s+1][r+1],g[2][s+1][r+1],g[3][s+1][r+1]]]])).paint(t,e)}}}transform(t){if(t instanceof x)for(let e=0,s=this.nodes.length;e&lt;s;++e)for(let s=0,r=this.nodes[0].length;s&lt;r;++s)this.nodes[e][s]=this.nodes[e][s].add(t);else if(t instanceof g)for(let e=0,s=this.nodes.length;e&lt;s;++e)for(let s=0,r=this.nodes[0].length;s&lt;r;++s)this.nodes[e][s]=this.nodes[e][s].transform(t)}scale(t){for(let e=0,s=this.nodes.length;e&lt;s;++e)for(let s=0,r=this.nodes[0].length;s&lt;r;++s)this.nodes[e][s]=this.nodes[e][s].scale(t)}}document.querySelectorAll(&quot;rect,circle,ellipse,path,text&quot;).forEach((r,n)=&gt;{let o=r.getAttribute(&quot;id&quot;);o||(o=&quot;patchjs_shape&quot;+n,r.setAttribute(&quot;id&quot;,o));const i=r.style.fill.match(/^url\(\s*&quot;?\s*#([^\s&quot;]+)&quot;?\s*\)/),a=r.style.stroke.match(/^url\(\s*&quot;?\s*#([^\s&quot;]+)&quot;?\s*\)/);if(i&amp;&amp;i[1]){const a=document.getElementById(i[1]);if(a&amp;&amp;&quot;meshgradient&quot;===a.nodeName){const i=r.getBBox();let l=document.createElementNS(s,&quot;canvas&quot;);d(l,{width:i.width,height:i.height});const c=l.getContext(&quot;2d&quot;);let u=c.createImageData(i.width,i.height);const f=new b(a);&quot;objectBoundingBox&quot;===a.getAttribute(&quot;gradientUnits&quot;)&amp;&amp;f.scale(new x(i.width,i.height));const p=a.getAttribute(&quot;gradientTransform&quot;);null!=p&amp;&amp;f.transform(h(p)),&quot;userSpaceOnUse&quot;===a.getAttribute(&quot;gradientUnits&quot;)&amp;&amp;f.transform(new x(-i.x,-i.y)),f.paintMesh(u.data,l.width),c.putImageData(u,0,0);const y=document.createElementNS(t,&quot;image&quot;);d(y,{width:i.width,height:i.height,x:i.x,y:i.y});let g=l.toDataURL();y.setAttributeNS(e,&quot;xlink:href&quot;,g),r.parentNode.insertBefore(y,r),r.style.fill=&quot;none&quot;;const w=document.createElementNS(t,&quot;use&quot;);w.setAttributeNS(e,&quot;xlink:href&quot;,&quot;#&quot;+o);const m=&quot;patchjs_clip&quot;+n,M=document.createElementNS(t,&quot;clipPath&quot;);M.setAttribute(&quot;id&quot;,m),M.appendChild(w),r.parentElement.insertBefore(M,r),y.setAttribute(&quot;clip-path&quot;,&quot;url(#&quot;+m+&quot;)&quot;),u=null,l=null,g=null}}if(a&amp;&amp;a[1]){const o=document.getElementById(a[1]);if(o&amp;&amp;&quot;meshgradient&quot;===o.nodeName){const i=parseFloat(r.style.strokeWidth.slice(0,-2))*(parseFloat(r.style.strokeMiterlimit)||parseFloat(r.getAttribute(&quot;stroke-miterlimit&quot;))||1),a=r.getBBox(),l=Math.trunc(a.width+i),c=Math.trunc(a.height+i),u=Math.trunc(a.x-i/2),f=Math.trunc(a.y-i/2);let p=document.createElementNS(s,&quot;canvas&quot;);d(p,{width:l,height:c});const y=p.getContext(&quot;2d&quot;);let g=y.createImageData(l,c);const w=new b(o);&quot;objectBoundingBox&quot;===o.getAttribute(&quot;gradientUnits&quot;)&amp;&amp;w.scale(new x(l,c));const m=o.getAttribute(&quot;gradientTransform&quot;);null!=m&amp;&amp;w.transform(h(m)),&quot;userSpaceOnUse&quot;===o.getAttribute(&quot;gradientUnits&quot;)&amp;&amp;w.transform(new x(-u,-f)),w.paintMesh(g.data,p.width),y.putImageData(g,0,0);const M=document.createElementNS(t,&quot;image&quot;);d(M,{width:l,height:c,x:0,y:0});let S=p.toDataURL();M.setAttributeNS(e,&quot;xlink:href&quot;,S);const k=&quot;pattern_clip&quot;+n,A=document.createElementNS(t,&quot;pattern&quot;);d(A,{id:k,patternUnits:&quot;userSpaceOnUse&quot;,width:l,height:c,x:u,y:f}),A.appendChild(M),o.parentNode.appendChild(A),r.style.stroke=&quot;url(#&quot;+k+&quot;)&quot;,g=null,p=null,S=null}}})}();
</script>
    <rect
       style="fill:#ffffff;fill-rule:evenodd;stroke-width:0.264584"
       id="rect2712"
       width="8.4666662"
       height="8.4666662"
       x="1.6419068e-07"
       y="1.6419068e-07"
       ry="0.13618389" />
    <g
       id="g2057"
       transform="matrix(0.293846,0,0,0.293846,-0.53516925,-0.46820273)"
       style="fill:#000000">
		<path
   d="M 11,30 H 10 C 7.7944,30 6,28.2056 6,26 V 20.5 C 6,19.874 5.7007,19.2759 5.1997,18.9004 L 2.3999,16.7998 C 2.1479,16.6113 2,16.3149 2,16 2,15.6851 2.1479,15.3887 2.3999,15.2002 L 5.1997,13.1001 C 5.7007,12.7241 6,12.126 6,11.5 V 5.9971 C 6,3.793 7.793,2 9.9971,2 H 11 c 0.5522,0 1,0.4478 1,1 0,0.5522 -0.4478,1 -1,1 H 9.9971 C 8.896,4 8,4.896 8,5.9971 V 11.5 c 0,1.2524 -0.5981,2.4487 -1.6001,3.2002 L 4.6665,16 6.3999,17.3003 C 7.4019,18.0513 8,19.2476 8,20.5 V 26 c 0,1.103 0.897,2 2,2 h 1 c 0.5522,0 1,0.4478 1,1 0,0.5522 -0.4478,1 -1,1 z"
   id="path2055"
   style="fill:#000000" />

	</g>
    <g
       id="g2061"
       transform="matrix(0.26458333,0,0,0.26458333,-0.06302732,-0.03151366)"
       style="fill:#0000ff">
		
	</g>
    <path
       fill="#ffffff"
       d="M 3.0678819,6.5135643 H 2.1557895 V 4.5880359 h 0.9120924 c 0,0.05885 0,1.8892069 0,1.9255284 z"
       id="path2206"
       style="stroke-width:0.0101344;fill:#000000" />
    <path
       fill="#ffffff"
       d="M 6.3108771,4.5880359 V 6.5135643 H 5.3987847 c 0,-0.3409097 0,-1.2312335 0,-1.9255284 z"
       id="path2208"
       style="stroke-width:0.0101344;fill:#000000" />
    <path
       fill="#a7c7fc"
       d="m 5.3987847,6.1081899 c -0.00116,0 -2.1031027,0 -2.3309028,0 0,-0.053743 0,-2.1973826 0,-2.6349336 h 2.3309028 c 0,0.1273686 0,2.5489942 0,2.6349336 z"
       id="path2210"
       style="stroke-width:0.0101344;fill:#000000" />
    <circle
       cx="4.2333331"
       cy="4.2840052"
       r="0.40537441"
       fill="#ffffff"
       id="circle2212"
       style="stroke-width:0.0101344" />
    <rect
       width="0.30403081"
       height="0.30403081"
       x="5.7028155"
       y="5.6014719"
       fill="#ffffff"
       id="rect2214"
       style="stroke-width:0.0101344" />
    <rect
       width="0.30403081"
       height="0.30403081"
       x="2.4598203"
       y="5.6014719"
       fill="#ffffff"
       id="rect2216"
       style="stroke-width:0.0101344" />
    <rect
       width="0.30403081"
       height="0.50671798"
       x="5.7028155"
       y="5.0947537"
       fill="#ffffff"
       id="rect2218"
       style="stroke-width:0.0101344" />
    <rect
       width="0.30403081"
       height="0.50671798"
       x="2.4598203"
       y="5.0947537"
       fill="#ffffff"
       id="rect2220"
       style="stroke-width:0.0101344" />
    <path
       fill="#a7c7fc"
       d="m 5.7028155,2.9665383 v 0.506718 c -0.1215312,0 -2.8682671,0 -2.9389644,0 v -0.506718 c 0.1530694,0 2.7786692,0 2.9389644,0 z"
       id="path2222"
       style="stroke-width:0.0101344;fill:#000000" />
    <path
       fill="#ffffff"
       d="m 2.4598203,2.2571331 c 0.1119847,0 0.2026872,0.090702 0.2026872,0.2026872 0,0.1119847 -0.090702,0.2026872 -0.2026872,0.2026872 -0.1119847,0 -0.2026872,-0.090702 -0.2026872,-0.2026872 0,-0.1119847 0.090702,-0.2026872 0.2026872,-0.2026872 z"
       id="path2224"
       style="stroke-width:0.0101344" />
    <path
       fill="#ffffff"
       d="m 6.2602053,2.3584767 c 0.1399555,0 0.253359,0.1134035 0.253359,0.253359 0,0.1399555 -0.1134035,0.253359 -0.253359,0.253359 -0.1399555,0 -0.253359,-0.1134035 -0.253359,-0.253359 0,-0.1399555 0.1134035,-0.253359 0.253359,-0.253359 z"
       id="path2226"
       style="stroke-width:0.0101344" />
    <polygon
       fill="#ffffff"
       points="370,300 370,270 480,270 480,300 460,300 "
       id="polygon2228"
       transform="matrix(0.01013436,0,0,0.01013436,1.6490715,1.5477279)" />
    <polygon
       fill="#ffffff"
       points="30,300 30,270 140,270 140,300 50,300 "
       id="polygon2230"
       transform="matrix(0.01013436,0,0,0.01013436,1.6490715,1.5477279)" />
    <polygon
       fill="#ffffff"
       points="290,390 290,450 290,490 220,490 220,450 220,390 "
       id="polygon2232"
       transform="matrix(0.01013436,0,0,0.01013436,1.6490715,1.5477279)"
       style="fill:#000000" />
    <rect
       width="0.81074882"
       height="0.40537441"
       x="4.5880361"
       y="6.1081901"
       fill="#a7c7fc"
       id="rect2234"
       style="stroke-width:0.0101344;fill:#000000" />
    <rect
       width="0.81074882"
       height="0.40537441"
       x="3.0678818"
       y="6.1081901"
       fill="#a7c7fc"
       id="rect2236"
       style="stroke-width:0.0101344;fill:#000000" />
    <rect
       width="0.91209239"
       height="0.50671798"
       x="4.1826615"
       y="1.9531024"
       fill="#ffffff"
       id="rect2238"
       style="stroke-width:0.0101344" />
    <path
       fill="#4c7fc7"
       d="m 6.3108771,3.4732563 c 0.055942,0 0.1013436,0.045402 0.1013436,0.1013436 0,0.055942 -0.045402,0.1013436 -0.1013436,0.1013436 -0.055942,0 -0.1013436,-0.045402 -0.1013436,-0.1013436 0,-0.055942 0.045402,-0.1013436 0.1013436,-0.1013436 z"
       id="path2240"
       style="stroke-width:0.0101344;fill:#000000" />
    <path
       fill="#4c7fc7"
       d="m 5.7028155,2.1557895 c 0.055942,0 0.1013436,0.045402 0.1013436,0.1013436 0,0.055942 -0.045402,0.1013436 -0.1013436,0.1013436 -0.055942,0 -0.1013436,-0.045402 -0.1013436,-0.1013436 0,-0.055942 0.045402,-0.1013436 0.1013436,-0.1013436 z"
       id="path2242"
       style="stroke-width:0.0101344;fill:#000000" />
    <path
       fill="#4c7fc7"
       d="m 4.5880359,4.9934103 c 0.055942,0 0.1013436,0.045402 0.1013436,0.1013436 0,0.055942 -0.045402,0.1013436 -0.1013436,0.1013436 -0.055942,0 -0.1013436,-0.045402 -0.1013436,-0.1013436 0,-0.055942 0.045402,-0.1013436 0.1013436,-0.1013436 z"
       id="path2244"
       style="stroke-width:0.0101344" />
    <path
       fill="#4c7fc7"
       d="m 3.4732563,2.0544459 c 0.055942,0 0.1013436,0.045402 0.1013436,0.1013436 0,0.055942 -0.045402,0.1013436 -0.1013436,0.1013436 -0.055942,0 -0.1013436,-0.045402 -0.1013436,-0.1013436 0,-0.055942 0.045402,-0.1013436 0.1013436,-0.1013436 z"
       id="path2246"
       style="stroke-width:0.0101344;fill:#000000" />
    <path
       fill="#4c7fc7"
       d="m 2.3584767,3.1692255 c 0.055942,0 0.1013436,0.045402 0.1013436,0.1013436 0,0.055942 -0.045402,0.1013436 -0.1013436,0.1013436 -0.055942,0 -0.1013436,-0.045402 -0.1013436,-0.1013436 0,-0.055942 0.045402,-0.1013436 0.1013436,-0.1013436 z"
       id="path2248"
       style="stroke-width:0.0101344;fill:#000000" />
    <path
       fill="#4c7fc7"
       d="m 4.2333333,4.7907231 c -0.2794043,0 -0.506718,-0.2273137 -0.506718,-0.506718 0,-0.2794043 0.2273137,-0.506718 0.506718,-0.506718 0.2794043,0 0.506718,0.2273137 0.506718,0.506718 0,0.2794043 -0.2273137,0.506718 -0.506718,0.506718 z m 0,-0.8107488 c -0.1676426,0 -0.3040308,0.1363882 -0.3040308,0.3040308 0,0.1676426 0.1363882,0.3040308 0.3040308,0.3040308 0.1676426,0 0.3040308,-0.1363882 0.3040308,-0.3040308 0,-0.1676426 -0.1363882,-0.3040308 -0.3040308,-0.3040308 z"
       id="path2250"
       style="stroke-width:0.0101344" />
    <path
       fill="#4c7fc7"
       d="m 5.3987847,4.3853487 c -0.055962,0 -0.1013436,-0.045382 -0.1013436,-0.1013436 V 3.4732563 c 0,-0.055972 0.045382,-0.1013436 0.1013436,-0.1013436 0.055962,0 0.1013436,0.045371 0.1013436,0.1013436 v 0.8107488 c 0,0.055962 -0.045382,0.1013436 -0.1013436,0.1013436 z"
       id="path2252"
       style="stroke-width:0.0101344" />
    <path
       fill="#4c7fc7"
       d="m 3.0678819,4.3853487 c -0.055972,0 -0.1013436,-0.045382 -0.1013436,-0.1013436 V 3.4732563 c 0,-0.055972 0.045372,-0.1013436 0.1013436,-0.1013436 0.055972,0 0.1013436,0.045371 0.1013436,0.1013436 v 0.8107488 c 0,0.055962 -0.045371,0.1013436 -0.1013436,0.1013436 z"
       id="path2254"
       style="stroke-width:0.0101344" />
    <path
       fill="#4c7fc7"
       d="M 3.8786307,6.6149079 H 3.0678819 c -0.055972,0 -0.1013436,-0.045382 -0.1013436,-0.1013436 0,-0.055962 0.045372,-0.1013436 0.1013436,-0.1013436 h 0.8107488 c 0.055972,0 0.1013436,0.045382 0.1013436,0.1013436 0,0.055962 -0.045371,0.1013436 -0.1013436,0.1013436 z"
       id="path2256"
       style="stroke-width:0.0101344" />
    <path
       fill="#4c7fc7"
       d="M 5.3987847,6.6149079 H 4.5880359 c -0.055962,0 -0.1013436,-0.045382 -0.1013436,-0.1013436 0,-0.055962 0.045382,-0.1013436 0.1013436,-0.1013436 h 0.8107488 c 0.055962,0 0.1013436,0.045382 0.1013436,0.1013436 0,0.055962 -0.045382,0.1013436 -0.1013436,0.1013436 z"
       id="path2258"
       style="stroke-width:0.0101344" />
    <path
       fill="#4c7fc7"
       d="M 4.5880359,6.6149079 H 3.8786307 c -0.055972,0 -0.1013436,-0.045382 -0.1013436,-0.1013436 v -1.013436 c 0,-0.055962 0.045371,-0.1013436 0.1013436,-0.1013436 h 0.7094052 c 0.055962,0 0.1013436,0.045382 0.1013436,0.1013436 v 1.013436 c 0,0.055962 -0.045382,0.1013436 -0.1013436,0.1013436 z M 3.9799743,6.4122207 h 0.506718 V 5.6014719 h -0.506718 z"
       id="path2260"
       style="stroke-width:0.0101344" />
    <path
       fill="#4c7fc7"
       d="M 5.7028155,3.5745999 H 2.7638511 c -0.055972,0 -0.1013436,-0.045371 -0.1013436,-0.1013436 v -0.506718 c 0,-0.055972 0.045372,-0.1013436 0.1013436,-0.1013436 h 2.9389644 c 0.055962,0 0.1013436,0.045371 0.1013436,0.1013436 v 0.506718 c 0,0.055972 -0.045382,0.1013436 -0.1013436,0.1013436 z M 2.8651947,3.3719127 H 5.6014719 V 3.0678819 H 2.8651947 Z"
       id="path2262"
       style="stroke-width:0.0101344" />
    <path
       fill="#4c7fc7"
       d="M 6.3108771,6.6149079 H 5.3987847 c -0.055962,0 -0.1013436,-0.045382 -0.1013436,-0.1013436 V 4.5880359 c 0,-0.055962 0.045382,-0.1013436 0.1013436,-0.1013436 0.055962,0 0.1013436,0.045382 0.1013436,0.1013436 V 6.4122207 H 6.2095335 V 4.5880359 c 0,-0.055962 0.045382,-0.1013436 0.1013436,-0.1013436 0.055962,0 0.1013436,0.045382 0.1013436,0.1013436 v 1.9255284 c 0,0.055962 -0.045382,0.1013436 -0.1013436,0.1013436 z"
       id="path2264"
       style="stroke-width:0.0101344" />
    <path
       fill="#4c7fc7"
       d="M 6.5135643,4.6893795 H 5.3987847 c -0.055962,0 -0.1013436,-0.045382 -0.1013436,-0.1013436 V 4.2840051 c 0,-0.055962 0.045382,-0.1013436 0.1013436,-0.1013436 h 1.1147796 c 0.055962,0 0.1013436,0.045382 0.1013436,0.1013436 v 0.3040308 c 0,0.055962 -0.045382,0.1013436 -0.1013436,0.1013436 z M 5.5001283,4.4866923 H 6.4122207 V 4.3853487 H 5.5001283 Z"
       id="path2266"
       style="stroke-width:0.0101344" />
    <path
       fill="#4c7fc7"
       d="M 3.0678819,6.6149079 H 2.1557895 c -0.055972,0 -0.1013436,-0.045382 -0.1013436,-0.1013436 V 4.5880359 c 0,-0.055962 0.045371,-0.1013436 0.1013436,-0.1013436 0.055972,0 0.1013436,0.045382 0.1013436,0.1013436 V 6.4122207 H 2.9665383 V 4.5880359 c 0,-0.055962 0.045372,-0.1013436 0.1013436,-0.1013436 0.055972,0 0.1013436,0.045382 0.1013436,0.1013436 v 1.9255284 c 0,0.055962 -0.045371,0.1013436 -0.1013436,0.1013436 z"
       id="path2268"
       style="stroke-width:0.0101344" />
    <path
       fill="#4c7fc7"
       d="M 3.0678819,4.6893795 H 1.9531023 c -0.055972,0 -0.1013436,-0.045382 -0.1013436,-0.1013436 V 4.2840051 c 0,-0.055962 0.045372,-0.1013436 0.1013436,-0.1013436 h 1.1147796 c 0.055972,0 0.1013436,0.045382 0.1013436,0.1013436 v 0.3040308 c 0,0.055962 -0.045371,0.1013436 -0.1013436,0.1013436 z M 2.0544459,4.4866923 H 2.9665383 V 4.3853487 H 2.0544459 Z"
       id="path2270"
       style="stroke-width:0.0101344" />
    <path
       fill="#4c7fc7"
       d="M 5.3987847,6.2095335 H 4.5880359 c -0.055962,0 -0.1013436,-0.045382 -0.1013436,-0.1013436 0,-0.055962 0.045382,-0.1013436 0.1013436,-0.1013436 h 0.8107488 c 0.055962,0 0.1013436,0.045382 0.1013436,0.1013436 0,0.055962 -0.045382,0.1013436 -0.1013436,0.1013436 z"
       id="path2272"
       style="stroke-width:0.0101344" />
    <path
       fill="#4c7fc7"
       d="M 3.8786307,6.2095335 H 3.0678819 c -0.055972,0 -0.1013436,-0.045382 -0.1013436,-0.1013436 0,-0.055962 0.045372,-0.1013436 0.1013436,-0.1013436 h 0.8107488 c 0.055972,0 0.1013436,0.045382 0.1013436,0.1013436 0,0.055962 -0.045371,0.1013436 -0.1013436,0.1013436 z"
       id="path2274"
       style="stroke-width:0.0101344" />
    <path
       fill="#4c7fc7"
       d="M 4.3853487,4.3853487 H 4.2333333 c -0.055972,0 -0.1013436,-0.045382 -0.1013436,-0.1013436 V 3.8786307 c 0,-0.055972 0.045371,-0.1013436 0.1013436,-0.1013436 0.055962,0 0.1013436,0.045371 0.1013436,0.1013436 v 0.3040308 h 0.050672 c 0.055962,0 0.1013436,0.045382 0.1013436,0.1013436 0,0.055962 -0.045382,0.1013436 -0.1013438,0.1013436 z"
       id="path2276"
       style="stroke-width:0.0101344" />
    <path
       fill="#4c7fc7"
       d="m 2.7638511,5.7028155 c -0.055972,0 -0.1013436,-0.045382 -0.1013436,-0.1013436 V 5.1960975 H 2.5611639 v 0.4053744 c 0,0.055962 -0.045371,0.1013436 -0.1013436,0.1013436 -0.055972,0 -0.1013436,-0.045382 -0.1013436,-0.1013436 v -0.506718 c 0,-0.055962 0.045371,-0.1013436 0.1013436,-0.1013436 h 0.3040308 c 0.055972,0 0.1013436,0.045382 0.1013436,0.1013436 v 0.506718 c 0,0.055962 -0.045371,0.1013436 -0.1013436,0.1013436 z"
       id="path2278"
       style="stroke-width:0.0101344" />
    <path
       fill="#4c7fc7"
       d="M 2.7638511,6.0068463 H 2.4598203 c -0.055972,0 -0.1013436,-0.045382 -0.1013436,-0.1013436 V 5.6014719 c 0,-0.055962 0.045371,-0.1013436 0.1013436,-0.1013436 h 0.3040308 c 0.055972,0 0.1013436,0.045382 0.1013436,0.1013436 v 0.3040308 c 0,0.055962 -0.045371,0.1013436 -0.1013436,0.1013436 z M 2.5611639,5.8041591 H 2.6625075 V 5.7028155 H 2.5611639 Z"
       id="path2280"
       style="stroke-width:0.0101344" />
    <path
       fill="#4c7fc7"
       d="m 6.0068463,5.7028155 c -0.055962,0 -0.1013436,-0.045382 -0.1013436,-0.1013436 V 5.1960975 H 5.8041591 v 0.4053744 c 0,0.055962 -0.045382,0.1013436 -0.1013436,0.1013436 -0.055962,0 -0.1013436,-0.045382 -0.1013436,-0.1013436 v -0.506718 c 0,-0.055962 0.045382,-0.1013436 0.1013436,-0.1013436 h 0.3040308 c 0.055962,0 0.1013436,0.045382 0.1013436,0.1013436 v 0.506718 c 0,0.055962 -0.045382,0.1013436 -0.1013436,0.1013436 z"
       id="path2282"
       style="stroke-width:0.0101344" />
    <path
       fill="#4c7fc7"
       d="M 6.0068463,6.0068463 H 5.7028155 c -0.055962,0 -0.1013436,-0.045382 -0.1013436,-0.1013436 V 5.6014719 c 0,-0.055962 0.045382,-0.1013436 0.1013436,-0.1013436 h 0.3040308 c 0.055962,0 0.1013436,0.045382 0.1013436,0.1013436 v 0.3040308 c 0,0.055962 -0.045382,0.1013436 -0.1013436,0.1013436 z M 5.8041591,5.8041591 H 5.9055027 V 5.7028155 H 5.8041591 Z"
       id="path2284"
       style="stroke-width:0.0101344" />
    <path
       fill="#4c7fc7"
       d="M 5.0947539,2.5611639 H 4.1826615 c -0.055972,0 -0.1013436,-0.045371 -0.1013436,-0.1013436 v -0.506718 c 0,-0.055972 0.045371,-0.1013436 0.1013436,-0.1013436 h 0.9120924 c 0.055962,0 0.1013436,0.045372 0.1013436,0.1013436 v 0.506718 c 0,0.055972 -0.045382,0.1013436 -0.1013436,0.1013436 z M 4.2840051,2.3584767 H 4.9934103 V 2.0544459 H 4.2840051 Z"
       id="path2286"
       style="stroke-width:0.0101344;fill:#000000" />
    <path
       fill="#4c7fc7"
       d="m 4.1826615,3.0678819 c -0.055972,0 -0.1013436,-0.045372 -0.1013436,-0.1013436 v -0.506718 c 0,-0.055972 0.045371,-0.1013436 0.1013436,-0.1013436 0.055972,0 0.1013436,0.045371 0.1013436,0.1013436 v 0.506718 c 0,0.055972 -0.045371,0.1013436 -0.1013436,0.1013436 z"
       id="path2288"
       style="stroke-width:0.0101344;fill:#000000" />
    <path
       fill="#4c7fc7"
       d="m 2.4598203,2.7638511 c -0.1676426,0 -0.3040308,-0.1363882 -0.3040308,-0.3040308 0,-0.1676426 0.1363882,-0.3040308 0.3040308,-0.3040308 0.1676426,0 0.3040308,0.1363882 0.3040308,0.3040308 0,0.1676426 -0.1363882,0.3040308 -0.3040308,0.3040308 z m 0,-0.4053744 c -0.055881,0 -0.1013436,0.045463 -0.1013436,0.1013436 0,0.055881 0.045463,0.1013436 0.1013436,0.1013436 0.055881,0 0.1013436,-0.045463 0.1013436,-0.1013436 0,-0.055881 -0.045463,-0.1013436 -0.1013436,-0.1013436 z"
       id="path2290"
       style="stroke-width:0.0101344;fill:#000000" />
    <path
       fill="#4c7fc7"
       d="m 6.2602053,2.9665383 c -0.195583,0 -0.3547026,-0.1591196 -0.3547026,-0.3547026 0,-0.195583 0.1591196,-0.3547026 0.3547026,-0.3547026 0.195583,0 0.3547026,0.1591196 0.3547026,0.3547026 0,0.195583 -0.1591196,0.3547026 -0.3547026,0.3547026 z m 0,-0.506718 c -0.083821,0 -0.1520154,0.068194 -0.1520154,0.1520154 0,0.083821 0.068194,0.1520154 0.1520154,0.1520154 0.083821,0 0.1520154,-0.068194 0.1520154,-0.1520154 0,-0.083821 -0.068194,-0.1520154 -0.1520154,-0.1520154 z"
       id="path2292"
       style="stroke-width:0.0101344;fill:#000000" />
    <path
       fill="#4c7fc7"
       d="m 5.3987847,5.1960975 h -0.506718 c -0.055962,0 -0.1013436,-0.045382 -0.1013436,-0.1013436 0,-0.055962 0.045382,-0.1013436 0.1013436,-0.1013436 h 0.506718 c 0.055962,0 0.1013436,0.045382 0.1013436,0.1013436 0,0.055962 -0.045382,0.1013436 -0.1013436,0.1013436 z"
       id="path2294"
       style="stroke-width:0.0101344" />
    <g
       id="g2602"
       transform="matrix(-0.293846,0,0,0.293846,9.022845,-0.46820273)"
       style="fill:#000000">
		<path
   d="M 11,30 H 10 C 7.7944,30 6,28.2056 6,26 V 20.5 C 6,19.874 5.7007,19.2759 5.1997,18.9004 L 2.3999,16.7998 C 2.1479,16.6113 2,16.3149 2,16 2,15.6851 2.1479,15.3887 2.3999,15.2002 L 5.1997,13.1001 C 5.7007,12.7241 6,12.126 6,11.5 V 5.9971 C 6,3.793 7.793,2 9.9971,2 H 11 c 0.5522,0 1,0.4478 1,1 0,0.5522 -0.4478,1 -1,1 H 9.9971 C 8.896,4 8,4.896 8,5.9971 V 11.5 c 0,1.2524 -0.5981,2.4487 -1.6001,3.2002 L 4.6665,16 6.3999,17.3003 C 7.4019,18.0513 8,19.2476 8,20.5 V 26 c 0,1.103 0.897,2 2,2 h 1 c 0.5522,0 1,0.4478 1,1 0,0.5522 -0.4478,1 -1,1 z"
   id="path2600"
   style="fill:#000000" />

	</g>
  </g>
</svg>
