<?xml version="1.0" encoding="UTF-8" standalone="no"?>
<!-- Created with Inkscape (http://www.inkscape.org/) -->

<svg
   width="30.602625mm"
   height="25.32885mm"
   viewBox="0 0 30.602625 25.32885"
   version="1.1"
   id="svg1570"
   xmlns="http://www.w3.org/2000/svg"
   xmlns:svg="http://www.w3.org/2000/svg">
  <defs
     id="defs1567" />
  <g
     id="layer1"
     transform="translate(-31.996219,-82.77224)">
    <g
       id="g3701"
       transform="matrix(1.1245522,0,0,1.1245522,-102.06453,-99.923039)">
      <g
         fill="none"
         fill-rule="nonzero"
         stroke="none"
         stroke-width="1"
         stroke-linecap="butt"
         stroke-linejoin="miter"
         stroke-miterlimit="10"
         stroke-dasharray="none"
         stroke-dashoffset="0"
         font-family="none"
         font-weight="none"
         font-size="none"
         text-anchor="none"
         style="mix-blend-mode:normal"
         id="g1598"
         transform="matrix(0.05830546,0,0,0.05830546,125.49953,166.11556)">
        <g
           transform="scale(0.49231)"
           id="g1596">
          <path
             d="M 140,490 H 50 V 300 h 90 c 0,5.807 0,186.416 0,190 z"
             fill="#ffffff"
             id="path1506" />
          <path
             d="m 460,300 v 190 h -90 c 0,-33.639 0,-121.491 0,-190 z"
             fill="#ffffff"
             id="path1508" />
          <path
             d="m 370,450 c -0.114,0 -207.522,0 -230,0 0,-5.303 0,-216.825 0,-260 h 230 c 0,12.568 0,251.52 0,260 z"
             fill="#f9fbff"
             id="path1510" />
          <path
             id="path1512"
             style="fill:#ffffff"
             d="m 295,270 a 40,40 0 0 1 -40,40 40,40 0 0 1 -40,-40 40,40 0 0 1 40,-40 40,40 0 0 1 40,40 z" />
          <path
             id="path1514"
             style="fill:#ffffff"
             d="m 400,400 h 30 v 30 h -30 z" />
          <path
             id="path1516"
             style="fill:#ffffff"
             d="m 80,400 h 30 v 30 H 80 Z" />
          <path
             id="path1518"
             style="fill:#ffffff"
             d="m 400,350 h 30 v 50 h -30 z" />
          <path
             id="path1520"
             style="fill:#ffffff"
             d="m 80,350 h 30 v 50 H 80 Z" />
          <path
             d="m 400,140 v 50 c -11.992,0 -283.024,0 -290,0 v -50 c 15.104,0 274.183,0 290,0 z"
             fill="#f9fbff"
             id="path1522" />
          <path
             d="m 80,70 c 11.05,0 20,8.95 20,20 0,11.05 -8.95,20 -20,20 -11.05,0 -20,-8.95 -20,-20 0,-11.05 8.95,-20 20,-20 z"
             fill="#ffffff"
             id="path1524" />
          <path
             d="m 455,80 c 13.81,0 25,11.19 25,25 0,13.81 -11.19,25 -25,25 -13.81,0 -25,-11.19 -25,-25 0,-13.81 11.19,-25 25,-25 z"
             fill="#ffffff"
             id="path1526" />
          <path
             d="m 480,270 v 30 h -20 -90 v -30 z"
             fill="#ffffff"
             id="path1528" />
          <path
             d="m 140,270 v 30 H 50 30 v -30 z"
             fill="#ffffff"
             id="path1530" />
          <path
             d="m 290,450 v 40 h -70 v -40 -60 h 70 z"
             fill="#ffffff"
             id="path1532" />
          <path
             id="path1534"
             style="fill:#f9fbff"
             d="m 290,450 h 80 v 40 h -80 z" />
          <path
             id="path1536"
             style="fill:#f9fbff"
             d="m 140,450 h 80 v 40 h -80 z" />
          <path
             id="path1538"
             style="fill:#ffffff"
             d="m 250,40 h 90 v 50 h -90 z" />
          <path
             d="m 460,190 c 5.52,0 10,4.48 10,10 0,5.52 -4.48,10 -10,10 -5.52,0 -10,-4.48 -10,-10 0,-5.52 4.48,-10 10,-10 z"
             fill="#144c9c"
             id="path1540" />
          <path
             d="m 400,60 c 5.52,0 10,4.48 10,10 0,5.52 -4.48,10 -10,10 -5.52,0 -10,-4.48 -10,-10 0,-5.52 4.48,-10 10,-10 z"
             fill="#144c9c"
             id="path1542" />
          <path
             d="m 290,340 c 5.52,0 10,4.48 10,10 0,5.52 -4.48,10 -10,10 -5.52,0 -10,-4.48 -10,-10 0,-5.52 4.48,-10 10,-10 z"
             fill="#144c9c"
             id="path1544" />
          <path
             d="m 180,50 c 5.52,0 10,4.48 10,10 0,5.52 -4.48,10 -10,10 -5.52,0 -10,-4.48 -10,-10 0,-5.52 4.48,-10 10,-10 z"
             fill="#144c9c"
             id="path1546" />
          <path
             d="m 70,160 c 5.52,0 10,4.48 10,10 0,5.52 -4.48,10 -10,10 -5.52,0 -10,-4.48 -10,-10 0,-5.52 4.48,-10 10,-10 z"
             fill="#144c9c"
             id="path1548" />
          <path
             d="m 255,320 c -27.57,0 -50,-22.43 -50,-50 0,-27.57 22.43,-50 50,-50 27.57,0 50,22.43 50,50 0,27.57 -22.43,50 -50,50 z m 0,-80 c -16.542,0 -30,13.458 -30,30 0,16.542 13.458,30 30,30 16.542,0 30,-13.458 30,-30 0,-16.542 -13.458,-30 -30,-30 z"
             fill="#144c9c"
             id="path1550" />
          <path
             d="m 370,280 c -5.522,0 -10,-4.478 -10,-10 v -80 c 0,-5.523 4.478,-10 10,-10 5.522,0 10,4.477 10,10 v 80 c 0,5.522 -4.478,10 -10,10 z"
             fill="#144c9c"
             id="path1552" />
          <path
             d="m 140,280 c -5.523,0 -10,-4.478 -10,-10 v -80 c 0,-5.523 4.477,-10 10,-10 5.523,0 10,4.477 10,10 v 80 c 0,5.522 -4.477,10 -10,10 z"
             fill="#144c9c"
             id="path1554" />
          <path
             d="m 220,500 h -80 c -5.523,0 -10,-4.478 -10,-10 0,-5.522 4.477,-10 10,-10 h 80 c 5.523,0 10,4.478 10,10 0,5.522 -4.477,10 -10,10 z"
             fill="#144c9c"
             id="path1556" />
          <path
             d="m 370,500 h -80 c -5.522,0 -10,-4.478 -10,-10 0,-5.522 4.478,-10 10,-10 h 80 c 5.522,0 10,4.478 10,10 0,5.522 -4.478,10 -10,10 z"
             fill="#144c9c"
             id="path1558" />
          <path
             d="m 290,500 h -70 c -5.523,0 -10,-4.478 -10,-10 V 390 c 0,-5.522 4.477,-10 10,-10 h 70 c 5.522,0 10,4.478 10,10 v 100 c 0,5.522 -4.478,10 -10,10 z m -60,-20 h 50 v -80 h -50 z"
             fill="#144c9c"
             id="path1560" />
          <path
             d="M 400,200 H 110 c -5.523,0 -10,-4.477 -10,-10 v -50 c 0,-5.523 4.477,-10 10,-10 h 290 c 5.522,0 10,4.477 10,10 v 50 c 0,5.523 -4.478,10 -10,10 z M 120,180 H 390 V 150 H 120 Z"
             fill="#144c9c"
             id="path1562" />
          <path
             d="m 460,500 h -90 c -5.522,0 -10,-4.478 -10,-10 V 300 c 0,-5.522 4.478,-10 10,-10 5.522,0 10,4.478 10,10 v 180 h 70 V 300 c 0,-5.522 4.478,-10 10,-10 5.522,0 10,4.478 10,10 v 190 c 0,5.522 -4.478,10 -10,10 z"
             fill="#144c9c"
             id="path1564" />
          <path
             d="M 480,310 H 370 c -5.522,0 -10,-4.478 -10,-10 v -30 c 0,-5.522 4.478,-10 10,-10 h 110 c 5.522,0 10,4.478 10,10 v 30 c 0,5.522 -4.478,10 -10,10 z M 380,290 h 90 v -10 h -90 z"
             fill="#144c9c"
             id="path1566" />
          <path
             d="M 140,500 H 50 c -5.523,0 -10,-4.478 -10,-10 V 300 c 0,-5.522 4.477,-10 10,-10 5.523,0 10,4.478 10,10 v 180 h 70 V 300 c 0,-5.522 4.477,-10 10,-10 5.523,0 10,4.478 10,10 v 190 c 0,5.522 -4.477,10 -10,10 z"
             fill="#144c9c"
             id="path1568" />
          <path
             d="M 140,310 H 30 c -5.523,0 -10,-4.478 -10,-10 v -30 c 0,-5.522 4.477,-10 10,-10 h 110 c 5.523,0 10,4.478 10,10 v 30 c 0,5.522 -4.477,10 -10,10 z M 40,290 h 90 V 280 H 40 Z"
             fill="#144c9c"
             id="path1570" />
          <path
             d="m 370,460 h -80 c -5.522,0 -10,-4.478 -10,-10 0,-5.522 4.478,-10 10,-10 h 80 c 5.522,0 10,4.478 10,10 0,5.522 -4.478,10 -10,10 z"
             fill="#144c9c"
             id="path1572" />
          <path
             d="m 220,460 h -80 c -5.523,0 -10,-4.478 -10,-10 0,-5.522 4.477,-10 10,-10 h 80 c 5.523,0 10,4.478 10,10 0,5.522 -4.477,10 -10,10 z"
             fill="#144c9c"
             id="path1574" />
          <path
             d="m 270,280 h -15 c -5.523,0 -10,-4.478 -10,-10 v -40 c 0,-5.523 4.477,-10 10,-10 5.522,0 10,4.477 10,10 v 30 h 5 c 5.522,0 10,4.478 10,10 0,5.522 -4.478,10 -10,10 z"
             fill="#144c9c"
             id="path1576" />
          <path
             d="m 110,410 c -5.523,0 -10,-4.478 -10,-10 V 360 H 90 v 40 c 0,5.522 -4.477,10 -10,10 -5.523,0 -10,-4.478 -10,-10 v -50 c 0,-5.522 4.477,-10 10,-10 h 30 c 5.523,0 10,4.478 10,10 v 50 c 0,5.522 -4.477,10 -10,10 z"
             fill="#144c9c"
             id="path1578" />
          <path
             d="M 110,440 H 80 c -5.523,0 -10,-4.478 -10,-10 v -30 c 0,-5.522 4.477,-10 10,-10 h 30 c 5.523,0 10,4.478 10,10 v 30 c 0,5.522 -4.477,10 -10,10 z M 90,420 h 10 V 410 H 90 Z"
             fill="#144c9c"
             id="path1580" />
          <path
             d="m 430,410 c -5.522,0 -10,-4.478 -10,-10 v -40 h -10 v 40 c 0,5.522 -4.478,10 -10,10 -5.522,0 -10,-4.478 -10,-10 v -50 c 0,-5.522 4.478,-10 10,-10 h 30 c 5.522,0 10,4.478 10,10 v 50 c 0,5.522 -4.478,10 -10,10 z"
             fill="#144c9c"
             id="path1582" />
          <path
             d="m 430,440 h -30 c -5.522,0 -10,-4.478 -10,-10 v -30 c 0,-5.522 4.478,-10 10,-10 h 30 c 5.522,0 10,4.478 10,10 v 30 c 0,5.522 -4.478,10 -10,10 z m -20,-20 h 10 v -10 h -10 z"
             fill="#144c9c"
             id="path1584" />
          <path
             d="m 340,100 h -90 c -5.523,0 -10,-4.477 -10,-10 V 40 c 0,-5.523 4.477,-10 10,-10 h 90 c 5.522,0 10,4.477 10,10 v 50 c 0,5.523 -4.478,10 -10,10 z M 260,80 h 70 V 50 h -70 z"
             fill="#144c9c"
             id="path1586" />
          <path
             d="m 250,150 c -5.523,0 -10,-4.477 -10,-10 V 90 c 0,-5.523 4.477,-10 10,-10 5.523,0 10,4.477 10,10 v 50 c 0,5.523 -4.477,10 -10,10 z"
             fill="#144c9c"
             id="path1588" />
          <path
             d="M 80,120 C 63.458,120 50,106.542 50,90 50,73.458 63.458,60 80,60 c 16.542,0 30,13.458 30,30 0,16.542 -13.458,30 -30,30 z m 0,-40 c -5.514,0 -10,4.486 -10,10 0,5.514 4.486,10 10,10 5.514,0 10,-4.486 10,-10 0,-5.514 -4.486,-10 -10,-10 z"
             fill="#144c9c"
             id="path1590" />
          <path
             d="m 455,140 c -19.299,0 -35,-15.701 -35,-35 0,-19.299 15.701,-35 35,-35 19.299,0 35,15.701 35,35 0,19.299 -15.701,35 -35,35 z m 0,-50 c -8.271,0 -15,6.729 -15,15 0,8.271 6.729,15 15,15 8.271,0 15,-6.729 15,-15 0,-8.271 -6.729,-15 -15,-15 z"
             fill="#144c9c"
             id="path1592" />
          <path
             d="m 370,360 h -50 c -5.522,0 -10,-4.478 -10,-10 0,-5.522 4.478,-10 10,-10 h 50 c 5.522,0 10,4.478 10,10 0,5.522 -4.478,10 -10,10 z"
             fill="#144c9c"
             id="path1594" />
        </g>
      </g>
      <g
         id="g3647"
         transform="translate(-0.59462794)">
        <g
           id="g1504"
           style="fill:#1a6dff;fill-opacity:1"
           transform="matrix(-0.7667419,0,0,-0.7667419,147.91667,185.99009)">
          <path
             d="M 11,30 H 10 C 7.7944,30 6,28.2056 6,26 V 20.5 C 6,19.874 5.7007,19.2759 5.1997,18.9004 L 2.3999,16.7998 C 2.1479,16.6113 2,16.3149 2,16 2,15.6851 2.1479,15.3887 2.3999,15.2002 L 5.1997,13.1001 C 5.7007,12.7241 6,12.126 6,11.5 V 5.9971 C 6,3.793 7.793,2 9.9971,2 H 11 c 0.5522,0 1,0.4478 1,1 0,0.5522 -0.4478,1 -1,1 H 9.9971 C 8.896,4 8,4.896 8,5.9971 V 11.5 c 0,1.2524 -0.5981,2.4487 -1.6001,3.2002 L 4.6665,16 6.3999,17.3003 C 7.4019,18.0513 8,19.2476 8,20.5 V 26 c 0,1.103 0.897,2 2,2 h 1 c 0.5522,0 1,0.4478 1,1 0,0.5522 -0.4478,1 -1,1 z"
             id="path1502"
             style="fill:#1a6dff;fill-opacity:1" />
        </g>
        <g
           id="g1602"
           style="fill:#1a6dff;fill-opacity:1"
           transform="matrix(0.7667419,0,0,-0.7667419,118.91087,185.99009)">
          <path
             d="M 11,30 H 10 C 7.7944,30 6,28.2056 6,26 V 20.5 C 6,19.874 5.7007,19.2759 5.1997,18.9004 L 2.3999,16.7998 C 2.1479,16.6113 2,16.3149 2,16 2,15.6851 2.1479,15.3887 2.3999,15.2002 L 5.1997,13.1001 C 5.7007,12.7241 6,12.126 6,11.5 V 5.9971 C 6,3.793 7.793,2 9.9971,2 H 11 c 0.5522,0 1,0.4478 1,1 0,0.5522 -0.4478,1 -1,1 H 9.9971 C 8.896,4 8,4.896 8,5.9971 V 11.5 c 0,1.2524 -0.5981,2.4487 -1.6001,3.2002 L 4.6665,16 6.3999,17.3003 C 7.4019,18.0513 8,19.2476 8,20.5 V 26 c 0,1.103 0.897,2 2,2 h 1 c 0.5522,0 1,0.4478 1,1 0,0.5522 -0.4478,1 -1,1 z"
             id="path1600"
             style="fill:#1a6dff;fill-opacity:1" />
        </g>
      </g>
    </g>
  </g>
</svg>
