<?xml version="1.0" encoding="UTF-8" standalone="no"?>
<svg
   viewBox="0 0 750 500"
   version="1.1"
   id="svg609"
   sodipodi:docname="Coding workshop-bro.svg"
   inkscape:version="1.2.2 (732a01da63, 2022-12-09)"
   xmlns:inkscape="http://www.inkscape.org/namespaces/inkscape"
   xmlns:sodipodi="http://sodipodi.sourceforge.net/DTD/sodipodi-0.dtd"
   xmlns="http://www.w3.org/2000/svg"
   xmlns:svg="http://www.w3.org/2000/svg">
  <defs
     id="defs613">
    <rect
       x="225.61983"
       y="355.16529"
       width="166.73554"
       height="50.826447"
       id="rect1227" />
    <rect
       x="225.61983"
       y="355.16528"
       width="223.14049"
       height="59.504133"
       id="rect1227-9" />
  </defs>
  <sodipodi:namedview
     id="namedview611"
     pagecolor="#ffffff"
     bordercolor="#666666"
     borderopacity="1.0"
     inkscape:showpageshadow="2"
     inkscape:pageopacity="0.0"
     inkscape:pagecheckerboard="0"
     inkscape:deskcolor="#d1d1d1"
     showgrid="false"
     inkscape:zoom="1.612"
     inkscape:cx="374.37965"
     inkscape:cy="250"
     inkscape:window-width="1920"
     inkscape:window-height="1009"
     inkscape:window-x="-8"
     inkscape:window-y="-8"
     inkscape:window-maximized="1"
     inkscape:current-layer="svg609" />
  <path
     d="m 286.18,112.49 c 97.48,-48 197.73,-110.75 311,-85.07 35.11,8 67.06,27.87 88.66,56.81 57.75,77.39 53.06,195.92 21.68,283 a 158.37,158.37 0 0 1 -15.79,32.55 c -31.85,49.15 -85.51,51.47 -137.28,37.26 -43.8,-12 -82.61,-24.4 -127.86,-12.17 -25.06,6.77 -49.35,16.08 -74.32,23.17 -34,9.64 -69.05,16.19 -104.45,16.86 -93.67,1.75 -200.67,-46 -209,-150.63 a 167.16,167.16 0 0 1 -0.33,-20.39 c 1.88,-41.76 15.68,-83.58 53.93,-105.26 38.46,-21.8 84.09,-30.41 125.23,-45.87 23.35,-8.75 46.09,-19.21 68.53,-30.26 z"
     style="fill:#004bff"
     id="path2" />
  <path
     d="m 286.18,112.49 c 97.48,-48 197.73,-110.75 311,-85.07 35.11,8 67.06,27.87 88.66,56.81 57.75,77.39 53.06,195.92 21.68,283 a 158.37,158.37 0 0 1 -15.79,32.55 c -31.85,49.15 -85.51,51.47 -137.28,37.26 -43.8,-12 -82.61,-24.4 -127.86,-12.17 -25.06,6.77 -49.35,16.08 -74.32,23.17 -34,9.64 -69.05,16.19 -104.45,16.86 -93.67,1.75 -200.67,-46 -209,-150.63 a 167.16,167.16 0 0 1 -0.33,-20.39 c 1.88,-41.76 15.68,-83.58 53.93,-105.26 38.46,-21.8 84.09,-30.41 125.23,-45.87 23.35,-8.75 46.09,-19.21 68.53,-30.26 z"
     style="opacity:0.7;fill:#ffffff"
     id="path4" />
  <path
     d="m 96.53,457.46 h -51 a 0.51,0.51 0 0 1 -0.5,-0.5 0.5,0.5 0 0 1 0.5,-0.5 h 51 a 0.5,0.5 0 0 1 0.5,0.5 0.5,0.5 0 0 1 -0.5,0.5 z"
     style="fill:#263238"
     id="path7" />
  <path
     d="M 722,457.46 H 105.62 a 0.5,0.5 0 0 1 -0.5,-0.5 0.5,0.5 0 0 1 0.5,-0.5 H 722 a 0.5,0.5 0 0 1 0.5,0.5 0.5,0.5 0 0 1 -0.5,0.5 z"
     style="fill:#263238"
     id="path9" />
  <path
     d="m 660.86,234.46 h -8.69 l -1.09,-7.6 a 27.41,27.41 0 0 1 -10,-4.18 l -6.08,4.59 -6.15,-6.15 4.6,-6.14 a 27.55,27.55 0 0 1 -4.11,-10 l -7.58,-1.09 v -8.69 l 7.61,-1.09 a 27.23,27.23 0 0 1 4.18,-10 l -4.63,-6.11 6.14,-6.15 6.15,4.61 a 27.26,27.26 0 0 1 10,-4.12 l 1.08,-7.57 H 661 l 1.08,7.6 a 27.35,27.35 0 0 1 10,4.18 l 6.12,-4.59 6.14,6.15 -4.6,6.14 a 27.6,27.6 0 0 1 4.12,10 l 7.57,1.08 V 204 l -7.6,1.08 a 27.7,27.7 0 0 1 -4.18,10 l 4.59,6.12 -6.15,6.15 -6.09,-4.58 a 27.43,27.43 0 0 1 -10,4.12 z m -7.83,-1 h 7 l 1.07,-7.43 0.35,-0.06 a 26.48,26.48 0 0 0 10.3,-4.23 l 0.29,-0.2 6,4.52 4.93,-4.93 -4.5,-6 0.2,-0.29 a 26.46,26.46 0 0 0 4.29,-10.27 l 0.07,-0.35 7.45,-1.07 v -7 l -7.48,-1.02 -0.06,-0.36 a 26.52,26.52 0 0 0 -4.23,-10.29 l -0.2,-0.3 4.51,-6 -4.92,-4.92 -6,4.5 -0.29,-0.21 a 26.67,26.67 0 0 0 -10.27,-4.29 l -0.36,-0.06 -1.06,-7.45 h -7 l -1.06,7.42 -0.36,0.06 a 26.63,26.63 0 0 0 -10.3,4.23 l -0.29,0.2 -6,-4.51 -4.92,4.92 4.5,6 -0.21,0.3 a 26.54,26.54 0 0 0 -4.29,10.27 l -0.07,0.35 -7.4,1.01 v 7 l 7.43,1.06 0.06,0.35 a 26.63,26.63 0 0 0 4.23,10.3 l 0.2,0.29 -4.51,6 4.92,4.93 6,-4.5 0.3,0.2 a 26.39,26.39 0 0 0 10.27,4.29 l 0.35,0.07 z m 3.56,-14.39 a 19.48,19.48 0 1 1 19.48,-19.48 19.5,19.5 0 0 1 -19.48,19.48 z m 0,-38 a 18.48,18.48 0 1 0 18.48,18.48 18.5,18.5 0 0 0 -18.48,-18.44 z"
     style="fill:#263238"
     id="path12" />
  <path
     d="m 691.26,272.51 h -6.47 l -0.78,-5.46 a 19.56,19.56 0 0 1 -7,-2.93 l -4.4,3.3 -4.61,-4.58 3.31,-4.41 a 19.69,19.69 0 0 1 -2.89,-7 l -5.44,-0.77 v -6.47 l 5.46,-0.78 a 19.93,19.93 0 0 1 2.93,-7 l -3.27,-4.41 4.57,-4.57 4.41,3.31 a 19.65,19.65 0 0 1 7,-2.89 l 0.78,-5.44 h 6.47 l 0.78,5.46 a 19.74,19.74 0 0 1 7,2.93 l 4.39,-3.29 4.58,4.57 -3.31,4.41 a 20,20 0 0 1 2.89,7 l 5.44,0.78 v 6.47 l -5.46,0.78 a 19.76,19.76 0 0 1 -2.94,7 l 3.3,4.39 -4.57,4.57 -4.41,-3.3 a 20,20 0 0 1 -7.05,2.89 z m -5.6,-1 h 4.73 l 0.76,-5.28 0.35,-0.07 a 18.86,18.86 0 0 0 7.31,-3 l 0.29,-0.2 4.29,3.21 3.35,-3.34 -3.21,-4.28 0.21,-0.29 a 18.9,18.9 0 0 0 3,-7.29 l 0.07,-0.35 5.31,-0.76 v -4.73 l -5.29,-0.76 -0.07,-0.35 a 18.86,18.86 0 0 0 -3,-7.31 l -0.2,-0.3 3.22,-4.29 -3.35,-3.34 -4.23,3.22 -0.3,-0.2 a 18.92,18.92 0 0 0 -7.29,-3.05 l -0.35,-0.06 -0.76,-5.31 h -4.73 l -0.76,5.29 -0.35,0.06 a 18.86,18.86 0 0 0 -7.31,3 l -0.3,0.21 -4.28,-3.22 -3.35,3.35 3.21,4.27 -0.21,0.3 a 18.63,18.63 0 0 0 -3,7.29 l -0.07,0.35 L 664,245 v 4.73 l 5.29,0.75 0.07,0.36 a 18.7,18.7 0 0 0 3,7.31 l 0.2,0.29 -3.22,4.29 3.35,3.35 4.27,-3.21 0.3,0.21 a 18.84,18.84 0 0 0 7.29,3 l 0.35,0.07 z m 2.42,-10 a 14.07,14.07 0 1 1 14.07,-14.07 14.08,14.08 0 0 1 -14.07,14.07 z m 0,-27.14 a 13.07,13.07 0 1 0 13.07,13.07 13.08,13.08 0 0 0 -13.07,-13.07 z"
     style="fill:#263238"
     id="path14" />
  <path
     d="m 58.94,222.42 h -8.69 l -1.09,-7.6 a 27.58,27.58 0 0 1 -10,-4.18 l -6.16,4.58 -6.15,-6.14 4.6,-6.15 a 27.41,27.41 0 0 1 -4.11,-10 l -7.58,-1.08 v -8.7 L 27.4,182 a 27.54,27.54 0 0 1 4.19,-10 l -4.59,-6.09 6.15,-6.14 6.14,4.6 a 27.6,27.6 0 0 1 10,-4.12 l 1.08,-7.57 h 8.7 l 1.08,7.6 a 27.7,27.7 0 0 1 10,4.18 l 6.12,-4.59 6.18,6.13 -4.6,6.15 a 27.6,27.6 0 0 1 4.12,10 l 7.57,1.08 V 192 l -7.6,1.09 a 27.41,27.41 0 0 1 -4.18,10 l 4.59,6.12 -6.15,6.15 -6.15,-4.6 a 27.44,27.44 0 0 1 -10,4.11 z m -7.83,-1 h 7 l 1.03,-7.42 0.35,-0.06 a 26.63,26.63 0 0 0 10.3,-4.23 l 0.29,-0.2 6,4.51 4.92,-4.93 -4.5,-6 0.2,-0.3 A 26.39,26.39 0 0 0 81,192.52 l 0.07,-0.35 7.45,-1.06 v -7 l -7.43,-1.07 -0.06,-0.35 a 26.63,26.63 0 0 0 -4.23,-10.3 l -0.2,-0.29 4.51,-6 -4.92,-4.93 -6,4.5 -0.29,-0.2 a 26.52,26.52 0 0 0 -10.27,-4.29 l -0.36,-0.07 -1.06,-7.45 h -7 l -1.06,7.43 -0.36,0.06 a 26.52,26.52 0 0 0 -10.29,4.23 l -0.3,0.2 -6,-4.51 -4.88,4.93 4.5,6 -0.21,0.3 a 26.56,26.56 0 0 0 -4.29,10.26 l -0.07,0.36 -7.45,1.08 v 7 l 7.43,1 0.06,0.36 a 26.52,26.52 0 0 0 4.23,10.29 l 0.2,0.3 -4.51,6 4.92,4.92 6,-4.5 0.3,0.21 a 26.39,26.39 0 0 0 10.27,4.32 l 0.35,0.07 z M 54.67,207 a 19.47,19.47 0 1 1 13.77,-5.7 19.4,19.4 0 0 1 -13.77,5.7 z m 0,-37.94 a 18.47,18.47 0 1 0 13.07,5.4 18.41,18.41 0 0 0 -13.07,-5.38 z"
     style="fill:#263238"
     id="path16" />
  <path
     d="M 69.42,156.53 H 63 l -0.78,-5.46 a 19.93,19.93 0 0 1 -7,-2.93 l -4.4,3.29 -4.57,-4.57 3.31,-4.41 a 19.65,19.65 0 0 1 -2.89,-7 l -5.44,-0.78 v -6.47 l 5.46,-0.78 a 19.74,19.74 0 0 1 2.93,-7 l -3.36,-4.42 4.57,-4.57 4.41,3.3 a 20,20 0 0 1 7,-2.89 l 0.78,-5.43 h 6.47 l 0.78,5.45 a 19.84,19.84 0 0 1 7,2.94 l 4.39,-3.3 4.63,4.5 -3.29,4.46 a 19.87,19.87 0 0 1 2.89,7 l 5.43,0.77 v 6.47 l -5.45,0.78 a 19.76,19.76 0 0 1 -2.94,7 l 3.3,4.4 -4.58,4.57 -4.41,-3.31 a 19.58,19.58 0 0 1 -7,2.89 z m -5.6,-1 h 4.73 l 0.75,-5.29 0.36,-0.06 a 18.72,18.72 0 0 0 7.31,-3 l 0.29,-0.2 4.29,3.22 3.35,-3.35 -3.21,-4.27 0.21,-0.3 a 18.84,18.84 0 0 0 3,-7.29 l 0.07,-0.35 5.3,-0.76 v -4.73 L 85,128.38 V 128 a 18.86,18.86 0 0 0 -3,-7.31 l -0.2,-0.29 3.2,-4.26 -3.34,-3.35 -4.31,3.21 -0.29,-0.21 a 18.9,18.9 0 0 0 -7.29,-3 l -0.35,-0.07 -0.76,-5.3 h -4.73 l -0.76,5.28 -0.35,0.07 a 18.86,18.86 0 0 0 -7.31,3 l -0.3,0.2 -4.29,-3.21 -3.34,3.34 3.2,4.28 -0.2,0.29 a 18.92,18.92 0 0 0 -3,7.29 l -0.06,0.35 -5.31,0.76 v 4.73 l 5.29,0.76 0.06,0.35 a 18.86,18.86 0 0 0 3,7.31 l 0.21,0.3 -3.22,4.29 3.35,3.34 4.27,-3.2 0.3,0.2 a 18.8,18.8 0 0 0 7.29,3 l 0.35,0.06 z m 2.42,-10 a 14.07,14.07 0 1 1 10,-4.12 14,14 0 0 1 -10,4.11 z m 0,-27.14 a 13.08,13.08 0 1 0 9.24,3.83 v 0 a 13,13 0 0 0 -9.24,-3.84 z"
     style="fill:#263238"
     id="path18" />
  <path
     d="m 44.87,315.88 c 0,0 -2.34,6.43 -7.31,7.3 -4.97,0.87 -13.73,-8.76 -8.18,-13.73 5.55,-4.97 13.15,2.92 15.49,6.43 z"
     style="fill:#004bff"
     id="path21" />
  <path
     d="m 36.9,323.74 c -3.25,0 -7.24,-3.39 -8.89,-6.78 -1.5,-3.08 -1.12,-5.95 1,-7.88 a 6.41,6.41 0 0 1 5.26,-1.67 c 4.42,0.56 9,5.21 11,8.19 a 0.51,0.51 0 0 1 0.06,0.45 c -0.1,0.27 -2.5,6.71 -7.69,7.63 a 4.74,4.74 0 0 1 -0.74,0.06 z m -3.48,-15.38 a 5.48,5.48 0 0 0 -3.71,1.46 c -2.46,2.21 -1.56,5.14 -0.8,6.7 1.77,3.64 5.93,6.63 8.56,6.17 4.11,-0.72 6.36,-5.62 6.83,-6.75 -1.89,-2.74 -6.16,-7 -10.11,-7.54 a 6.74,6.74 0 0 0 -0.77,-0.04 z"
     style="fill:#263238"
     id="path23" />
  <path
     d="m 52.46,284.32 c 0,0 -7.3,17.83 -4.38,26.59 2.92,8.76 21,15.2 26.3,3.8 5.3,-11.4 -6.43,-27.46 -10.81,-31 -4.38,-3.54 -9.65,-2.31 -11.11,0.61 z"
     style="fill:#004bff"
     id="path25" />
  <path
     d="m 64.26,321.33 h -0.93 c -6.92,-0.38 -14,-5 -15.72,-10.23 -3,-8.84 4.09,-26.2 4.39,-26.94 v 0 a 5.71,5.71 0 0 1 4,-2.84 9.42,9.42 0 0 1 7.86,2.09 c 4.49,3.59 16.33,19.92 10.95,31.57 -1.9,4.1 -5.63,6.35 -10.55,6.35 z m -11.34,-36.8 c -0.26,0.64 -7.16,17.85 -4.37,26.22 1.61,4.83 8.41,9.2 14.84,9.56 2.85,0.15 8,-0.39 10.53,-5.81 5.15,-11.15 -6.32,-26.89 -10.67,-30.37 a 8.4,8.4 0 0 0 -7,-1.89 4.73,4.73 0 0 0 -3.33,2.29 z"
     style="fill:#263238"
     id="path27" />
  <path
     d="m 95.12,291.92 c 0,0 -12.56,11.4 -14,22.79 -1.44,11.39 7,15.49 15.78,14 8.78,-1.49 13.14,-23.67 10.51,-33.9 -2.63,-10.23 -12.29,-2.89 -12.29,-2.89 z"
     style="fill:#004bff"
     id="path29" />
  <path
     d="m 93.5,329.52 a 13.71,13.71 0 0 1 -9.67,-3.44 c -2.73,-2.63 -3.85,-6.59 -3.23,-11.43 1.47,-11.45 13.67,-22.63 14.19,-23.1 v 0 c 0.2,-0.15 4.93,-3.69 8.87,-2.31 2,0.7 3.43,2.56 4.19,5.51 1.9,7.4 0.2,22 -4.85,29.77 -1.8,2.77 -3.85,4.37 -6.07,4.74 a 20.89,20.89 0 0 1 -3.43,0.26 z m 1.94,-37.21 c -0.53,0.48 -12.45,11.58 -13.85,22.46 -0.58,4.52 0.44,8.18 2.94,10.59 2.77,2.67 7.24,3.72 12.26,2.88 1.94,-0.32 3.76,-1.77 5.41,-4.29 4.91,-7.55 6.56,-21.78 4.71,-29 -0.67,-2.61 -1.87,-4.23 -3.55,-4.82 -3.36,-1.13 -7.61,1.95 -7.92,2.18 z"
     style="fill:#263238"
     id="path31" />
  <path
     d="m 97.46,355 c 0,0 -14,0.59 -14.61,7.31 -0.61,6.72 6.14,8.18 12.86,2.33 6.72,-5.85 7.59,-9.32 1.75,-9.64 z"
     style="fill:#004bff"
     id="path33" />
  <path
     d="m 87.71,368.83 a 5.76,5.76 0 0 1 -2.67,-0.6 c -2,-1 -2.93,-3.11 -2.69,-5.94 0.62,-7.07 14.5,-7.73 15.09,-7.76 v 0 c 2.4,0.12 3.83,0.79 4.24,2 0.64,1.85 -1.22,4.64 -5.69,8.52 -2.79,2.46 -5.77,3.78 -8.28,3.78 z m 9.75,-13.3 c -0.62,0 -13.58,0.76 -14.11,6.85 -0.21,2.39 0.55,4.15 2.14,5 2.45,1.24 6.33,0.05 9.89,-3 5.33,-4.64 5.67,-6.66 5.4,-7.45 -0.34,-1.04 -1.99,-1.33 -3.32,-1.4 z"
     style="fill:#263238"
     id="path35" />
  <path
     d="m 83.29,364.39 -0.42,-0.91 c 0.46,-0.2 11.17,-5.09 16.16,-6 l 0.17,1 c -4.86,0.87 -15.8,5.86 -15.91,5.91 z"
     style="fill:#263238"
     id="path37" />
  <path
     d="m 100.59,399 c 0,0 -10.31,-9.53 -15.48,-5.21 -5.17,4.32 -1.48,10.12 7.4,10.77 8.88,0.65 11.99,-1.21 8.08,-5.56 z"
     style="fill:#004bff"
     id="path39" />
  <path
     d="m 95.69,405.19 c -1,0 -2,-0.05 -3.21,-0.13 -5.2,-0.38 -9,-2.51 -10,-5.56 -0.68,-2.11 0.14,-4.28 2.32,-6.09 5.45,-4.55 15.7,4.83 16.14,5.23 v 0 c 1.6,1.79 2.13,3.27 1.57,4.41 -0.67,1.44 -2.92,2.14 -6.82,2.14 z m -7.27,-12 a 4.51,4.51 0 0 0 -3,1 c -1.84,1.53 -2.56,3.32 -2,5 0.84,2.62 4.42,4.53 9.13,4.87 7,0.51 8.72,-0.67 9.08,-1.42 0.45,-0.91 -0.51,-2.29 -1.4,-3.28 -0.37,-0.36 -6.88,-6.2 -11.81,-6.2 z"
     style="fill:#263238"
     id="path41" />
  <path
     d="m 99.36,402.68 c -4,-2.84 -15.29,-7.08 -15.4,-7.13 l 0.35,-0.93 c 0.47,0.17 11.49,4.33 15.62,7.24 z"
     style="fill:#263238"
     id="path43" />
  <path
     d="m 46.24,396.2 c 0,0 14.21,-13.15 21.34,-7.2 7.13,5.95 2,13.95 -10.2,14.84 -12.2,0.89 -16.53,-1.65 -11.14,-7.64 z"
     style="fill:#004bff"
     id="path45" />
  <path
     d="m 53,404.53 c -5.27,0 -8.3,-0.92 -9.22,-2.8 -0.73,-1.5 0,-3.47 2.14,-5.87 v 0 c 0.6,-0.55 14.61,-13.37 22,-7.2 2.94,2.45 4,5.36 3.14,8.19 -1.33,4.13 -6.55,7 -13.63,7.53 -1.65,0.09 -3.14,0.15 -4.43,0.15 z m -6.35,-8 c -1.27,1.42 -2.64,3.38 -2,4.74 0.53,1.08 2.88,2.78 12.71,2.06 6.56,-0.47 11.56,-3.16 12.75,-6.83 0.78,-2.42 -0.23,-4.95 -2.83,-7.12 -6.63,-5.51 -20.13,6.67 -20.68,7.17 z"
     style="fill:#263238"
     id="path47" />
  <path
     d="m 47.83,401.11 -0.58,-0.82 c 5.69,-4 20.85,-9.72 21.5,-10 l 0.35,0.93 c -0.16,0.1 -15.69,5.96 -21.27,9.89 z"
     style="fill:#263238"
     id="path49" />
  <path
     d="m 62.69,369.06 c 0,0 -1.46,7 -6.72,9.64 -5.26,2.64 -14.61,-2.92 -9.64,-11.4 4.97,-8.48 13.73,-1.75 16.36,1.76 z"
     style="fill:#004bff"
     id="path51" />
  <path
     d="m 53,379.85 a 9.25,9.25 0 0 1 -6.6,-2.84 c -2.49,-2.66 -2.69,-6.3 -0.54,-10 1.6,-2.73 3.72,-4.19 6.29,-4.34 4.44,-0.24 9.05,3.58 10.9,6.05 a 0.48,0.48 0 0 1 0.09,0.4 c -0.06,0.3 -1.57,7.28 -7,10 A 7.09,7.09 0 0 1 53,379.85 Z M 52.57,363.7 h -0.36 c -2.22,0.13 -4.07,1.42 -5.49,3.85 -1.91,3.25 -1.76,6.45 0.41,8.77 2.17,2.32 6,3.22 8.58,1.92 4.46,-2.23 6.1,-7.89 6.4,-9.08 -1.83,-2.37 -5.85,-5.46 -9.5,-5.46 z"
     style="fill:#263238"
     id="path53" />
  <path
     d="m 50.42,347.14 c 0,0 -2.63,-5.84 -12.86,-2 -10.23,3.84 -14.32,9.64 -7.89,11.68 6.43,2.04 20.75,-9.68 20.75,-9.68 z"
     style="fill:#004bff"
     id="path55" />
  <path
     d="m 31.35,357.52 a 6,6 0 0 1 -1.83,-0.26 c -2.79,-0.89 -3.41,-2.36 -3.43,-3.44 -0.07,-3 4.36,-6.61 11.3,-9.19 10.54,-3.92 13.46,2.24 13.48,2.31 a 0.48,0.48 0 0 1 -0.14,0.59 c -0.54,0.47 -12.32,9.99 -19.38,9.99 z m 12.47,-13.21 a 17.56,17.56 0 0 0 -6.08,1.26 c -7.39,2.74 -10.7,6.19 -10.65,8.23 0,1.36 1.5,2.12 2.73,2.51 5.58,1.77 17.79,-7.59 20,-9.29 -0.56,-0.8 -2.2,-2.71 -6,-2.71 z"
     style="fill:#263238"
     id="path57" />
  <path
     d="m 32.09,353.41 -0.64,-0.77 c 5.9,-5 16.51,-6.21 17,-6.26 l 0.1,1 c -0.14,0.01 -10.79,1.21 -16.46,6.03 z"
     style="fill:#263238"
     id="path59" />
  <path
     d="m 79.64,277 c 0,0 1.75,4.09 5.26,3.21 3.51,-0.88 4.38,-6.13 9.93,-4.67 5.55,1.46 10.23,7.89 10.23,5 0,-2.89 -7.06,-10.54 -14.91,-10.54 -7.85,0 -10.22,3.22 -10.51,7 z"
     style="fill:#004bff"
     id="path61" />
  <path
     d="m 104.62,281.78 c -0.68,0 -1.56,-0.68 -3,-1.75 -1.81,-1.39 -4.3,-3.29 -7,-4 -3.15,-0.83 -4.63,0.67 -6.18,2.25 a 7.77,7.77 0 0 1 -3.5,2.43 c -3.1,0.77 -5.18,-2 -5.84,-3.5 a 0.51,0.51 0 0 1 0,-0.24 c 0.38,-5 4.09,-7.47 11,-7.47 8,0 15.41,7.57 15.41,11 a 1.23,1.23 0 0 1 -0.54,1.16 0.93,0.93 0 0 1 -0.35,0.12 z M 93,274.8 a 8.12,8.12 0 0 1 1.95,0.27 c 2.84,0.75 5.42,2.72 7.3,4.17 a 12,12 0 0 0 2.28,1.53 1.25,1.25 0 0 0 0,-0.24 c 0,-2.46 -6.48,-10 -14.41,-10 -6.34,0 -9.61,2.1 -10,6.42 0.29,0.62 1.83,3.52 4.62,2.82 a 6.91,6.91 0 0 0 3,-2.16 c 1.36,-1.34 2.8,-2.81 5.26,-2.81 z"
     style="fill:#263238"
     id="path63" />
  <path
     d="m 69.07,363.09 a 41.11,41.11 0 0 0 -1.3,-4.22 c -5,-13.39 -16.76,-11.33 -17.26,-11.24 l -0.19,-1 c 0.13,0 13.06,-2.33 18.39,11.87 a 40.12,40.12 0 0 1 1.29,4.35 z"
     style="fill:#263238"
     id="path65" />
  <path
     d="m 102.92,333.61 c 0,0 2.63,-5.85 12.86,-2.05 10.23,3.8 14.32,9.65 7.89,11.69 -6.43,2.04 -20.75,-9.64 -20.75,-9.64 z"
     style="fill:#004bff"
     id="path67" />
  <path
     d="m 122,344 c -7.06,0 -18.85,-9.55 -19.39,-10 a 0.51,0.51 0 0 1 -0.14,-0.6 c 0,-0.06 2.94,-6.22 13.49,-2.31 6.93,2.58 11.37,6.19 11.29,9.2 0,1.08 -0.64,2.55 -3.43,3.44 A 6.25,6.25 0 0 1 122,344 Z m -18.43,-10.51 c 2.16,1.71 14.38,11.07 20,9.29 1.23,-0.39 2.7,-1.14 2.73,-2.5 0,-2 -3.26,-5.5 -10.64,-8.24 -8.36,-3.04 -11.36,0.31 -12.09,1.44 z"
     style="fill:#263238"
     id="path69" />
  <path
     d="m 120.39,339.87 c -4.76,-5.87 -15,-5.38 -15.1,-5.38 l -0.06,-1 c 0.44,0 10.86,-0.53 15.94,5.74 z"
     style="fill:#263238"
     id="path71" />
  <path
     d="m 94.42,335.25 -0.41,-0.91 a 16.48,16.48 0 0 1 9,-1.22 l -0.19,1 a 15.86,15.86 0 0 0 -8.4,1.13 z"
     style="fill:#263238"
     id="path73" />
  <path
     d="m 56.77,323.48 c -6,-6.09 -11.92,-7.1 -12,-7.11 -0.08,-0.01 -8.82,-2.28 -12.1,0.72 L 32,316.35 c 3.67,-3.37 12.6,-1.06 13,-1 0.21,0 6.28,1 12.49,7.38 z"
     style="fill:#263238"
     id="path75" />
  <rect
     x="-6.8394938"
     y="295.22324"
     width="1.0043904"
     height="2.5109758"
     transform="rotate(-12.652557)"
     style="fill:#263238;stroke-width:1.00439"
     id="rect77" />
  <path
     d="m 73.1,419.94 h -1 c 0,-0.5 1.3,-50.47 0,-65.54 -1.3,-15.07 -7.34,-32.89 -7.4,-33.07 l -6.24,-27.85 1,-0.22 6.21,27.74 c 0,0.13 6.13,18.08 7.43,33.25 1.3,15.17 0.02,65.19 0,65.69 z"
     style="fill:#263238"
     id="path79" />
  <rect
     x="-231.41147"
     y="216.51768"
     width="2.6600001"
     height="1"
     transform="rotate(-64.94)"
     style="fill:#263238"
     id="rect81" />
  <path
     d="m 76.16,419.88 h -1 c 0,-0.46 0.46,-46.08 2.19,-59.05 1.73,-12.97 8.65,-33.52 8.75,-33.73 l 10.74,-23 0.91,0.42 L 87,327.48 c 0,0.15 -7,20.57 -8.69,33.47 -1.69,12.9 -2.15,58.47 -2.15,58.93 z"
     style="fill:#263238"
     id="path83" />
  <path
     d="m 78.78,420 -1,-0.06 c 1.73,-29.36 4.77,-55.77 4.81,-56 l 1,0.12 c -0.04,0.2 -3.09,26.58 -4.81,55.94 z"
     style="fill:#263238"
     id="path85" />
  <path
     d="m 68.74,419.89 h -1 c 0,-0.42 0.85,-41.95 -0.85,-47.49 -0.59,-1.9 -1.37,-3 -2.27,-3.31 a 1.92,1.92 0 0 0 -1.61,0.37 l -0.11,0.09 h -0.15 c -0.08,0 -7.88,1 -10.65,5.41 l -0.84,-0.53 c 2.84,-4.55 10.11,-5.7 11.23,-5.85 a 2.84,2.84 0 0 1 2.4,-0.47 c 1.26,0.36 2.25,1.7 3,4 1.7,5.66 0.88,46.06 0.85,47.78 z"
     style="fill:#263238"
     id="path87" />
  <path
     d="m 70.92,420 -1,-0.06 c 0,-0.4 2.08,-41 -0.17,-53.56 l 1,-0.17 c 2.25,12.65 0.19,53.33 0.17,53.79 z"
     style="fill:#263238"
     id="path89" />
  <path
     d="m 80,419.94 c 0,-2.48 -0.54,-61.05 4.68,-74.95 a 18.84,18.84 0 0 1 6.82,-9.24 l 0.56,0.83 a 17.9,17.9 0 0 0 -6.45,8.76 c -5.14,13.72 -4.61,74 -4.61,74.59 z"
     style="fill:#263238"
     id="path91" />
  <path
     d="m 74.85,419.94 -1,-0.13 c 1.22,-9 -1.26,-61.31 -8.28,-81.47 a 40.92,40.92 0 0 0 -7.32,-13.22 l 0.77,-0.65 A 42,42 0 0 1 66.53,338 c 7.05,20.29 9.55,72.88 8.32,81.94 z"
     style="fill:#263238"
     id="path93" />
  <path
     d="m 76.16,419.88 h -1 c 0,-0.51 0.31,-51.23 0.73,-76.29 h 1 c -0.42,25.06 -0.73,75.78 -0.73,76.29 z"
     style="fill:#263238"
     id="path95" />
  <path
     d="m 76.94,340.44 h -1 c 0.35,-20.21 0.67,-34.34 1,-42 0.75,-19.68 1.84,-21.52 2.35,-21.83 0.49,-1.1 2.84,-5.13 11.1,-4.59 l -0.06,1 c -8.52,-0.55 -10.12,4 -10.19,4.16 l -0.24,0.75 -0.18,-0.17 c -0.37,1.08 -1.19,5.17 -1.78,20.72 -0.33,7.63 -0.65,21.75 -1,41.96 z"
     style="fill:#263238"
     id="path97" />
  <path
     d="m 65.26,359.57 c 0,0 -7.31,-6.51 -4.38,-9.71 2.93,-3.2 21,-5.56 26.29,-1.39 5.29,4.17 -6.43,10 -10.81,11.32 -4.38,1.32 -9.64,0.85 -11.1,-0.22 z"
     style="fill:#004bff"
     id="path99" />
  <path
     d="m 70.53,361.08 c -2.49,0 -4.63,-0.42 -5.57,-1.1 v 0 c -0.21,-0.19 -5.06,-4.55 -5.24,-8.06 a 3.14,3.14 0 0 1 0.82,-2.37 c 3.16,-3.48 21.48,-5.8 27,-1.44 a 3.31,3.31 0 0 1 1.46,3.31 c -0.77,3.93 -9.1,7.87 -12.45,8.85 a 21.68,21.68 0 0 1 -6.02,0.81 z m -5,-1.9 c 1.32,0.93 6.33,1.39 10.65,0.13 3.66,-1.07 11.12,-4.89 11.75,-8.08 a 2.35,2.35 0 0 0 -1.11,-2.37 c -5,-3.93 -22.83,-1.71 -25.61,1.33 a 2.18,2.18 0 0 0 -0.56,1.65 c 0.19,2.99 4.6,7.05 4.92,7.34 z"
     style="fill:#263238"
     id="path101" />
  <path
     d="m 72.34,356.18 h -1 a 13.75,13.75 0 0 1 0.17,-2 l 1,0.16 a 12.87,12.87 0 0 0 -0.17,1.84 z"
     style="fill:#263238"
     id="path103" />
  <path
     d="m 73.12,351.62 -1,-0.29 a 32.64,32.64 0 0 1 1.91,-4.92 l 0.89,0.45 a 33.78,33.78 0 0 0 -1.8,4.76 z"
     style="fill:#263238"
     id="path105" />
  <path
     d="m 65.26,402.16 c 0,0 -7.31,-6.51 -4.38,-9.71 2.93,-3.2 21,-5.56 26.29,-1.39 5.29,4.17 -6.43,10 -10.81,11.32 -4.38,1.32 -9.64,0.85 -11.1,-0.22 z"
     style="fill:#004bff"
     id="path107" />
  <path
     d="m 70.53,403.67 c -2.49,0 -4.63,-0.42 -5.57,-1.1 v 0 c -0.21,-0.19 -5.06,-4.55 -5.24,-8.06 a 3.13,3.13 0 0 1 0.82,-2.37 c 3.16,-3.48 21.48,-5.8 27,-1.44 A 3.31,3.31 0 0 1 89,394 c -0.77,3.93 -9.1,7.87 -12.45,8.85 a 21.68,21.68 0 0 1 -6.02,0.82 z m -5,-1.9 c 1.32,0.93 6.33,1.39 10.65,0.13 3.66,-1.07 11.12,-4.89 11.75,-8.08 a 2.35,2.35 0 0 0 -1.11,-2.37 c -5,-3.93 -22.83,-1.71 -25.61,1.33 a 2.18,2.18 0 0 0 -0.56,1.65 c 0.19,2.99 4.6,7.05 4.92,7.34 z"
     style="fill:#263238"
     id="path109" />
  <path
     d="m 72.34,398.77 h -1 c 0,-4.27 2.62,-9.55 2.73,-9.77 l 0.89,0.45 c -0.02,0.05 -2.62,5.29 -2.62,9.32 z"
     style="fill:#263238"
     id="path111" />
  <path
     d="m 70.7,384.15 c 0,0 -5,-4.42 -3,-6.6 2,-2.18 14.28,-3.77 17.86,-0.94 3.58,2.83 -4.37,6.82 -7.34,7.69 -2.97,0.87 -6.53,0.58 -7.52,-0.15 z"
     style="fill:#004bff"
     id="path113" />
  <path
     d="m 74.29,385.33 a 7.49,7.49 0 0 1 -3.89,-0.78 v 0 c -0.14,-0.12 -3.48,-3.13 -3.6,-5.58 a 2.26,2.26 0 0 1 0.59,-1.72 c 2.18,-2.39 14.76,-4 18.54,-1 a 2.41,2.41 0 0 1 1,2.43 c -0.57,2.89 -6.56,5.54 -8.56,6.13 a 15.25,15.25 0 0 1 -4.08,0.52 z M 71,383.76 c 0.86,0.6 4.25,0.88 7.09,0.06 2.45,-0.72 7.45,-3.26 7.86,-5.37 A 1.47,1.47 0 0 0 85.25,377 c -3.33,-2.63 -15.31,-1.15 -17.17,0.89 a 1.26,1.26 0 0 0 -0.33,1 c 0.09,1.68 2.36,4.11 3.25,4.87 z"
     style="fill:#263238"
     id="path115" />
  <path
     d="m 75.67,381.85 h -1 c 0,-2.94 1.79,-6.55 1.86,-6.71 l 0.9,0.45 a 17.58,17.58 0 0 0 -1.76,6.26 z"
     style="fill:#263238"
     id="path117" />
  <rect
     x="63.84"
     y="412.63"
     width="19.77"
     height="43.849998"
     style="fill:#263238"
     id="rect119" />
  <path
     d="M 83.61,457 H 63.84 a 0.5,0.5 0 0 1 -0.5,-0.5 v -43.87 a 0.5,0.5 0 0 1 0.5,-0.5 h 19.77 a 0.5,0.5 0 0 1 0.5,0.5 v 43.85 A 0.5,0.5 0 0 1 83.61,457 Z M 64.34,456 H 83.11 V 413.13 H 64.34 Z"
     style="fill:#263238"
     id="path121" />
  <path
     d="m 534.14,94.16 -22,-15.52 v -8.22 l 22,-15.68 V 63 l -15.75,11.49 15.75,11.45 z"
     style="fill:#0000ff"
     id="path124" />
  <path
     d="m 540.83,96.93 16.75,-62.24 h 7.15 L 547.9,96.93 Z"
     style="fill:#0000ff;fill-opacity:1"
     id="path126" />
  <path
     d="M 571.41,94.16 V 85.94 L 587.24,74.41 571.41,63 v -8.3 l 22.06,15.6 v 8.22 z"
     style="fill:#0000ff;fill-opacity:1"
     id="path128" />
  <path
     d="m 611.05,142.57 -10.48,-7.4 v -3.92 l 10.48,-7.48 v 4 l -7.52,5.46 7.52,5.46 z"
     style="fill:#263238"
     id="path130" />
  <path
     d="m 620.94,144.18 a 6.28,6.28 0 0 1 -3.94,-1 5.17,5.17 0 0 1 -1.8,-2.95 19.43,19.43 0 0 1 -0.45,-4.43 v -4.88 a 19.31,19.31 0 0 1 0.47,-4.56 5,5 0 0 1 1.82,-2.89 6.34,6.34 0 0 1 3.9,-1 7,7 0 0 1 3.57,0.75 3.88,3.88 0 0 1 1.74,2.23 12.15,12.15 0 0 1 0.48,3.69 v 1.24 h -3.56 v -1.28 a 10.58,10.58 0 0 0 -0.18,-2.2 1.92,1.92 0 0 0 -0.66,-1.17 2.66,2.66 0 0 0 -2.82,0.07 2.42,2.42 0 0 0 -0.68,1.49 19.16,19.16 0 0 0 -0.16,2.84 v 6.66 a 8.51,8.51 0 0 0 0.51,3.63 1.91,1.91 0 0 0 1.83,0.92 2,2 0 0 0 1.45,-0.46 2.32,2.32 0 0 0 0.59,-1.3 13.65,13.65 0 0 0 0.12,-1.91 v -1.77 h 3.56 v 1.47 a 12,12 0 0 1 -0.5,3.66 4.18,4.18 0 0 1 -1.76,2.35 6.61,6.61 0 0 1 -3.53,0.8 z"
     style="fill:#263238"
     id="path132" />
  <path
     d="m 636,144.18 a 6.33,6.33 0 0 1 -3.71,-1 5.13,5.13 0 0 1 -1.92,-2.71 13.45,13.45 0 0 1 -0.57,-4.14 v -6.16 a 13.49,13.49 0 0 1 0.57,-4.14 5.16,5.16 0 0 1 1.92,-2.71 6.41,6.41 0 0 1 3.71,-1 6.28,6.28 0 0 1 3.68,1 5.19,5.19 0 0 1 1.9,2.71 13.49,13.49 0 0 1 0.57,4.14 v 6.16 a 13.45,13.45 0 0 1 -0.57,4.14 5.15,5.15 0 0 1 -1.9,2.71 6.21,6.21 0 0 1 -3.68,1 z m 0,-2.89 a 1.81,1.81 0 0 0 1.59,-0.66 3.58,3.58 0 0 0 0.55,-1.74 q 0.09,-1.08 0.09,-2.25 V 130 c 0,-0.8 0,-1.56 -0.09,-2.27 a 3.65,3.65 0 0 0 -0.55,-1.74 1.79,1.79 0 0 0 -1.59,-0.68 1.85,1.85 0 0 0 -1.62,0.68 3.55,3.55 0 0 0 -0.56,1.74 c -0.07,0.71 -0.1,1.47 -0.1,2.27 v 6.64 c 0,0.78 0,1.53 0.1,2.25 a 3.48,3.48 0 0 0 0.56,1.74 1.87,1.87 0 0 0 1.62,0.66 z"
     style="fill:#263238"
     id="path134" />
  <path
     d="m 650.69,144.18 a 4.48,4.48 0 0 1 -4,-2 q -1.32,-2 -1.32,-6.65 v -4.1 a 23.44,23.44 0 0 1 0.4,-4.49 6.87,6.87 0 0 1 1.52,-3.32 4.19,4.19 0 0 1 3.28,-1.24 4.06,4.06 0 0 1 1.94,0.47 6.79,6.79 0 0 1 1.58,1.18 v -9.86 H 658 v 29.68 h -3.9 v -1.36 a 6.58,6.58 0 0 1 -1.52,1.2 3.88,3.88 0 0 1 -1.89,0.49 z m 1,-3.08 a 3.6,3.6 0 0 0 1.17,-0.2 5.1,5.1 0 0 0 1.25,-0.6 v -13.89 a 6.24,6.24 0 0 0 -1.14,-0.64 3.32,3.32 0 0 0 -1.35,-0.27 1.79,1.79 0 0 0 -1.83,1.3 9,9 0 0 0 -0.48,3.13 v 6 a 19.5,19.5 0 0 0 0.16,2.66 4,4 0 0 0 0.68,1.87 1.81,1.81 0 0 0 1.53,0.64 z"
     style="fill:#263238"
     id="path136" />
  <path
     d="m 667.84,144.18 a 6.54,6.54 0 0 1 -3.85,-1 5.12,5.12 0 0 1 -1.89,-2.86 17.45,17.45 0 0 1 -0.53,-4.63 v -4.84 a 17.18,17.18 0 0 1 0.55,-4.69 5.05,5.05 0 0 1 1.93,-2.82 6.6,6.6 0 0 1 3.79,-1 5.87,5.87 0 0 1 3.94,1.1 5.43,5.43 0 0 1 1.67,3.17 27.09,27.09 0 0 1 0.4,5 v 1.72 h -8.36 v 4.25 a 7.45,7.45 0 0 0 0.24,2.09 2.16,2.16 0 0 0 0.77,1.19 2.28,2.28 0 0 0 1.38,0.39 1.9,1.9 0 0 0 1.33,-0.42 2.2,2.2 0 0 0 0.63,-1.21 9.17,9.17 0 0 0 0.16,-1.85 v -1.29 h 3.81 v 0.81 a 8.29,8.29 0 0 1 -1.35,5 q -1.37,1.89 -4.62,1.89 z m -2.35,-12.93 H 670 v -1.91 a 13.68,13.68 0 0 0 -0.15,-2.21 2.36,2.36 0 0 0 -0.6,-1.36 2,2 0 0 0 -1.45,-0.46 2.12,2.12 0 0 0 -1.44,0.44 2.53,2.53 0 0 0 -0.68,1.49 16.46,16.46 0 0 0 -0.19,2.87 z"
     style="fill:#263238"
     id="path138" />
  <path
     d="m 677.55,142.57 v -3.92 l 7.55,-5.5 -7.55,-5.42 v -4 l 10.52,7.44 v 3.92 z"
     style="fill:#263238"
     id="path140" />
  <path
     d="M 83.7,29.24 H 322 a 8.52,8.52 0 0 1 8.52,8.52 V 283.7 H 75.18 V 37.76 a 8.52,8.52 0 0 1 8.52,-8.52 z"
     style="fill:#263238"
     id="path179" />
  <path
     d="M 330.5,284.2 H 75.18 a 0.51,0.51 0 0 1 -0.5,-0.5 V 37.76 a 9,9 0 0 1 9,-9 H 322 a 9,9 0 0 1 9,9 V 283.7 a 0.51,0.51 0 0 1 -0.5,0.5 z m -254.82,-1 H 330 V 37.76 a 8,8 0 0 0 -8,-8 H 83.7 a 8,8 0 0 0 -8,8 z"
     style="fill:#263238"
     id="path181" />
  <path
     d="M 89.52,23.43 H 327.79 A 8.52,8.52 0 0 1 336.31,32 V 277.88 H 81 V 32 a 8.52,8.52 0 0 1 8.52,-8.57 z"
     style="fill:#ffffff"
     id="path183" />
  <path
     d="M 336.31,278.38 H 81 a 0.5,0.5 0 0 1 -0.5,-0.5 V 32 a 9,9 0 0 1 9,-9 h 238.29 a 9,9 0 0 1 9,9 v 245.88 a 0.5,0.5 0 0 1 -0.48,0.5 z m -254.82,-1 H 335.81 V 32 a 8,8 0 0 0 -8,-8 H 89.52 a 8,8 0 0 0 -8,8 z"
     style="fill:#263238"
     id="path185" />
  <path
     d="M 89.52,23.43 H 327.79 A 8.52,8.52 0 0 1 336.31,32 V 47.8 H 81 V 32 a 8.52,8.52 0 0 1 8.52,-8.57 z"
     style="fill:#004bff"
     id="path187" />
  <path
     d="M 336.31,48.25 H 81 a 0.5,0.5 0 0 1 -0.5,-0.5 V 32 a 9,9 0 0 1 9,-9 h 238.29 a 9,9 0 0 1 9,9 v 15.8 a 0.5,0.5 0 0 1 -0.48,0.45 z m -254.82,-1 H 335.81 V 32 a 8,8 0 0 0 -8,-8 H 89.52 a 8,8 0 0 0 -8,8 z"
     style="fill:#263238"
     id="path189" />
  <path
     d="m 295.24,36.37 a 4,4 0 1 0 -4,4 4,4 0 0 0 4,-4 z"
     style="fill:#ffffff"
     id="path191" />
  <path
     d="m 291.28,40.83 a 4.47,4.47 0 1 1 4.46,-4.46 4.46,4.46 0 0 1 -4.46,4.46 z m 0,-7.93 a 3.47,3.47 0 1 0 3.46,3.47 3.47,3.47 0 0 0 -3.46,-3.47 z"
     style="fill:#263238"
     id="path193" />
  <path
     d="m 307.14,36.37 a 4,4 0 1 0 -4,4 4,4 0 0 0 4,-4 z"
     style="fill:#ffffff"
     id="path195" />
  <path
     d="m 303.17,40.83 a 4.47,4.47 0 1 1 4.47,-4.46 4.46,4.46 0 0 1 -4.47,4.46 z m 0,-7.93 a 3.47,3.47 0 1 0 3.47,3.47 3.47,3.47 0 0 0 -3.47,-3.47 z"
     style="fill:#263238"
     id="path197" />
  <path
     d="m 319,36.37 a 4,4 0 1 0 -4,4 4,4 0 0 0 4,-4 z"
     style="fill:#263238"
     id="path199" />
  <path
     d="m 315.06,40.83 a 4.47,4.47 0 1 1 4.47,-4.46 4.46,4.46 0 0 1 -4.47,4.46 z m 0,-7.93 a 3.47,3.47 0 1 0 3.47,3.47 3.47,3.47 0 0 0 -3.47,-3.47 z"
     style="fill:#263238"
     id="path201" />
  <path
     d="m 126,63.79 h -18.81 a 1.5,1.5 0 0 1 0,-3 H 126 a 1.5,1.5 0 0 1 0,3 z"
     style="fill:#263238"
     id="path203" />
  <path
     d="m 177.72,74.82 h -70.53 a 1.5,1.5 0 0 1 0,-3 h 70.53 a 1.5,1.5 0 0 1 0,3 z"
     style="fill:#c4c4c4"
     id="path205" />
  <path
     d="m 286.81,74.82 h -70.53 a 1.5,1.5 0 0 1 0,-3 h 70.53 a 1.5,1.5 0 0 1 0,3 z"
     style="fill:#c4c4c4"
     id="path207" />
  <path
     d="m 210.19,74.82 h -27.9 a 1.5,1.5 0 0 1 0,-3 h 27.9 a 1.5,1.5 0 0 1 0,3 z"
     style="fill:#263238"
     id="path209" />
  <path
     d="m 147.78,85.85 h -40.59 a 1.5,1.5 0 0 1 0,-3 h 40.59 a 1.5,1.5 0 0 1 0,3 z"
     style="fill:#263238"
     id="path211" />
  <path
     d="m 193.45,85.85 h -40.59 a 1.5,1.5 0 0 1 0,-3 h 40.59 a 1.5,1.5 0 0 1 0,3 z"
     style="fill:#263238"
     id="path213" />
  <path
     d="m 239.11,85.85 h -40.59 a 1.5,1.5 0 0 1 0,-3 h 40.59 a 1.5,1.5 0 0 1 0,3 z"
     style="fill:#263238"
     id="path215" />
  <path
     d="m 261.44,85.85 h -17.25 a 1.5,1.5 0 0 1 0,-3 h 17.25 a 1.5,1.5 0 0 1 0,3 z"
     style="fill:#263238"
     id="path217" />
  <path
     d="M 149.81,63.79 H 131 a 1.5,1.5 0 0 1 0,-3 h 18.77 a 1.5,1.5 0 0 1 0,3 z"
     style="fill:#263238"
     id="path219" />
  <path
     d="m 261.44,63.79 h -18.77 a 1.5,1.5 0 0 1 0,-3 h 18.77 a 1.5,1.5 0 0 1 0,3 z"
     style="fill:#263238"
     id="path221" />
  <path
     d="M 236.58,63.79 H 217.8 a 1.5,1.5 0 0 1 0,-3 h 18.78 a 1.5,1.5 0 0 1 0,3 z"
     style="fill:#c4c4c4"
     id="path223" />
  <path
     d="m 209.68,63.79 h -54.79 a 1.5,1.5 0 0 1 0,-3 h 54.79 a 1.5,1.5 0 0 1 0,3 z"
     style="fill:#263238"
     id="path225" />
  <path
     d="m 126,131.12 h -18.81 a 1.5,1.5 0 0 1 0,-3 H 126 a 1.5,1.5 0 0 1 0,3 z"
     style="fill:#263238"
     id="path227" />
  <path
     d="m 177.72,142.15 h -70.53 a 1.5,1.5 0 0 1 0,-3 h 70.53 a 1.5,1.5 0 0 1 0,3 z"
     style="fill:#c4c4c4"
     id="path229" />
  <path
     d="m 286.81,142.15 h -70.53 a 1.5,1.5 0 0 1 0,-3 h 70.53 a 1.5,1.5 0 0 1 0,3 z"
     style="fill:#263238"
     id="path231" />
  <path
     d="m 210.19,142.15 h -27.9 a 1.5,1.5 0 0 1 0,-3 h 27.9 a 1.5,1.5 0 0 1 0,3 z"
     style="fill:#263238"
     id="path233" />
  <path
     d="m 147.78,153.17 h -40.59 a 1.5,1.5 0 0 1 0,-3 h 40.59 a 1.5,1.5 0 0 1 0,3 z"
     style="fill:#263238"
     id="path235" />
  <path
     d="m 193.45,153.17 h -40.59 a 1.5,1.5 0 0 1 0,-3 h 40.59 a 1.5,1.5 0 0 1 0,3 z"
     style="fill:#263238"
     id="path237" />
  <path
     d="m 239.11,153.17 h -40.59 a 1.5,1.5 0 0 1 0,-3 h 40.59 a 1.5,1.5 0 0 1 0,3 z"
     style="fill:#c4c4c4"
     id="path239" />
  <path
     d="m 261.44,153.17 h -17.25 a 1.5,1.5 0 0 1 0,-3 h 17.25 a 1.5,1.5 0 0 1 0,3 z"
     style="fill:#263238"
     id="path241" />
  <path
     d="M 149.81,131.12 H 131 a 1.5,1.5 0 1 1 0,-3 h 18.77 a 1.5,1.5 0 0 1 0,3 z"
     style="fill:#263238"
     id="path243" />
  <path
     d="m 261.44,131.12 h -18.77 a 1.5,1.5 0 1 1 0,-3 h 18.77 a 1.5,1.5 0 0 1 0,3 z"
     style="fill:#263238"
     id="path245" />
  <path
     d="M 236.58,131.12 H 217.8 a 1.5,1.5 0 0 1 0,-3 h 18.78 a 1.5,1.5 0 1 1 0,3 z"
     style="fill:#c4c4c4"
     id="path247" />
  <path
     d="m 209.68,131.12 h -54.79 a 1.5,1.5 0 0 1 0,-3 h 54.79 a 1.5,1.5 0 0 1 0,3 z"
     style="fill:#263238"
     id="path249" />
  <path
     d="m 126,230.37 h -18.81 a 1.5,1.5 0 0 1 0,-3 H 126 a 1.5,1.5 0 0 1 0,3 z"
     style="fill:#263238"
     id="path251" />
  <path
     d="m 177.72,241.4 h -70.53 a 1.5,1.5 0 0 1 0,-3 h 70.53 a 1.5,1.5 0 0 1 0,3 z"
     style="fill:#c4c4c4"
     id="path253" />
  <path
     d="m 286.81,241.4 h -70.53 a 1.5,1.5 0 0 1 0,-3 h 70.53 a 1.5,1.5 0 0 1 0,3 z"
     style="fill:#263238"
     id="path255" />
  <path
     d="m 210.19,241.4 h -27.9 a 1.5,1.5 0 0 1 0,-3 h 27.9 a 1.5,1.5 0 0 1 0,3 z"
     style="fill:#263238"
     id="path257" />
  <path
     d="m 147.78,252.42 h -40.59 a 1.5,1.5 0 0 1 0,-3 h 40.59 a 1.5,1.5 0 0 1 0,3 z"
     style="fill:#263238"
     id="path259" />
  <path
     d="m 193.45,252.42 h -40.59 a 1.5,1.5 0 0 1 0,-3 h 40.59 a 1.5,1.5 0 0 1 0,3 z"
     style="fill:#263238"
     id="path261" />
  <path
     d="m 239.11,252.42 h -40.59 a 1.5,1.5 0 0 1 0,-3 h 40.59 a 1.5,1.5 0 0 1 0,3 z"
     style="fill:#c4c4c4"
     id="path263" />
  <path
     d="m 261.44,252.42 h -17.25 a 1.5,1.5 0 0 1 0,-3 h 17.25 a 1.5,1.5 0 0 1 0,3 z"
     style="fill:#263238"
     id="path265" />
  <path
     d="M 149.81,230.37 H 131 a 1.5,1.5 0 1 1 0,-3 h 18.77 a 1.5,1.5 0 0 1 0,3 z"
     style="fill:#263238"
     id="path267" />
  <path
     d="m 261.44,230.37 h -18.77 a 1.5,1.5 0 1 1 0,-3 h 18.77 a 1.5,1.5 0 0 1 0,3 z"
     style="fill:#263238"
     id="path269" />
  <path
     d="M 236.58,230.37 H 217.8 a 1.5,1.5 0 0 1 0,-3 h 18.78 a 1.5,1.5 0 1 1 0,3 z"
     style="fill:#c4c4c4"
     id="path271" />
  <path
     d="m 209.68,230.37 h -54.79 a 1.5,1.5 0 0 1 0,-3 h 54.79 a 1.5,1.5 0 0 1 0,3 z"
     style="fill:#263238"
     id="path273" />
  <path
     d="m 231.5,97.45 h -18.77 a 1.5,1.5 0 0 1 0,-3 h 18.77 a 1.5,1.5 0 0 1 0,3 z"
     style="fill:#263238"
     id="path275" />
  <path
     d="m 206.64,97.45 h -18.77 a 1.5,1.5 0 0 1 0,-3 h 18.77 a 1.5,1.5 0 0 1 0,3 z"
     style="fill:#263238"
     id="path277" />
  <path
     d="M 179.75,97.45 H 125 a 1.5,1.5 0 0 1 0,-3 h 54.8 a 1.5,1.5 0 0 1 0,3 z"
     style="fill:#263238"
     id="path279" />
  <path
     d="m 231.5,117.19 h -18.77 a 1.5,1.5 0 1 1 0,-3 h 18.77 a 1.5,1.5 0 0 1 0,3 z"
     style="fill:#263238"
     id="path281" />
  <path
     d="m 206.64,117.19 h -18.77 a 1.5,1.5 0 0 1 0,-3 h 18.77 a 1.5,1.5 0 0 1 0,3 z"
     style="fill:#263238"
     id="path283" />
  <path
     d="M 179.75,117.19 H 125 a 1.5,1.5 0 1 1 0,-3 h 54.8 a 1.5,1.5 0 0 1 0,3 z"
     style="fill:#c4c4c4"
     id="path285" />
  <path
     d="M 143.72,107.32 H 125 a 1.5,1.5 0 1 1 0,-3 h 18.77 a 1.5,1.5 0 0 1 0,3 z"
     style="fill:#263238"
     id="path287" />
  <path
     d="m 168.59,107.32 h -18.78 a 1.5,1.5 0 0 1 0,-3 h 18.78 a 1.5,1.5 0 0 1 0,3 z"
     style="fill:#263238"
     id="path289" />
  <path
     d="m 231.5,107.32 h -54.8 a 1.5,1.5 0 0 1 0,-3 h 54.8 a 1.5,1.5 0 0 1 0,3 z"
     style="fill:#c4c4c4"
     id="path291" />
  <path
     d="m 231.5,166.52 h -18.77 a 1.5,1.5 0 0 1 0,-3 h 18.77 a 1.5,1.5 0 0 1 0,3 z"
     style="fill:#263238"
     id="path293" />
  <path
     d="m 206.64,166.52 h -18.77 a 1.5,1.5 0 0 1 0,-3 h 18.77 a 1.5,1.5 0 0 1 0,3 z"
     style="fill:#263238"
     id="path295" />
  <path
     d="M 179.75,166.52 H 125 a 1.5,1.5 0 0 1 0,-3 h 54.8 a 1.5,1.5 0 0 1 0,3 z"
     style="fill:#263238"
     id="path297" />
  <path
     d="m 231.5,186.26 h -18.77 a 1.5,1.5 0 0 1 0,-3 h 18.77 a 1.5,1.5 0 0 1 0,3 z"
     style="fill:#263238"
     id="path299" />
  <path
     d="m 206.64,186.26 h -18.77 a 1.5,1.5 0 0 1 0,-3 h 18.77 a 1.5,1.5 0 0 1 0,3 z"
     style="fill:#263238"
     id="path301" />
  <path
     d="M 179.75,186.26 H 125 a 1.5,1.5 0 1 1 0,-3 h 54.8 a 1.5,1.5 0 0 1 0,3 z"
     style="fill:#c4c4c4"
     id="path303" />
  <path
     d="M 143.72,176.39 H 125 a 1.5,1.5 0 1 1 0,-3 h 18.77 a 1.5,1.5 0 1 1 0,3 z"
     style="fill:#263238"
     id="path305" />
  <path
     d="m 168.59,176.39 h -18.78 a 1.5,1.5 0 0 1 0,-3 h 18.78 a 1.5,1.5 0 1 1 0,3 z"
     style="fill:#263238"
     id="path307" />
  <path
     d="m 231.5,176.39 h -54.8 a 1.5,1.5 0 0 1 0,-3 h 54.8 a 1.5,1.5 0 0 1 0,3 z"
     style="fill:#c4c4c4"
     id="path309" />
  <path
     d="M 143.72,197.87 H 125 a 1.5,1.5 0 1 1 0,-3 h 18.77 a 1.5,1.5 0 1 1 0,3 z"
     style="fill:#263238"
     id="path311" />
  <path
     d="m 168.59,197.87 h -18.78 a 1.5,1.5 0 0 1 0,-3 h 18.78 a 1.5,1.5 0 1 1 0,3 z"
     style="fill:#263238"
     id="path313" />
  <path
     d="m 231.5,197.87 h -54.8 a 1.5,1.5 0 0 1 0,-3 h 54.8 a 1.5,1.5 0 0 1 0,3 z"
     style="fill:#c4c4c4"
     id="path315" />
  <path
     d="M 143.72,217.6 H 125 a 1.5,1.5 0 0 1 0,-3 h 18.77 a 1.5,1.5 0 0 1 0,3 z"
     style="fill:#263238"
     id="path317" />
  <path
     d="m 168.59,217.6 h -18.78 a 1.5,1.5 0 0 1 0,-3 h 18.78 a 1.5,1.5 0 0 1 0,3 z"
     style="fill:#263238"
     id="path319" />
  <path
     d="m 231.5,217.6 h -54.8 a 1.5,1.5 0 0 1 0,-3 h 54.8 a 1.5,1.5 0 0 1 0,3 z"
     style="fill:#c4c4c4"
     id="path321" />
  <path
     d="m 231.5,207.73 h -18.77 a 1.5,1.5 0 0 1 0,-3 h 18.77 a 1.5,1.5 0 0 1 0,3 z"
     style="fill:#263238"
     id="path323" />
  <path
     d="m 206.64,207.73 h -18.77 a 1.5,1.5 0 0 1 0,-3 h 18.77 a 1.5,1.5 0 0 1 0,3 z"
     style="fill:#263238"
     id="path325" />
  <path
     d="M 179.75,207.73 H 125 a 1.5,1.5 0 0 1 0,-3 h 54.8 a 1.5,1.5 0 0 1 0,3 z"
     style="fill:#c4c4c4"
     id="path327" />
  <rect
     x="94.230003"
     y="58.459999"
     width="5.9899998"
     height="6.77"
     style="fill:#263238"
     id="rect329" />
  <rect
     x="94.230003"
     y="69.589996"
     width="5.9899998"
     height="6.77"
     style="fill:#263238"
     id="rect331" />
  <rect
     x="94.230003"
     y="80.709999"
     width="5.9899998"
     height="6.77"
     style="fill:#263238"
     id="rect333" />
  <rect
     x="94.230003"
     y="91.839996"
     width="5.9899998"
     height="6.77"
     style="fill:#263238"
     id="rect335" />
  <rect
     x="94.230003"
     y="102.96"
     width="5.9899998"
     height="6.77"
     style="fill:#263238"
     id="rect337" />
  <rect
     x="94.230003"
     y="114.09"
     width="5.9899998"
     height="6.77"
     style="fill:#263238"
     id="rect339" />
  <rect
     x="94.230003"
     y="125.22"
     width="5.9899998"
     height="6.77"
     style="fill:#263238"
     id="rect341" />
  <rect
     x="94.230003"
     y="136.34"
     width="5.9899998"
     height="6.77"
     style="fill:#263238"
     id="rect343" />
  <rect
     x="94.230003"
     y="147.47"
     width="5.9899998"
     height="6.77"
     style="fill:#263238"
     id="rect345" />
  <rect
     x="94.230003"
     y="158.59"
     width="5.9899998"
     height="6.77"
     style="fill:#263238"
     id="rect347" />
  <rect
     x="94.230003"
     y="169.72"
     width="5.9899998"
     height="6.77"
     style="fill:#263238"
     id="rect349" />
  <rect
     x="94.230003"
     y="180.84"
     width="5.9899998"
     height="6.77"
     style="fill:#263238"
     id="rect351" />
  <rect
     x="94.230003"
     y="191.97"
     width="5.9899998"
     height="6.77"
     style="fill:#263238"
     id="rect353" />
  <rect
     x="94.230003"
     y="203.09"
     width="5.9899998"
     height="6.77"
     style="fill:#263238"
     id="rect355" />
  <rect
     x="94.230003"
     y="214.22"
     width="5.9899998"
     height="6.77"
     style="fill:#263238"
     id="rect357" />
  <rect
     x="94.230003"
     y="225.35001"
     width="5.9899998"
     height="6.77"
     style="fill:#263238"
     id="rect359" />
  <rect
     x="94.230003"
     y="236.47"
     width="5.9899998"
     height="6.77"
     style="fill:#263238"
     id="rect361" />
  <rect
     x="94.230003"
     y="247.60001"
     width="5.9899998"
     height="6.77"
     style="fill:#263238"
     id="rect363" />
  <path
     d="m 655.71,275.34 a 0.5,0.5 0 0 1 -0.48,-0.38 l -1.6,-6.39 a 21.36,21.36 0 0 0 -4.52,-2.19 0.5,0.5 0 0 1 -0.5,-0.5 0.51,0.51 0 0 1 0.5,-0.5 c 1,0 4.24,1.86 5.21,2.43 a 0.52,0.52 0 0 1 0.23,0.31 l 1.65,6.6 a 0.51,0.51 0 0 1 -0.36,0.61 z"
     style="fill:#263238"
     id="path384" />
  <path
     d="m 628.57,371.67 a 21.19,21.19 0 0 1 -11.51,-4 2.28,2.28 0 1 1 2.73,-3.64 c 0.32,0.23 8,5.78 14.32,1.27 4.69,-3.32 5.32,-25.67 4.27,-40.48 a 2.2806194,2.2806194 0 0 1 4.55,-0.32 c 0.45,6.38 2.27,38.52 -6.19,44.52 a 13.83,13.83 0 0 1 -8.17,2.65 z"
     style="fill:#263238"
     id="path415" />
  <rect
     x="592.89001"
     y="371.26001"
     width="7.5799999"
     height="55.75"
     style="fill:#263238"
     id="rect417" />
  <path
     d="m 600.47,427.51 h -7.58 a 0.5,0.5 0 0 1 -0.5,-0.5 v -55.75 a 0.5,0.5 0 0 1 0.5,-0.5 h 7.58 a 0.5,0.5 0 0 1 0.5,0.5 V 427 a 0.5,0.5 0 0 1 -0.5,0.51 z m -7.08,-1 H 600 v -54.75 h -6.58 z"
     style="fill:#263238"
     id="path419" />
  <rect
     x="562.84003"
     y="349.54001"
     width="67.68"
     height="16.35"
     rx="3.8199999"
     style="fill:#8c8c8c"
     id="rect421" />
  <path
     d="m 626.7,366.39 h -60 a 4.33,4.33 0 0 1 -4.33,-4.32 v -8.7 a 4.33,4.33 0 0 1 4.33,-4.33 h 60 a 4.33,4.33 0 0 1 4.32,4.33 v 8.7 a 4.33,4.33 0 0 1 -4.32,4.32 z m -60,-16.35 a 3.34,3.34 0 0 0 -3.33,3.33 v 8.7 a 3.33,3.33 0 0 0 3.33,3.32 h 60 a 3.32,3.32 0 0 0 3.32,-3.32 v -8.7 A 3.33,3.33 0 0 0 626.7,350 Z"
     style="fill:#263238"
     id="path423" />
  <path
     d="m 636.49,273.73 a 32,32 0 0 0 -1.48,4.15 c -2.86,9.89 -3.08,20.58 -3.18,30.8 -0.05,4.07 -1.11,10.65 0.47,14.42 2,4.7 10.83,6.86 13.28,1.56 3.08,-6.68 1.22,-15.55 2.7,-22.75 1.65,-8 6.18,-17.85 4.2,-25.93 -1.89,-7.7 -8.08,-13.89 -14.11,-5.55 a 18.25,18.25 0 0 0 -1.88,3.3 z"
     style="fill:#8c8c8c"
     id="path425" />
  <path
     d="m 640.24,328.25 h -0.16 c -3.54,-0.06 -7.08,-2.19 -8.24,-5 -1.16,-2.81 -0.93,-7.25 -0.69,-11.08 0.09,-1.29 0.17,-2.5 0.18,-3.53 0.09,-9.19 0.21,-20.62 3.2,-30.93 a 32.27,32.27 0 0 1 1.5,-4.22 v 0 a 20,20 0 0 1 1.93,-3.4 c 2.9,-4 5.63,-4.43 7.42,-4.08 3.3,0.64 6.29,4.49 7.59,9.81 1.45,5.94 -0.48,12.62 -2.35,19.09 -0.71,2.49 -1.39,4.84 -1.85,7.06 a 51.81,51.81 0 0 0 -0.7,9.19 c -0.07,4.72 -0.16,9.59 -2,13.67 a 6,6 0 0 1 -5.83,3.42 z m 4.14,-61.3 c -1.89,0 -3.81,1.29 -5.61,3.77 a 17.93,17.93 0 0 0 -1.82,3.22 v 0 a 30.59,30.59 0 0 0 -1.46,4.08 c -3,10.19 -3.07,21.54 -3.16,30.67 0,1.06 -0.09,2.29 -0.18,3.58 -0.24,3.73 -0.51,8 0.61,10.64 1,2.42 4.17,4.29 7.33,4.34 a 5.07,5.07 0 0 0 5,-2.8 c 1.8,-3.89 1.88,-8.65 2,-13.26 a 52.36,52.36 0 0 1 0.72,-9.38 c 0.47,-2.26 1.15,-4.63 1.87,-7.14 1.84,-6.34 3.73,-12.9 2.34,-18.57 -1.2,-4.86 -3.93,-8.51 -6.82,-9.07 A 4.26,4.26 0 0 0 644.38,267 Z m -7.89,6.78 z"
     style="fill:#263238"
     id="path427" />
  <rect
     x="582.73999"
     y="366.04999"
     width="27.879999"
     height="7.5799999"
     style="fill:#263238"
     id="rect429" />
  <path
     d="m 610.62,374.13 h -27.88 a 0.5,0.5 0 0 1 -0.5,-0.5 v -7.58 a 0.51,0.51 0 0 1 0.5,-0.5 h 27.88 a 0.5,0.5 0 0 1 0.5,0.5 v 7.58 a 0.5,0.5 0 0 1 -0.5,0.5 z m -27.38,-1 h 26.88 v -6.58 h -26.88 z"
     style="fill:#263238"
     id="path431" />
  <path
     d="m 563.93,453.39 a 3.57,3.57 0 1 1 -3.56,-3.57 3.56,3.56 0 0 1 3.56,3.57 z"
     style="fill:#ffffff"
     id="path433" />
  <path
     d="m 560.37,457.46 a 4.07,4.07 0 1 1 4.06,-4.07 4.07,4.07 0 0 1 -4.06,4.07 z m 0,-7.14 a 3.07,3.07 0 1 0 3.06,3.07 3.07,3.07 0 0 0 -3.06,-3.07 z"
     style="fill:#263238"
     id="path435" />
  <path
     d="m 637.22,453.39 a 3.57,3.57 0 1 1 -3.57,-3.57 3.56,3.56 0 0 1 3.57,3.57 z"
     style="fill:#ffffff"
     id="path437" />
  <path
     d="m 633.65,457.46 a 4.07,4.07 0 1 1 4.07,-4.07 4.08,4.08 0 0 1 -4.07,4.07 z m 0,-7.14 a 3.07,3.07 0 1 0 3.07,3.07 3.08,3.08 0 0 0 -3.07,-3.07 z"
     style="fill:#263238"
     id="path439" />
  <path
     d="m 600.14,453.39 a 3.57,3.57 0 1 1 -3.56,-3.57 3.56,3.56 0 0 1 3.56,3.57 z"
     style="fill:#ffffff"
     id="path441" />
  <path
     d="m 596.58,457.46 a 4.07,4.07 0 1 1 4.06,-4.07 4.07,4.07 0 0 1 -4.06,4.07 z m 0,-7.14 a 3.07,3.07 0 1 0 3.06,3.07 3.07,3.07 0 0 0 -3.06,-3.07 z"
     style="fill:#263238"
     id="path443" />
  <polygon
     points="555.07,452.42 560.37,452.42 560.37,449.6 596.68,436.84 633,449.6 633,452.42 638.3,452.42 638.3,449.17 599.09,427.01 596.68,427.1 594.28,427.01 555.07,449.17 "
     style="fill:#263238"
     id="polygon445" />
  <path
     d="M 638.3,452.92 H 633 a 0.5,0.5 0 0 1 -0.5,-0.5 V 450 L 596.68,437.41 560.87,450 v 2.46 a 0.5,0.5 0 0 1 -0.5,0.5 h -5.3 a 0.5,0.5 0 0 1 -0.5,-0.5 v -3.25 a 0.5,0.5 0 0 1 0.25,-0.43 L 594,426.57 a 0.63,0.63 0 0 1 0.27,-0.06 l 2.4,0.09 2.37,-0.09 a 0.58,0.58 0 0 1 0.26,0.06 l 39.21,22.17 a 0.49,0.49 0 0 1 0.26,0.43 v 3.25 a 0.51,0.51 0 0 1 -0.47,0.5 z m -4.8,-1 h 4.3 v -2.46 l -38.8,-21.95 -2.26,0.09 -2.3,-0.09 -38.83,21.95 v 2.46 h 4.3 v -2.32 a 0.51,0.51 0 0 1 0.34,-0.47 l 36.31,-12.77 a 0.62,0.62 0 0 1 0.33,0 l 36.31,12.77 a 0.51,0.51 0 0 1 0.34,0.47 z"
     style="fill:#263238"
     id="path447" />
  <polygon
     points="593.21,426.91 600.15,426.91 599.11,452.42 594.25,452.42 "
     style="fill:#263238"
     id="polygon449" />
  <path
     d="m 599.11,452.92 h -4.86 a 0.52,0.52 0 0 1 -0.5,-0.48 l -1,-25.51 a 0.55,0.55 0 0 1 0.14,-0.37 0.51,0.51 0 0 1 0.36,-0.15 h 6.94 a 0.48,0.48 0 0 1 0.36,0.15 0.47,0.47 0 0 1 0.14,0.37 l -1,25.51 a 0.5,0.5 0 0 1 -0.58,0.48 z m -4.38,-1 h 3.9 l 1,-24.51 h -5.9 z"
     style="fill:#263238"
     id="path451" />
  <path
     d="m 556.62,195.84 c 0,0 -1,7.61 1.94,11.82 2.94,4.21 3.72,6.63 3.72,8.58 0,1.95 -1.29,5.18 0,6.15 1.29,0.97 5.19,0 5.19,0 0,0 7,7.12 9.39,6.48 a 15.8,15.8 0 0 0 4.85,-2.59 c 0,0 7.29,7.44 8.26,9.55 0.97,2.11 1.62,3.72 1.62,3.72 l 10.85,-17.16 a 34,34 0 0 1 -10.52,-14.25 c -3.4,-9.07 -3.4,-21 -13.77,-23.64 -10.37,-2.64 -20.4,6.96 -21.53,11.34 z"
     style="fill:#ffffff"
     id="path453" />
  <path
     d="m 591.59,240.05 v 0 a 0.51,0.51 0 0 1 -0.42,-0.31 c 0,0 -0.66,-1.63 -1.61,-3.7 -0.73,-1.58 -5.65,-6.83 -7.85,-9.1 a 15.47,15.47 0 0 1 -4.68,2.41 c -2.47,0.66 -8.12,-4.83 -9.68,-6.41 -1,0.22 -4,0.81 -5.33,-0.15 -1.11,-0.84 -0.79,-2.67 -0.47,-4.44 a 13.1,13.1 0 0 0 0.27,-2.11 c 0,-1.42 -0.41,-3.65 -3.63,-8.3 -3,-4.32 -2.07,-11.85 -2,-12.17 0,0 0,0 0,-0.06 1.25,-4.83 11.77,-14.29 22.14,-11.69 8.11,2 10.11,9.63 12,17 a 72.26,72.26 0 0 0 2.07,7 33.75,33.75 0 0 0 10.35,14 0.49,0.49 0 0 1 0.13,0.67 L 592,239.82 a 0.48,0.48 0 0 1 -0.41,0.23 z m -9.88,-14.27 a 0.51,0.51 0 0 1 0.36,0.15 c 0.3,0.3 7.36,7.53 8.36,9.69 0.53,1.15 1,2.17 1.25,2.85 l 10.09,-16 a 34.34,34.34 0 0 1 -10.32,-14.19 71.9,71.9 0 0 1 -2.11,-7.06 c -1.94,-7.4 -3.77,-14.39 -11.31,-16.27 -10.29,-2.57 -19.86,7 -20.92,10.94 -0.06,0.53 -0.82,7.57 1.86,11.44 2.68,3.87 3.81,6.51 3.81,8.87 a 14.67,14.67 0 0 1 -0.28,2.29 c -0.25,1.4 -0.54,3 0.08,3.46 0.81,0.6 3.35,0.27 4.76,-0.08 a 0.47,0.47 0 0 1 0.48,0.13 c 2.62,2.67 7.36,6.75 8.91,6.34 a 15.64,15.64 0 0 0 4.67,-2.49 0.45,0.45 0 0 1 0.31,-0.07 z"
     style="fill:#263238"
     id="path455" />
  <path
     d="m 570.1,221.76 a 0.51,0.51 0 0 1 -0.45,-0.29 0.49,0.49 0 0 1 0.24,-0.66 c 0,0 2.79,-1.37 2.79,-3.92 a 0.5,0.5 0 0 1 1,0 c 0,3.19 -3.23,4.75 -3.36,4.82 a 0.59,0.59 0 0 1 -0.22,0.05 z"
     style="fill:#263238"
     id="path457" />
  <path
     d="m 562,209 a 0.49,0.49 0 0 1 -0.5,-0.47 3.29,3.29 0 0 1 4.3,-3.43 0.48,0.48 0 0 1 0.41,0.57 0.49,0.49 0 0 1 -0.57,0.41 2.81,2.81 0 0 0 -2.38,0.44 2.75,2.75 0 0 0 -0.76,2 0.5,0.5 0 0 1 -0.48,0.52 z"
     style="fill:#263238"
     id="path459" />
  <path
     d="m 566.21,211.54 c 0.61,0.94 0.7,2 0.21,2.27 -0.49,0.27 -1.37,-0.19 -2,-1.13 -0.63,-0.94 -0.7,-2 -0.21,-2.27 0.49,-0.27 1.39,0.19 2,1.13 z"
     style="fill:#263238"
     id="path461" />
  <polygon
     points="586.08,222.96 586.08,230.31 581.72,226.28 "
     style="fill:#263238"
     id="polygon463" />
  <path
     d="m 586.08,230.81 a 0.55,0.55 0 0 1 -0.34,-0.13 l -4.36,-4 a 0.5,0.5 0 0 1 0,-0.76 l 4.37,-3.32 a 0.5,0.5 0 0 1 0.8,0.4 v 7.35 a 0.51,0.51 0 0 1 -0.3,0.46 0.65,0.65 0 0 1 -0.17,0 z m -3.59,-4.5 3.09,2.86 V 224 Z"
     style="fill:#263238"
     id="path465" />
  <path
     d="m 515.86,343.73 -9.45,94.88 c 0,0 -13.39,0.28 -19,-0.28 -5.61,-0.56 -10.88,-2.79 -10.32,0.28 0.56,3.07 8.92,8.09 12,9.48 3.08,1.39 7,2.23 9.49,3.63 2.49,1.4 7.81,5.3 10,4.74 2.19,-0.56 7.25,-20.92 7.25,-20.92 l 25.97,-83.44 29,-2.23 c 0,0 -43.8,-11.72 -48.27,-12.28 -4.47,-0.56 -6.67,6.14 -6.67,6.14 z"
     style="fill:#ffffff"
     id="path467" />
  <path
     d="m 508.18,457 c -2,0 -5.15,-2 -7.73,-3.58 -0.8,-0.5 -1.52,-0.95 -2.1,-1.27 a 30.09,30.09 0 0 0 -4.94,-2 44.57,44.57 0 0 1 -4.51,-1.66 c -2.52,-1.15 -11.63,-6.31 -12.28,-9.85 a 1.75,1.75 0 0 1 0.39,-1.64 c 0.91,-0.9 3,-0.51 5.84,0 1.42,0.27 3,0.58 4.64,0.74 4.91,0.49 16.1,0.33 18.47,0.29 l 9.4,-94.44 a 0.43,0.43 0 0 1 0,-0.11 c 0.1,-0.29 2.42,-7.07 7.23,-6.47 4.45,0.55 46.55,11.81 48.34,12.28 a 0.52,0.52 0 0 1 0.37,0.53 0.51,0.51 0 0 1 -0.46,0.46 l -28.68,2.2 -25.81,83.12 c -1.18,4.81 -5.27,20.67 -7.61,21.26 a 2.65,2.65 0 0 1 -0.56,0.14 z m -29.42,-19.49 a 1.57,1.57 0 0 0 -1.05,0.25 0.85,0.85 0 0 0 -0.1,0.75 c 0.49,2.73 8.43,7.63 11.71,9.12 1.36,0.61 2.9,1.13 4.4,1.63 a 31.07,31.07 0 0 1 5.12,2 c 0.59,0.33 1.32,0.79 2.14,1.3 2.4,1.5 6,3.77 7.54,3.4 1.25,-0.45 4.49,-10.81 6.89,-20.56 L 541.33,352 a 0.51,0.51 0 0 1 0.43,-0.35 l 26.09,-2 c -9.77,-2.6 -41.64,-11 -45.36,-11.5 -3.72,-0.5 -5.93,5.16 -6.14,5.75 l -9.44,94.82 a 0.51,0.51 0 0 1 -0.49,0.45 c -0.13,0 -13.49,0.27 -19,-0.28 -1.65,-0.17 -3.29,-0.48 -4.73,-0.75 a 24.1,24.1 0 0 0 -3.93,-0.62 z m 27.65,1.09 z"
     style="fill:#263238"
     id="path469" />
  <path
     d="m 501.39,446.42 c -9.49,-2.23 -12.84,-5 -12.84,-5 l 2.53,-2.85 c -1.38,-0.05 -2.64,-0.12 -3.64,-0.22 -5.58,-0.56 -10.88,-2.79 -10.32,0.28 0.56,3.07 8.92,8.09 12,9.48 3.08,1.39 7,2.23 9.49,3.63 2.49,1.4 7.81,5.3 10,4.74 0.93,-0.23 2.33,-3.88 3.66,-8.06 a 94.41,94.41 0 0 1 -10.88,-2 z"
     style="fill:#004bff"
     id="path471" />
  <path
     d="m 508.18,457 c -2,0 -5.15,-2 -7.73,-3.58 -0.8,-0.5 -1.52,-0.95 -2.1,-1.27 a 30.09,30.09 0 0 0 -4.94,-2 44.57,44.57 0 0 1 -4.51,-1.66 c -2.52,-1.15 -11.63,-6.31 -12.28,-9.85 a 1.75,1.75 0 0 1 0.39,-1.64 c 0.91,-0.9 3,-0.51 5.84,0 1.42,0.27 3,0.58 4.64,0.74 0.91,0.09 2.13,0.17 3.61,0.22 a 0.51,0.51 0 0 1 0.36,0.84 l -2.16,2.42 c 1.15,0.78 4.79,2.88 12.2,4.62 v 0 a 94.77,94.77 0 0 0 10.86,2 0.49,0.49 0 0 1 0.36,0.23 0.48,0.48 0 0 1 0.06,0.42 c -2.25,7.08 -3.29,8.22 -4,8.4 a 2.65,2.65 0 0 1 -0.6,0.11 z m -29.42,-19.49 a 1.57,1.57 0 0 0 -1.05,0.25 0.85,0.85 0 0 0 -0.1,0.75 c 0.49,2.73 8.43,7.63 11.71,9.12 1.36,0.61 2.9,1.13 4.4,1.63 a 31.07,31.07 0 0 1 5.12,2 c 0.59,0.33 1.33,0.79 2.14,1.3 2.4,1.5 6,3.77 7.54,3.4 0.15,-0.06 1,-0.67 3.12,-7.16 a 97.39,97.39 0 0 1 -10.37,-1.91 c -9.49,-2.24 -12.9,-5 -13,-5.13 a 0.54,0.54 0 0 1 -0.18,-0.35 0.53,0.53 0 0 1 0.13,-0.36 L 490,439 c -1,-0.05 -1.9,-0.11 -2.62,-0.18 -1.65,-0.17 -3.29,-0.48 -4.73,-0.75 a 24.1,24.1 0 0 0 -3.89,-0.55 z"
     style="fill:#263238"
     id="path473" />
  <path
     d="m 585.1,301.08 -3.68,14.47 A 237.88,237.88 0 0 0 545.71,320 c -19,3.9 -36.55,9.2 -37.11,12.55 -0.56,3.35 21.21,43.24 38.22,73.93 3.69,6.64 11.72,23.44 11.72,23.44 0,0 -3.07,8.37 -6.14,13.11 -3.07,4.74 -7.81,9.21 -8.92,9.77 -1.11,0.56 -4.47,1.95 -3.35,3.34 1.12,1.39 12.55,0 13.39,0 0.84,0 9.77,-7.81 12.28,-10 2.51,-2.19 12.27,-9.49 12,-12.28 -0.27,-2.79 -8.93,-8.92 -9.48,-10.88 -0.55,-1.96 -11.73,-26.24 -12.32,-28.47 -0.59,-2.23 -15.34,-46 -15.34,-46 0,0 60.54,3.35 73.65,2.24 13.11,-1.11 15.07,-6.14 15.9,-10.61 0.83,-4.47 -5,-40.73 -5,-40.73 l -39.06,-0.28 z"
     style="fill:#ffffff"
     id="path475" />
  <path
     d="m 543.88,457.28 c -2.44,0 -3.71,-0.27 -4.14,-0.8 a 1.38,1.38 0 0 1 -0.3,-1.2 c 0.25,-1.12 1.84,-2 3.44,-2.73 l 0.37,-0.18 c 1.08,-0.54 5.73,-4.95 8.73,-9.59 2.75,-4.24 5.54,-11.53 6,-12.82 -0.9,-1.88 -8.19,-17 -11.61,-23.21 -34.91,-63 -38.57,-72.54 -38.28,-74.26 0.67,-4 20.62,-9.49 37.5,-13 A 242.07,242.07 0 0 1 581,315.07 L 584.62,301 a 0.36,0.36 0 0 1 0,-0.11 l 1.06,-2 a 0.5,0.5 0 0 1 0.44,-0.27 v 0 l 39.05,0.28 a 0.49,0.49 0 0 1 0.49,0.42 c 0.24,1.49 5.87,36.41 5,40.91 -0.88,4.72 -3,9.86 -16.35,11 -12.21,1.05 -66,-1.81 -73,-2.19 2,5.83 14.59,43.28 15.12,45.38 0.29,1.16 3.77,9 6.84,15.9 2.77,6.23 5.16,11.61 5.43,12.54 0.2,0.7 2.09,2.46 3.75,4 2.74,2.55 5.57,5.18 5.75,7 0.23,2.32 -4.6,6.48 -10,10.9 -0.91,0.75 -1.67,1.37 -2.16,1.8 -4.28,3.8 -11.6,10.17 -12.61,10.17 -0.15,0 -0.65,0 -1.37,0.12 -3.53,0.26 -6.23,0.43 -8.18,0.43 z m 41.69,-156 -3.67,14.42 a 0.49,0.49 0 0 1 -0.46,0.37 239.61,239.61 0 0 0 -35.63,4.46 c -20.48,4.21 -36.26,9.43 -36.71,12.14 -0.28,1.68 6.11,15.81 38.16,73.61 3.65,6.57 11.65,23.29 11.73,23.46 a 0.48,0.48 0 0 1 0,0.39 c -0.12,0.34 -3.12,8.48 -6.19,13.21 -3.07,4.73 -7.94,9.35 -9.12,9.94 l -0.39,0.19 c -0.82,0.39 -2.73,1.31 -2.9,2.05 a 0.38,0.38 0 0 0 0.11,0.35 c 0.35,0.42 2.63,0.75 11.53,-0.07 0.87,-0.08 1.3,-0.12 1.47,-0.12 0.82,-0.26 7.49,-6 11.94,-9.91 0.5,-0.44 1.27,-1.08 2.2,-1.83 3.19,-2.61 9.83,-8.05 9.64,-10 -0.15,-1.4 -3.08,-4.13 -5.44,-6.32 -2.36,-2.19 -3.77,-3.54 -4,-4.47 -0.23,-0.93 -2.86,-6.73 -5.38,-12.41 -3.24,-7.28 -6.59,-14.81 -6.9,-16.06 -0.55,-2.19 -15.19,-45.56 -15.34,-46 a 0.51,0.51 0 0 1 0.08,-0.46 0.48,0.48 0 0 1 0.42,-0.2 c 0.61,0 60.66,3.34 73.59,2.24 12.7,-1.08 14.63,-5.83 15.45,-10.2 0.76,-4.07 -4.31,-36.09 -5,-40.14 l -38.33,-0.28 z m -4.15,14.29 z"
     style="fill:#263238"
     id="path477" />
  <path
     d="m 540.69,349 a 0.69,0.69 0 0 1 -0.2,0 l -13.39,-5.58 a 0.50423209,0.50423209 0 0 1 0.39,-0.93 l 13.39,5.51 a 0.52,0.52 0 0 1 0.27,0.66 0.5,0.5 0 0 1 -0.46,0.34 z"
     style="fill:#263238"
     id="path479" />
  <path
     d="m 577.79,433.84 c -0.13,-1.37 -2.29,-3.54 -4.51,-5.63 -0.9,1.14 -1.93,2.41 -3,3.68 -3.35,3.91 -17.58,17.86 -17.58,17.86 l -4.54,-1.24 a 26.91,26.91 0 0 1 -4.66,4.31 c -1.12,0.55 -4.47,1.95 -3.35,3.34 1.12,1.39 12.55,0 13.39,0 0.84,0 9.77,-7.81 12.28,-10 2.51,-2.19 12.25,-9.53 11.97,-12.32 z"
     style="fill:#004bff"
     id="path481" />
  <path
     d="m 543.88,457.28 c -2.44,0 -3.71,-0.27 -4.14,-0.8 a 1.38,1.38 0 0 1 -0.3,-1.2 c 0.25,-1.12 1.84,-2 3.44,-2.73 l 0.37,-0.18 a 26.63,26.63 0 0 0 4.52,-4.2 0.49,0.49 0 0 1 0.5,-0.15 l 4.27,1.17 c 1.76,-1.73 14.26,-14 17.34,-17.62 1,-1.12 2,-2.36 3,-3.67 a 0.48,0.48 0 0 1 0.35,-0.19 0.52,0.52 0 0 1 0.38,0.13 c 2.78,2.62 4.53,4.52 4.67,6 0.23,2.32 -4.6,6.48 -10,10.9 -0.91,0.75 -1.67,1.37 -2.16,1.8 -4.28,3.8 -11.6,10.17 -12.61,10.17 -0.15,0 -0.65,0 -1.37,0.12 -3.61,0.28 -6.31,0.45 -8.26,0.45 z m 4.42,-8.21 a 25.36,25.36 0 0 1 -4.6,4.19 l -0.39,0.19 c -0.82,0.39 -2.73,1.31 -2.9,2.05 a 0.38,0.38 0 0 0 0.11,0.35 c 0.35,0.42 2.63,0.75 11.53,-0.07 0.87,-0.08 1.3,-0.12 1.47,-0.12 0.82,-0.26 7.49,-6 11.94,-9.91 0.5,-0.44 1.27,-1.08 2.2,-1.83 3.19,-2.61 9.83,-8.05 9.64,-10 v 0 c -0.13,-1.22 -2.51,-3.56 -4,-4.94 -0.92,1.16 -1.83,2.26 -2.69,3.27 -3.32,3.87 -17,17.31 -17.61,17.88 a 0.5,0.5 0 0 1 -0.48,0.13 z"
     style="fill:#263238"
     id="path483" />
  <path
     d="m 586.16,299.09 -1.06,2 -3.68,14.47 A 237.88,237.88 0 0 0 545.71,320 c -5.69,1.17 -11.25,2.46 -16.27,3.8 l 13,24.75 c 9.92,0.53 60.14,3.14 71.94,2.14 13.11,-1.12 15.07,-6.14 15.9,-10.61 0.83,-4.47 -5,-40.73 -5,-40.73 z"
     style="fill:#004bff"
     id="path485" />
  <path
     d="m 606.16,351.43 c -18.53,0 -55.41,-1.92 -63.79,-2.36 a 0.49,0.49 0 0 1 -0.41,-0.27 l -13,-24.75 a 0.47,0.47 0 0 1 0,-0.43 0.5,0.5 0 0 1 0.33,-0.29 c 5,-1.32 10.6,-2.63 16.29,-3.8 A 242.07,242.07 0 0 1 581,315.07 L 584.62,301 a 0.36,0.36 0 0 1 0,-0.11 l 1.06,-2 a 0.5,0.5 0 0 1 0.44,-0.27 v 0 l 39.05,0.28 a 0.49,0.49 0 0 1 0.49,0.42 c 0.24,1.49 5.87,36.41 5,40.91 -0.88,4.72 -3,9.86 -16.35,11 -1.8,0.13 -4.65,0.2 -8.15,0.2 z m -63.45,-3.35 c 10.58,0.57 60,3.12 71.59,2.13 12.7,-1.08 14.63,-5.83 15.45,-10.2 0.76,-4.07 -4.31,-36.09 -5,-40.14 l -38.33,-0.28 -0.89,1.67 -3.67,14.42 a 0.49,0.49 0 0 1 -0.46,0.37 239.61,239.61 0 0 0 -35.63,4.46 c -5.44,1.12 -10.83,2.37 -15.63,3.63 z m 38.71,-32.53 z"
     style="fill:#263238"
     id="path487" />
  <path
     d="m 613.5,327.77 a 0.49,0.49 0 0 1 -0.32,-0.12 c -8.71,-7.35 -28.29,-10.18 -28.48,-10.21 a 0.5,0.5 0 0 1 -0.43,-0.56 0.51,0.51 0 0 1 0.57,-0.43 c 0.81,0.12 20,2.9 29,10.44 a 0.49,0.49 0 0 1 0,0.7 0.48,0.48 0 0 1 -0.34,0.18 z"
     style="fill:#263238"
     id="path489" />
  <path
     d="m 608.2,320.79 a 0.52,0.52 0 0 1 -0.29,-0.09 c -3.76,-2.68 -16.11,-4.36 -16.23,-4.37 a 0.5,0.5 0 0 1 -0.43,-0.57 0.48,0.48 0 0 1 0.56,-0.42 c 0.52,0.06 12.72,1.72 16.68,4.55 a 0.5,0.5 0 0 1 0.12,0.7 0.51,0.51 0 0 1 -0.41,0.2 z"
     style="fill:#263238"
     id="path491" />
  <path
     d="m 534.67,274.52 c 0,0 -4.36,-0.38 -6.45,1 -2.09,1.38 -12.12,8.15 -14.78,10.42 a 26.6,26.6 0 0 0 -5.31,6.82 c -0.18,0.57 1.14,0.76 1.71,0.57 0.57,-0.19 3,-2.08 2.27,-1.13 -0.73,0.95 0.58,1.17 0.58,1.17 0,0 14,-8.19 15.16,-8 a 8.15,8.15 0 0 0 4.92,-1.7 59.68,59.68 0 0 1 5.5,-3.22 l 44.73,8.66 6.82,-6.25 -1.51,-15.16 -10,8.34 z"
     style="fill:#ffffff"
     id="path493" />
  <path
     d="m 509.29,293.85 a 2.09,2.09 0 0 1 -1.42,-0.45 0.79,0.79 0 0 1 -0.21,-0.84 26.14,26.14 0 0 1 5.46,-7.05 c 2.66,-2.28 12.71,-9.11 14.84,-10.46 2.13,-1.35 6.42,-1.06 6.74,-1 l 43.39,1.51 9.9,-8.22 a 0.52,0.52 0 0 1 0.51,-0.08 0.48,0.48 0 0 1 0.3,0.42 l 1.52,15.16 a 0.48,0.48 0 0 1 -0.16,0.42 l -6.82,6.25 a 0.5,0.5 0 0 1 -0.44,0.12 l -44.55,-8.68 a 53.81,53.81 0 0 0 -5.28,3.1 c -1.61,1.21 -4,2 -5.31,1.8 -0.88,0.05 -8.3,4.13 -14.82,7.94 a 0.48,0.48 0 0 1 -0.33,0.06 1.56,1.56 0 0 1 -1.17,-0.81 0.29,0.29 0 0 1 0,-0.09 l -0.09,0.06 a 8.55,8.55 0 0 1 -1.33,0.78 2.45,2.45 0 0 1 -0.73,0.06 z m -0.63,-1.1 a 1.94,1.94 0 0 0 1,0.06 8.75,8.75 0 0 0 1.1,-0.67 c 1.15,-0.75 1.49,-1 1.84,-0.59 0.35,0.41 0,0.77 -0.11,0.91 a 0.53,0.53 0 0 0 -0.13,0.22 0.92,0.92 0 0 0 0.24,0.11 c 4.28,-2.5 13.8,-8 15.24,-8 h 0.07 a 7.76,7.76 0 0 0 4.54,-1.61 60.6,60.6 0 0 1 5.55,-3.18 0.53,0.53 0 0 1 0.33,-0.05 l 44.48,8.67 6.45,-5.91 -1.4,-14 -9.32,7.74 a 0.58,0.58 0 0 1 -0.34,0.12 L 534.65,275 v 0 c 0,0 -4.22,-0.35 -6.14,0.87 -2.12,1.35 -12.09,8.12 -14.72,10.38 a 26.83,26.83 0 0 0 -5.13,6.5 z"
     style="fill:#263238"
     id="path495" />
  <path
     d="m 597.35,225.17 c 0,0 -8.35,16.89 -12.49,29.83 -4.14,12.94 -2,15.92 -1,16.66 1,0.74 3.18,2.44 3.18,2.44 0,0 -3.67,25 -2,26.94 1.67,1.94 15.92,2.7 27.43,2.7 11.51,0 14.2,-4.66 14.2,-7.1 0,-2.44 -5.14,-41.88 -9.06,-54.62 -3.92,-12.74 -14.39,-21.02 -20.26,-16.85 z"
     style="fill:#ffffff"
     id="path497" />
  <path
     d="m 612.53,304.28 c -4.23,0 -25.42,-0.14 -27.8,-2.87 -1.74,-2 1.09,-22.25 1.79,-27.05 -0.59,-0.46 -2.16,-1.68 -2.94,-2.27 -1.74,-1.3 -3,-5.34 0.8,-17.2 4.13,-12.87 12.43,-29.78 12.52,-29.95 a 0.46,0.46 0 0 1 0.16,-0.18 7.15,7.15 0 0 1 6.69,-0.66 c 5.87,2 11.79,9.32 14.4,17.82 3.85,12.52 9.08,51.81 9.08,54.76 0,2.95 -3.09,7.6 -14.7,7.6 z M 597.74,225.5 c -0.74,1.5 -8.48,17.5 -12.41,29.7 -4.07,12.69 -1.91,15.53 -1.15,16.09 1,0.74 3.19,2.46 3.19,2.46 a 0.52,0.52 0 0 1 0.19,0.47 c -1.79,12.16 -3.06,25.42 -2.08,26.53 1.28,1.47 12.65,2.53 27,2.53 10.82,0 13.7,-4.15 13.7,-6.6 0,-2.12 -5,-41.44 -9,-54.47 C 614.67,234 609,227 603.43,225.05 a 6.24,6.24 0 0 0 -5.69,0.45 z"
     style="fill:#263238"
     id="path499" />
  <path
     d="m 596.87,244.53 -5.23,36.79 c 0,0 -54.13,-2.93 -55.11,-2.93 -0.98,0 -11.75,4.89 -16.16,7.34 -4.41,2.45 -7.35,4.17 -8.08,5.88 l -0.74,1.71 a 17.34,17.34 0 0 0 6.62,0 28.19,28.19 0 0 0 5.63,-1.95 c 0,0 6.37,-0.74 8.57,-2.21 2.2,-1.47 7.1,-5.63 7.1,-5.63 0,0 42.61,11.51 47,12.24 4.39,0.73 14.94,5.15 17.39,2.7 2,-2 8.15,-37.69 10.14,-49.57 a 10.5,10.5 0 0 0 -2.07,-8.26 c -1.48,-1.87 -3.5,-3.57 -5.87,-3.89 -7.18,-0.95 -9.19,7.78 -9.19,7.78 z"
     style="fill:#ffffff"
     id="path501" />
  <path
     d="m 601.33,299.69 c -2.66,0 -6.4,-1.09 -9.84,-2.1 a 51.92,51.92 0 0 0 -5.08,-1.32 c -4.25,-0.71 -42.95,-11.15 -46.81,-12.19 -1,0.81 -5,4.18 -7,5.5 -2.16,1.44 -7.9,2.17 -8.71,2.27 a 28.3,28.3 0 0 1 -5.66,2 17.79,17.79 0 0 1 -6.83,0 0.47,0.47 0 0 1 -0.34,-0.26 0.51,0.51 0 0 1 0,-0.42 l 0.74,-1.72 c 0.79,-1.84 3.66,-3.54 8.3,-6.12 3.87,-2.14 15.19,-7.4 16.4,-7.4 1,0 49.07,2.61 54.68,2.91 l 5.16,-36.34 c 0,0 0,0 0,0 0,0 2.22,-9.17 9.77,-8.16 2.74,0.36 4.88,2.41 6.19,4.07 a 11,11 0 0 1 2.17,8.65 c -3,17.75 -8.25,47.82 -10.28,49.84 a 4,4 0 0 1 -2.86,0.79 z M 539.47,283 a 0.27,0.27 0 0 1 0.13,0 c 0.43,0.11 42.64,11.51 47,12.23 a 51.39,51.39 0 0 1 5.19,1.35 c 4.33,1.27 10.24,3 11.76,1.48 1.29,-1.29 5.12,-20.18 10,-49.29 a 10,10 0 0 0 -2,-7.87 c -1.19,-1.51 -3.12,-3.38 -5.53,-3.7 -6.58,-0.87 -8.53,6.82 -8.66,7.37 l -5.23,36.77 a 0.49,0.49 0 0 1 -0.52,0.43 c -18.71,-1 -54.31,-2.93 -55.08,-2.93 -1,0.07 -11.43,4.79 -15.92,7.28 -4.32,2.4 -7.2,4.09 -7.86,5.64 l -0.49,1.13 a 16.44,16.44 0 0 0 5.79,-0.1 28.12,28.12 0 0 0 5.53,-1.92 0.43,0.43 0 0 1 0.16,-0.05 c 0.06,0 6.28,-0.74 8.35,-2.12 2.07,-1.38 7,-5.56 7.06,-5.6 a 0.49,0.49 0 0 1 0.32,-0.1 z"
     style="fill:#263238"
     id="path503" />
  <path
     d="m 518.17,293.82 a 0.49,0.49 0 0 1 -0.5,-0.47 3,3 0 0 1 1.21,-2.61 c 1,-0.6 6.3,-3 6.81,-3.18 a 0.51,0.51 0 0 1 0.63,0.32 0.5,0.5 0 0 1 -0.32,0.63 c -0.38,0.13 -5.57,2.49 -6.63,3.1 -0.76,0.43 -0.7,1.68 -0.7,1.69 a 0.5,0.5 0 0 1 -0.48,0.52 z"
     style="fill:#263238"
     id="path505" />
  <path
     d="m 515.24,294.21 a 0.39,0.39 0 0 1 -0.15,0 0.49,0.49 0 0 1 -0.32,-0.63 c 0.18,-0.59 0.84,-2.58 1.52,-3.08 0.68,-0.5 6.27,-3.7 6.92,-4.07 a 0.5,0.5 0 0 1 0.49,0.87 c -2.51,1.43 -6.39,3.68 -6.81,4 a 8.43,8.43 0 0 0 -1.17,2.58 0.49,0.49 0 0 1 -0.48,0.33 z"
     style="fill:#263238"
     id="path507" />
  <path
     d="m 566.9,176.88 c 0,0 -18.66,10.26 -18.35,16.17 0.31,5.91 25.51,9.64 27.68,9.64 2.17,0 2.49,-5.59 5.29,-4 2.8,1.59 3.42,5.29 3.11,6.84 a 33.74,33.74 0 0 1 -0.93,3.42 c 0,0 6.22,18 12.44,21.15 6.22,3.15 14.47,5.69 20.06,-1.47 5.59,-7.16 4.17,-15.67 0.77,-19.36 -4.7,-5.13 -15.55,-5 -18.35,-11.51 -2.8,-6.51 -1.86,-16.49 -8.08,-22.71 -6.22,-6.22 -23.64,1.83 -23.64,1.83 z"
     style="fill:#263238"
     id="path509" />
  <path
     d="m 607,233.68 c -3.19,0 -6.88,-1.06 -11.1,-3.17 -6.33,-3.16 -12.43,-20.69 -12.69,-21.43 a 0.58,0.58 0 0 1 0,-0.32 32.61,32.61 0 0 0 0.92,-3.36 c 0.25,-1.25 -0.22,-4.84 -2.86,-6.31 -1,-0.58 -1.55,0.08 -2.47,1.72 -0.66,1.17 -1.34,2.38 -2.58,2.38 -1.42,0 -27.83,-3.52 -28.18,-10.11 -0.32,-6.15 17.84,-16.21 18.61,-16.64 v 0 c 0.73,-0.34 17.81,-8.16 24.2,-1.77 4.11,4.11 5.15,9.63 6.16,15 a 38.64,38.64 0 0 0 2,7.89 c 1.49,3.47 5.4,5 9.54,6.53 3.23,1.23 6.58,2.5 8.72,4.84 3.25,3.53 5.26,12.34 -0.74,20 a 11.61,11.61 0 0 1 -9.53,4.75 z m -22.79,-24.77 c 0.63,1.77 6.47,17.87 12.14,20.71 9,4.51 15.21,4.09 19.45,-1.33 5.65,-7.22 3.81,-15.44 0.8,-18.73 -2,-2.16 -5.22,-3.39 -8.35,-4.57 -4.15,-1.58 -8.44,-3.21 -10.1,-7.07 a 40.17,40.17 0 0 1 -2.1,-8.11 c -1,-5.19 -2,-10.56 -5.88,-14.44 -5.82,-5.83 -22.46,1.69 -23,2 -5.13,2.82 -18.32,11.11 -18.08,15.7 0.28,5.21 24.08,9.16 27.18,9.16 0.66,0 1.19,-0.95 1.71,-1.87 0.76,-1.36 1.8,-3.23 3.82,-2.11 3,1.69 3.7,5.71 3.36,7.38 a 32.38,32.38 0 0 1 -0.94,3.28 z"
     style="fill:#263238"
     id="path511" />
  <path
     d="m 469.5,296.73 h -22.28 a 3.89,3.89 0 0 1 -3.41,-5.78 l 24.48,-44.37 a 1.39,1.39 0 0 1 2.43,1.35 l -24.48,44.36 a 1.12,1.12 0 0 0 1,1.66 h 22.26 a 1.39,1.39 0 0 1 0,2.78 z"
     style="fill:#263238"
     id="path513" />
  <rect
     x="413.94016"
     y="291.04156"
     width="4.9699998"
     height="82.239998"
     transform="rotate(-10.96)"
     style="fill:#ffffff"
     id="rect515" />
  <path
     d="m 477.37,288.27 a 0.49,0.49 0 0 1 -0.49,-0.41 l -15.64,-80.74 a 0.47,0.47 0 0 1 0.08,-0.38 0.49,0.49 0 0 1 0.31,-0.21 l 4.89,-0.94 a 0.5,0.5 0 0 1 0.58,0.39 l 15.64,80.75 a 0.48,0.48 0 0 1 -0.07,0.37 0.49,0.49 0 0 1 -0.32,0.21 l -4.89,0.95 z m -15.05,-80.85 15.44,79.76 3.91,-0.75 -15.45,-79.77 z"
     style="fill:#263238"
     id="path517" />
  <polygon
     points="538.74,294.89 498.72,293.75 498.72,296.41 538.74,296.41 "
     style="fill:#ffffff"
     id="polygon519" />
  <path
     d="m 538.74,296.91 h -40 a 0.5,0.5 0 0 1 -0.5,-0.5 v -2.66 a 0.48,0.48 0 0 1 0.15,-0.36 0.5,0.5 0 0 1 0.36,-0.14 l 40,1.14 a 0.5,0.5 0 0 1 0.49,0.5 v 1.52 a 0.5,0.5 0 0 1 -0.5,0.5 z m -39.52,-1 h 39 v -0.54 l -39,-1.11 z"
     style="fill:#263238"
     id="path521" />
  <polygon
     points="423.61,457.54 417.09,457.54 415.69,305.86 425,305.86 "
     style="fill:#ffffff"
     id="polygon523" />
  <path
     d="m 423.6,458 h -6.51 a 0.5,0.5 0 0 1 -0.5,-0.5 l -1.4,-151.67 a 0.54,0.54 0 0 1 0.14,-0.36 0.55,0.55 0 0 1 0.36,-0.15 H 425 a 0.55,0.55 0 0 1 0.36,0.15 0.54,0.54 0 0 1 0.14,0.36 l -1.4,151.67 a 0.5,0.5 0 0 1 -0.5,0.5 z m -6,-1 h 5.53 l 1.39,-150.68 h -8.31 z"
     style="fill:#263238"
     id="path525" />
  <polygon
     points="543.04,457.54 536.52,457.54 535.13,305.86 544.44,305.86 "
     style="fill:#ffffff"
     id="polygon527" />
  <path
     d="m 543,458 h -6.52 a 0.5,0.5 0 0 1 -0.5,-0.5 l -1.39,-151.67 a 0.5,0.5 0 0 1 0.14,-0.36 0.51,0.51 0 0 1 0.36,-0.15 h 9.31 a 0.51,0.51 0 0 1 0.5,0.51 L 543.5,457.5 A 0.5,0.5 0 0 1 543,458 Z m -6,-1 h 5.53 l 1.38,-150.68 h -8.3 z"
     style="fill:#263238"
     id="path529" />
  <rect
     x="406.47"
     y="296.64999"
     width="148.28999"
     height="10"
     style="fill:#263238"
     id="rect531" />
  <path
     d="m 554.77,307.15 h -148.3 a 0.5,0.5 0 0 1 -0.5,-0.5 v -10 a 0.5,0.5 0 0 1 0.5,-0.5 h 148.3 a 0.5,0.5 0 0 1 0.5,0.5 v 10 a 0.5,0.5 0 0 1 -0.5,0.5 z m -147.8,-1 h 147.3 v -9 H 407 Z"
     style="fill:#263238"
     id="path533" />
  <path
     d="m 333.63,246.15 -8.08,113 -2.18,68.85 c 0,0 -3.42,0.62 -3.42,2.8 0,2.18 0.31,5.91 0.31,8.71 0,2.8 -5,16.79 -5,16.79 h 23 c 0,0 -0.31,-8.08 0,-13.06 0.31,-4.98 0.31,-7.46 0.93,-8.71 0.62,-1.25 2.18,-4.35 2.18,-7.15 0,-2.8 0.62,-9 0.93,-12.13 0.31,-3.13 21.15,-107.16 21.15,-107.16 0,0 4.36,57.22 5.29,65.62 0.93,8.4 0.31,21.84 0.62,31.17 0.31,9.33 6.22,37 6.22,37 0,0 -1.24,13.06 -1.24,14.61 h 42 c 0,0 1.56,-2.17 0,-2.8 -1.56,-0.63 -4.66,-1.24 -5.6,-1.55 -0.94,-0.31 -16.48,-12.44 -16.48,-12.44 0,0 0.31,-5.91 0,-6.84 -0.31,-0.93 -3.11,-4.36 -3.11,-7.47 0,-3.11 4,-33.65 4,-49.51 v -34.17 c 0,-6.53 0.63,-72.15 0.63,-72.15 l -0.63,-25.19 z"
     style="fill:#263238"
     id="path536" />
  <path
     d="m 416.36,457 h -42 a 0.5,0.5 0 0 1 -0.5,-0.5 c 0,-1.51 1.12,-13.41 1.24,-14.58 -0.35,-1.62 -5.92,-28 -6.22,-37 -0.12,-3.5 -0.1,-7.5 -0.09,-11.73 a 190.28,190.28 0 0 0 -0.53,-19.4 c -0.78,-7.07 -4,-49.3 -5,-62 -3.66,18.3 -20.16,100.83 -20.43,103.56 -0.3,3 -0.93,9.31 -0.93,12.08 0,2.77 -1.56,6 -2.23,7.37 -0.45,0.91 -0.55,2.76 -0.72,5.82 0,0.81 -0.1,1.7 -0.16,2.7 -0.31,4.89 0,12.93 0,13 a 0.55,0.55 0 0 1 -0.14,0.37 0.48,0.48 0 0 1 -0.36,0.15 h -23 a 0.49,0.49 0 0 1 -0.41,-0.21 0.5,0.5 0 0 1 -0.07,-0.46 c 1.72,-4.81 4.95,-14.48 4.95,-16.62 0,-1.48 -0.08,-3.2 -0.17,-4.86 -0.07,-1.45 -0.14,-2.82 -0.14,-3.85 0,-2.09 2.45,-2.94 3.43,-3.2 l 2.17,-68.52 8.08,-113 a 0.51,0.51 0 0 1 0.48,-0.47 l 61.59,-1.78 a 0.46,0.46 0 0 1 0.36,0.14 0.49,0.49 0 0 1 0.15,0.35 l 0.63,25.19 c 0,0.67 -0.63,65.71 -0.63,72.16 v 34.21 c 0,11 -2,29.27 -3.13,40.18 -0.53,4.88 -0.91,8.41 -0.91,9.34 0,2.13 1.47,4.53 2.35,6 a 9.11,9.11 0 0 1 0.74,1.35 c 0.3,0.9 0.1,5.35 0,6.76 6.13,4.78 15.34,11.86 16.15,12.21 0.31,0.1 0.94,0.26 1.68,0.44 a 35.54,35.54 0 0 1 3.93,1.12 1.49,1.49 0 0 1 0.94,1 3.58,3.58 0 0 1 -0.72,2.57 0.51,0.51 0 0 1 -0.38,0.11 z m -41.46,-1 h 41.19 a 2.36,2.36 0 0 0 0.44,-1.5 0.51,0.51 0 0 0 -0.35,-0.33 33.53,33.53 0 0 0 -3.8,-1.08 c -0.76,-0.18 -1.41,-0.35 -1.77,-0.47 -0.94,-0.31 -13,-9.66 -16.64,-12.52 a 0.49,0.49 0 0 1 -0.19,-0.42 45.49,45.49 0 0 0 0,-6.66 10.71,10.71 0 0 0 -0.65,-1.14 c -0.93,-1.52 -2.49,-4.07 -2.49,-6.48 0,-1 0.38,-4.53 0.91,-9.45 1.17,-10.88 3.13,-29.1 3.13,-40.07 v -34.17 c 0,-6.45 0.62,-71.5 0.63,-72.15 l -0.61,-24.68 -60.64,1.76 -8,112.53 -2.18,68.89 a 0.5,0.5 0 0 1 -0.41,0.47 c 0,0 -3,0.58 -3,2.31 0,1 0.07,2.37 0.14,3.8 0.08,1.68 0.17,3.41 0.17,4.91 0,2.53 -3.77,13.44 -4.77,16.29 h 21.79 c -0.06,-1.87 -0.24,-8.37 0,-12.59 0.06,-1 0.11,-1.89 0.16,-2.7 0.18,-3.3 0.28,-5.11 0.83,-6.2 0.55,-1.09 2.12,-4.25 2.12,-6.93 0,-2.83 0.63,-9.14 0.93,-12.18 C 342.14,412.2 362.15,312.28 363,308 a 0.48,0.48 0 0 1 0.52,-0.4 0.5,0.5 0 0 1 0.47,0.46 c 0,0.57 4.36,57.31 5.29,65.6 a 192.89,192.89 0 0 1 0.53,19.51 c 0,4.23 0,8.22 0.09,11.7 0.31,9.18 6.15,36.64 6.21,36.92 a 0.76,0.76 0 0 1 0,0.15 c 0,0.15 -1.06,11.28 -1.21,14.06 z m -51.53,-28 z"
     style="fill:#263238"
     id="path538" />
  <path
     d="m 330.56,243.91 c 0,0 0.25,7 1.81,8.27 1.56,1.27 24.58,3.88 40.36,3.37 15.78,-0.51 22.07,-3.72 23.11,-6.83 1.04,-3.11 -1,-8.08 -1,-8.08 L 332.6,239.5 a 9.1,9.1 0 0 0 -2.04,4.41 z"
     style="fill:#004bff"
     id="path540" />
  <path
     d="m 368.41,256.11 c -15.15,0 -34.74,-2.19 -36.36,-3.54 -1.62,-1.35 -2,-7.91 -2,-8.64 a 0.4,0.4 0 0 1 0,-0.11 9.48,9.48 0 0 1 2.2,-4.67 0.51,0.51 0 0 1 0.36,-0.15 l 62.24,1.14 a 0.52,0.52 0 0 1 0.46,0.32 c 0.08,0.21 2.06,5.18 1,8.42 -1.37,4.11 -10,6.72 -23.56,7.17 -1.39,0.04 -2.84,0.06 -4.34,0.06 z M 331.07,244 c 0.1,2.62 0.62,7 1.62,7.85 1.3,1.07 23.79,3.78 40,3.25 19.21,-0.63 22.19,-5.12 22.64,-6.48 0.82,-2.47 -0.44,-6.33 -0.85,-7.43 L 332.85,240 a 8.79,8.79 0 0 0 -1.78,4 z"
     style="fill:#263238"
     id="path542" />
  <path
     d="m 355.67,138.17 c 0,0 -24.7,9 -27.35,10.21 -2.65,1.21 -4.9,2.45 -5.31,3.88 -0.41,1.43 -13.67,34.29 -13.67,34.29 L 281.17,159 c 0,0 -3.27,-3.26 -5.11,-4.69 -1.84,-1.43 -5.1,-1.23 -7.34,-1.63 -2.24,-0.4 -3.88,-3.88 -4.7,-1.84 -0.82,2.04 -0.61,3.06 0.2,3.67 a 13.94,13.94 0 0 1 1.84,1.84 40.65,40.65 0 0 1 -5.71,-1.84 c -1.64,-0.81 -3.68,-6.12 -4.7,-3.47 -1.02,2.65 5.1,9.19 6.74,10.62 1.64,1.43 2.65,1.22 5.92,1.63 3.27,0.41 8.37,0.61 8.37,0.61 0,0 26.12,47.36 28.16,48.79 2.04,1.43 3.27,2.86 4.9,2.24 1.63,-0.62 18.17,-18 18.17,-18 0,0 2,44.7 2.65,46.95 0.65,2.25 2.25,2 3.07,2.24 0.82,0.24 22.65,2.45 31.84,2.45 9.19,0 22.45,-1.83 25.11,-2.85 2.66,-1.02 4.28,-2.05 4.28,-5.11 0,-3.06 1.43,-30.61 1.43,-30.61 0,0 12.66,11 15.72,11.23 a 6,6 0 0 0 6.12,-3.27 c 1,-2 15.52,-51.84 15.52,-51.84 0,0 7.14,-5.92 7.14,-6.53 0,-0.61 1,-17.35 -1,-16.74 -2,0.61 -6.94,2.24 -6.94,2.24 0,0 2,-3.67 0.61,-6.94 -1.39,-3.27 -4.08,-4.28 -4.08,-2.24 a 64.4,64.4 0 0 1 -0.41,9 c -0.41,1.84 -2,6.33 -1.84,9.59 0.16,3.26 0.21,4.08 0.21,5.31 0,1.23 -18.17,31.64 -18.17,31.64 0,0 -11.23,-36.34 -12.45,-38.17 -1.22,-1.83 -20.62,-11.43 -20.62,-11.43 z"
     style="fill:#ffffff"
     id="path544" />
  <path
     d="m 365.47,249.1 c -9,0 -31.06,-2.24 -32,-2.46 l -0.43,-0.07 a 3.13,3.13 0 0 1 -3,-2.53 c -0.57,-2.09 -2.28,-38.68 -2.62,-45.89 -4,4.18 -16,16.67 -17.54,17.24 -1.54,0.57 -2.77,-0.35 -4.19,-1.44 -0.36,-0.27 -0.75,-0.57 -1.17,-0.86 -2.05,-1.43 -24.93,-42.82 -28.19,-48.71 -1.12,0 -5.32,-0.25 -8.13,-0.6 l -1.67,-0.19 c -2.05,-0.21 -3.08,-0.31 -4.51,-1.57 -0.09,-0.07 -8.2,-7.72 -6.88,-11.17 0.25,-0.64 0.6,-1 1.06,-1 0.89,-0.11 1.67,1 2.58,2.26 a 7.55,7.55 0 0 0 1.75,2 26.91,26.91 0 0 0 3.94,1.34 c -0.2,-0.18 -0.4,-0.36 -0.59,-0.5 -1.41,-1.06 -0.93,-2.83 -0.36,-4.26 a 1.34,1.34 0 0 1 0.89,-0.92 c 0.68,-0.16 1.32,0.39 2.06,1 a 5.44,5.44 0 0 0 2.29,1.42 c 0.62,0.12 1.33,0.18 2.08,0.25 1.9,0.18 4.06,0.37 5.49,1.48 1.84,1.43 5,4.61 5.15,4.74 l 27.63,27 c 4.65,-11.53 13.07,-32.46 13.38,-33.55 0.44,-1.55 2.55,-2.8 5.58,-4.2 2.64,-1.21 26.38,-9.85 27.39,-10.22 a 0.46,0.46 0 0 1 0.26,0 l 20.41,3.67 0.14,0.05 c 2,1 19.54,9.71 20.81,11.6 1.15,1.73 10.08,30.47 12.18,37.23 7.1,-11.91 17.24,-29.2 17.52,-30.47 0,-1.17 0,-2 -0.2,-5.23 -0.16,-2.56 0.77,-5.85 1.39,-8 0.19,-0.68 0.36,-1.27 0.45,-1.7 a 64.67,64.67 0 0 0 0.4,-8.87 1.4,1.4 0 0 1 1,-1.53 c 1.26,-0.26 3,1.31 4,3.57 a 8.49,8.49 0 0 1 -0.15,6.31 c 1.57,-0.52 4.44,-1.46 5.88,-1.89 a 0.85,0.85 0 0 1 0.78,0.15 c 0.75,0.59 1.54,3 0.91,16.39 0,0.37 0,0.61 0,0.68 0,0.25 0,0.84 -7.21,6.81 -1,3.54 -14.49,49.77 -15.5,51.79 a 6.5,6.5 0 0 1 -6.6,3.54 c -2.8,-0.19 -12.27,-8.14 -15.24,-10.68 -0.26,5 -1.38,26.89 -1.38,29.57 0,3.51 -2.08,4.6 -4.6,5.57 -2.78,1.05 -16.08,2.85 -25.24,2.85 z m -37.56,-52.64 a 0.57,0.57 0 0 1 0.18,0 0.52,0.52 0 0 1 0.32,0.45 c 0.71,15.44 2.16,45.1 2.64,46.84 a 2.17,2.17 0 0 0 2.17,1.8 3.42,3.42 0 0 1 0.53,0.09 c 0.88,0.2 22.65,2.43 31.72,2.43 9.44,0 22.51,-1.89 24.93,-2.82 2.74,-1.06 4,-2 4,-4.64 0,-3 1.37,-29.52 1.43,-30.64 a 0.52,0.52 0 0 1 0.31,-0.44 0.5,0.5 0 0 1 0.52,0.09 c 5,4.38 13.3,11 15.42,11.1 a 5.49,5.49 0 0 0 5.65,-3 c 0.79,-1.58 10.47,-34.55 15.48,-51.76 a 0.45,0.45 0 0 1 0.16,-0.25 74.54,74.54 0 0 0 7,-6.24 c 0,-0.12 0,-0.34 0,-0.63 0.61,-13.11 -0.22,-15.18 -0.48,-15.51 -2.06,0.62 -6.8,2.2 -6.85,2.22 a 0.5,0.5 0 0 1 -0.54,-0.16 0.48,0.48 0 0 1 -0.06,-0.56 c 0,0 1.9,-3.5 0.59,-6.5 -1,-2.19 -2.37,-3.1 -2.9,-3 -0.18,0 -0.22,0.32 -0.22,0.55 a 64,64 0 0 1 -0.42,9.09 c -0.1,0.45 -0.27,1 -0.47,1.76 -0.6,2.11 -1.51,5.3 -1.36,7.69 0.21,3.28 0.21,4.1 0.21,5.34 0,1.24 -12.76,22.71 -18.24,31.9 a 0.5,0.5 0 0 1 -0.49,0.24 0.52,0.52 0 0 1 -0.42,-0.35 c -4.5,-14.58 -11.52,-36.74 -12.39,-38 -0.87,-1.26 -12.9,-7.54 -20.35,-11.23 l -20.21,-3.64 c -1.92,0.7 -24.68,9 -27.19,10.14 -2.51,1.14 -4.68,2.31 -5,3.56 -0.41,1.44 -13.15,33 -13.69,34.35 a 0.52,0.52 0 0 1 -0.36,0.3 0.49,0.49 0 0 1 -0.45,-0.13 l -28.17,-27.56 c 0,0 -3.27,-3.26 -5.06,-4.66 -1.2,-0.93 -3.12,-1.1 -5,-1.27 -0.77,-0.07 -1.5,-0.14 -2.16,-0.26 a 6.27,6.27 0 0 1 -2.77,-1.65 c -0.37,-0.32 -1,-0.86 -1.18,-0.82 0,0 -0.08,0 -0.2,0.32 -0.82,2.08 -0.44,2.73 0,3.09 a 15,15 0 0 1 1.93,1.92 0.5,0.5 0 0 1 0,0.58 0.47,0.47 0 0 1 -0.54,0.22 40.75,40.75 0 0 1 -5.82,-1.87 7.42,7.42 0 0 1 -2.11,-2.31 c -0.47,-0.65 -1.33,-1.81 -1.65,-1.84 0,0 -0.1,0 -0.24,0.41 -0.8,2.08 4.32,8.07 6.6,10.06 1.19,1 2,1.13 3.95,1.33 0.5,0.05 1.05,0.1 1.7,0.18 3.21,0.4 8.28,0.61 8.33,0.61 a 0.5,0.5 0 0 1 0.41,0.26 c 10.44,18.91 26.51,47.47 28,48.62 0.44,0.3 0.83,0.61 1.2,0.89 1.45,1.1 2.25,1.67 3.24,1.29 1.15,-0.46 11.64,-11.18 18,-17.83 a 0.48,0.48 0 0 1 0.37,-0.15 z"
     style="fill:#263238"
     id="path546" />
  <path
     d="m 433.79,153.62 a 0.65,0.65 0 0 1 -0.19,0 0.52,0.52 0 0 1 -0.27,-0.66 c 1.65,-3.91 -0.88,-7.48 -0.9,-7.51 a 0.49,0.49 0 0 1 0.11,-0.7 0.5,0.5 0 0 1 0.69,0.11 9.21,9.21 0 0 1 1,8.49 0.52,0.52 0 0 1 -0.44,0.27 z"
     style="fill:#263238"
     id="path548" />
  <path
     d="m 442.42,141 c 0,0 -4.9,2 -5.1,2.86 -0.2,0.86 -0.61,2.86 1.23,2.86 1.84,0 5.46,-1.42 6.15,-2.74 1.02,-1.91 -0.44,-3.36 -2.28,-2.98 z"
     style="fill:#ffffff"
     id="path550" />
  <path
     d="m 438.55,147.25 a 1.8,1.8 0 0 1 -1.5,-0.65 3.24,3.24 0 0 1 -0.21,-2.83 c 0.21,-0.88 3.05,-2.23 5.39,-3.2 h 0.09 a 2.67,2.67 0 0 1 2.76,0.86 2.57,2.57 0 0 1 0.06,2.85 c -0.83,1.56 -4.7,2.97 -6.59,2.97 z m 4,-5.74 c -2.12,0.89 -4.53,2.11 -4.78,2.54 -0.3,1.24 -0.1,1.75 0,1.93 0.1,0.18 0.21,0.27 0.72,0.27 1.7,0 5.12,-1.35 5.71,-2.47 a 1.62,1.62 0 0 0 0,-1.77 1.67,1.67 0 0 0 -1.63,-0.5 z"
     style="fill:#263238"
     id="path552" />
  <path
     d="m 442.11,146.92 c 0,0 -4.9,2 -5.1,2.86 -0.2,0.86 -0.62,2.86 1.22,2.86 1.84,0 5.47,-1.42 6.16,-2.74 1.02,-1.9 -0.39,-3.39 -2.28,-2.98 z"
     style="fill:#ffffff"
     id="path554" />
  <path
     d="m 438.23,153.14 a 1.81,1.81 0 0 1 -1.5,-0.65 3.27,3.27 0 0 1 -0.21,-2.83 c 0.22,-0.88 3.06,-2.23 5.4,-3.2 H 442 a 2.69,2.69 0 0 1 2.77,0.86 2.59,2.59 0 0 1 0.06,2.85 c -0.83,1.56 -4.7,2.97 -6.6,2.97 z m 4,-5.74 c -2.12,0.89 -4.54,2.11 -4.78,2.54 -0.31,1.24 -0.11,1.75 0,1.93 0.11,0.18 0.2,0.27 0.71,0.27 1.71,0 5.13,-1.35 5.71,-2.47 a 1.62,1.62 0 0 0 0,-1.77 1.66,1.66 0 0 0 -1.61,-0.5 z"
     style="fill:#263238"
     id="path556" />
  <path
     d="m 441.64,151.55 c 0,0 -4.9,2 -5.1,2.86 -0.2,0.86 -0.62,2.86 1.22,2.86 1.84,0 5.47,-1.41 6.16,-2.73 1.02,-1.95 -0.44,-3.39 -2.28,-2.99 z"
     style="fill:#ffffff"
     id="path558" />
  <path
     d="m 437.76,157.77 a 1.78,1.78 0 0 1 -1.5,-0.65 3.23,3.23 0 0 1 -0.21,-2.83 c 0.22,-0.88 3.06,-2.22 5.4,-3.2 h 0.08 a 2.72,2.72 0 0 1 2.77,0.86 2.59,2.59 0 0 1 0.06,2.85 c -0.84,1.57 -4.71,2.97 -6.6,2.97 z m 4,-5.74 c -2.12,0.89 -4.54,2.11 -4.78,2.54 -0.31,1.24 -0.11,1.75 0,1.94 0.11,0.19 0.2,0.26 0.71,0.26 1.71,0 5.13,-1.35 5.71,-2.47 a 1.62,1.62 0 0 0 0,-1.77 1.68,1.68 0 0 0 -1.61,-0.53 z"
     style="fill:#263238"
     id="path560" />
  <path
     d="m 441.39,156.68 c 0,0 -3.57,1.49 -3.72,2.08 -0.15,0.59 -0.44,2.09 0.89,2.09 1.33,0 4,-1 4.49,-2 a 1.43,1.43 0 0 0 -1.66,-2.17 z"
     style="fill:#ffffff"
     id="path562" />
  <path
     d="m 438.56,161.35 a 1.41,1.41 0 0 1 -1.19,-0.53 2.48,2.48 0 0 1 -0.18,-2.18 c 0.05,-0.2 0.21,-0.84 4,-2.42 h 0.08 a 2.1,2.1 0 0 1 2.16,0.68 2,2 0 0 1 0.06,2.22 c -0.62,1.17 -3.49,2.23 -4.93,2.23 z m 3,-4.19 a 15,15 0 0 0 -3.41,1.79 c -0.2,0.84 -0.05,1.16 0,1.26 0.05,0.1 0.11,0.14 0.41,0.14 1.3,0 3.68,-1 4.05,-1.73 a 1,1 0 0 0 0,-1.15 1.11,1.11 0 0 0 -1.07,-0.31 z"
     style="fill:#263238"
     id="path564" />
  <path
     d="m 426.18,191.61 -11.35,-9.73 c -3.16,5.35 -5.68,9.57 -5.68,9.57 0,0 -11.23,-36.34 -12.45,-38.17 -1.22,-1.83 -20.62,-11.43 -20.62,-11.43 l -20.41,-3.68 c 0,0 -24.7,9 -27.35,10.21 -2.65,1.21 -4.9,2.45 -5.31,3.88 -0.41,1.43 -13.67,34.29 -13.67,34.29 l -7.69,-7.55 -10,11.71 c 6.22,11 12.22,21.28 13.15,21.94 2.05,1.43 3.27,2.86 4.9,2.24 1.63,-0.62 18.17,-18 18.17,-18 0,0 2,44.7 2.65,46.95 0.65,2.25 2.25,2 3.07,2.24 0.82,0.24 22.65,2.45 31.84,2.45 9.19,0 24.91,-3.21 27.57,-4.23 2.66,-1.02 4.28,-2 4.28,-5.1 0,-3.1 -1,-29.25 -1,-29.25 0,0 12.66,11 15.72,11.23 a 6,6 0 0 0 6.12,-3.27 c 0.52,-0.91 4.34,-13.69 8.06,-26.3 z"
     style="fill:#004bff"
     id="path566" />
  <path
     d="m 365.47,249.1 c -9,0 -31.06,-2.24 -32,-2.46 l -0.43,-0.07 a 3.13,3.13 0 0 1 -3,-2.53 c -0.57,-2.09 -2.28,-38.68 -2.62,-45.89 -4,4.18 -16,16.67 -17.54,17.24 -1.54,0.57 -2.78,-0.35 -4.19,-1.44 -0.36,-0.27 -0.75,-0.57 -1.17,-0.86 -0.42,-0.29 -1.28,-0.9 -13.31,-22.11 a 0.52,0.52 0 0 1 0.05,-0.57 l 10,-11.7 a 0.5,0.5 0 0 1 0.36,-0.18 0.51,0.51 0 0 1 0.37,0.15 l 7.15,7 c 4.65,-11.53 13.07,-32.46 13.38,-33.55 0.44,-1.55 2.55,-2.8 5.58,-4.2 2.64,-1.21 26.38,-9.85 27.39,-10.22 a 0.46,0.46 0 0 1 0.26,0 l 20.41,3.67 0.14,0.05 c 2,1 19.54,9.71 20.81,11.6 1.15,1.73 10.08,30.46 12.18,37.23 0.92,-1.54 2.84,-4.78 5.1,-8.6 a 0.47,0.47 0 0 1 0.35,-0.24 0.46,0.46 0 0 1 0.4,0.11 l 11.36,9.73 a 0.53,0.53 0 0 1 0.15,0.52 c -4.93,16.69 -7.65,25.59 -8.08,26.46 a 6.5,6.5 0 0 1 -6.6,3.54 c -2.77,-0.19 -12.07,-8 -15.14,-10.6 0.2,5.15 1,25.41 1,28.12 0,3.51 -2.08,4.6 -4.6,5.57 -2.73,1.01 -18.6,4.23 -27.76,4.23 z m -37.56,-52.64 a 0.57,0.57 0 0 1 0.18,0 0.52,0.52 0 0 1 0.32,0.45 c 0.71,15.44 2.16,45.1 2.64,46.84 a 2.17,2.17 0 0 0 2.17,1.8 3.42,3.42 0 0 1 0.53,0.09 c 0.88,0.2 22.65,2.43 31.72,2.43 9.07,0 24.71,-3.17 27.39,-4.2 2.68,-1.03 4,-2 4,-4.63 0,-3 -1,-29 -1,-29.23 a 0.5,0.5 0 0 1 0.29,-0.47 0.51,0.51 0 0 1 0.54,0.08 c 5,4.38 13.3,11 15.42,11.1 a 5.49,5.49 0 0 0 5.65,-3 c 0.22,-0.46 1.56,-4.45 7.92,-26 L 415,182.65 c -3,5.11 -5.38,9.06 -5.38,9.06 a 0.5,0.5 0 0 1 -0.91,-0.11 c -4.5,-14.58 -11.52,-36.74 -12.39,-38 -0.87,-1.26 -12.9,-7.54 -20.35,-11.23 l -20.21,-3.64 c -1.92,0.7 -24.68,9 -27.19,10.14 -2.51,1.14 -4.68,2.31 -5,3.56 -0.41,1.44 -13.15,33 -13.69,34.35 a 0.52,0.52 0 0 1 -0.36,0.3 0.49,0.49 0 0 1 -0.45,-0.13 l -7.3,-7.14 -9.4,11 c 10.16,17.91 12.41,21.15 12.84,21.48 0.43,0.33 0.83,0.61 1.21,0.89 1.44,1.11 2.24,1.67 3.23,1.29 1.15,-0.46 11.64,-11.18 18,-17.83 a 0.48,0.48 0 0 1 0.26,-0.18 z"
     style="fill:#263238"
     id="path568" />
  <path
     d="m 327.91,197.46 a 0.51,0.51 0 0 1 -0.5,-0.44 l -3.47,-31.24 a 0.5030159,0.5030159 0 0 1 1,-0.11 l 3.47,31.23 a 0.51,0.51 0 0 1 -0.44,0.56 z"
     style="fill:#263238"
     id="path570" />
  <path
     d="m 396.29,210.52 v 0 a 0.5,0.5 0 0 1 -0.49,-0.51 l 0.82,-40.62 a 0.52,0.52 0 0 1 0.51,-0.49 0.52,0.52 0 0 1 0.49,0.51 L 396.79,210 a 0.49,0.49 0 0 1 -0.5,0.52 z"
     style="fill:#263238"
     id="path572" />
  <path
     d="m 360.57,160.42 c 5.72,6.94 10.82,12.66 10.82,12.66 0,0 8.71,-18.82 11.16,-28 -3.6,-1.85 -6.47,-3.27 -6.47,-3.27 l -20.41,-3.68 -6.45,2.36 c 1.78,3.95 6.78,14.37 11.35,19.93 z"
     style="fill:#263238"
     id="path574" />
  <path
     d="m 371.39,173.58 a 0.48,0.48 0 0 1 -0.37,-0.17 c -0.06,-0.06 -5.18,-5.8 -10.84,-12.67 -4.58,-5.57 -9.51,-15.84 -11.41,-20 a 0.51,0.51 0 0 1 0,-0.4 0.5,0.5 0 0 1 0.29,-0.28 l 6.45,-2.36 a 0.46,0.46 0 0 1 0.26,0 l 20.41,3.67 0.14,0.05 c 0,0 2.87,1.42 6.47,3.27 a 0.51,0.51 0 0 1 0.25,0.58 c -2.43,9.07 -11.1,27.85 -11.19,28 a 0.48,0.48 0 0 1 -0.38,0.28 z M 349.9,140.81 c 2,4.39 6.72,14 11.06,19.29 4.61,5.6 8.86,10.45 10.29,12.07 1.57,-3.43 8.45,-18.68 10.71,-26.79 -3.11,-1.6 -5.61,-2.84 -6,-3 l -20.21,-3.64 z"
     style="fill:#263238"
     id="path576" />
  <path
     d="m 326.25,186.5 a 0.49,0.49 0 0 1 -0.47,-0.35 l -4.89,-16.22 a 0.51,0.51 0 0 1 0.33,-0.63 0.49,0.49 0 0 1 0.62,0.34 l 4.89,16.22 a 0.5,0.5 0 0 1 -0.33,0.62 z"
     style="fill:#263238"
     id="path578" />
  <path
     d="m 396.69,197.17 h -0.09 a 0.5,0.5 0 0 1 -0.4,-0.58 l 3.8,-22.23 a 0.52,0.52 0 0 1 0.58,-0.41 0.51,0.51 0 0 1 0.41,0.58 l -3.78,22.22 a 0.5,0.5 0 0 1 -0.52,0.42 z"
     style="fill:#263238"
     id="path580" />
  <path
     d="m 405.8,198.72 a 0.42,0.42 0 0 1 -0.22,-0.05 0.5,0.5 0 0 1 -0.23,-0.67 l 3.35,-6.77 a 0.51,0.51 0 0 1 0.67,-0.23 0.5,0.5 0 0 1 0.23,0.67 l -3.35,6.77 a 0.5,0.5 0 0 1 -0.45,0.28 z"
     style="fill:#263238"
     id="path582" />
  <path
     d="m 313.81,193.17 a 0.49,0.49 0 0 1 -0.4,-0.21 l -4.48,-6.11 a 0.51,0.51 0 0 1 0.11,-0.7 0.5,0.5 0 0 1 0.7,0.1 l 4.47,6.12 a 0.5,0.5 0 0 1 -0.4,0.8 z"
     style="fill:#263238"
     id="path584" />
  <path
     d="m 278.48,160.73 a 0.51,0.51 0 0 1 -0.32,-0.12 c -1.13,-1 -4.49,-3.44 -6.34,-3.44 -2.32,0 -7.32,2 -7.37,2 a 0.49,0.49 0 0 1 -0.47,-0.06 l -2.89,-2 a 0.5,0.5 0 1 1 0.57,-0.82 l 2.67,1.85 c 1.08,-0.41 5.26,-1.94 7.49,-1.94 2.6,0 6.81,3.52 7,3.67 a 0.52,0.52 0 0 1 0.06,0.71 0.5,0.5 0 0 1 -0.4,0.15 z"
     style="fill:#263238"
     id="path586" />
  <path
     d="m 392.81,104.08 c 0,0 2.79,8.75 3,11.54 0.21,2.79 -1.12,4.47 -0.93,6.33 0.19,1.86 2.61,5.59 1.86,6.71 -0.75,1.12 -5.4,2.05 -5.4,2.05 0,0 -2.07,10.29 -4.34,10.61 -2.27,0.32 -9.5,0 -9.5,0 0,0 -6.33,20.3 -7.26,20.86 -0.93,0.56 -16.21,-18.62 -16.21,-21.6 0,-2.98 4.29,-17.69 4.29,-17.69 l -4.84,-15.28 c 0,0 -3.17,-5 3.72,-9.31 6.89,-4.31 21.05,-2 25.51,-1.49 4.46,0.51 10.1,7.27 10.1,7.27 z"
     style="fill:#ffffff"
     id="path588" />
  <path
     d="m 370.23,162.69 a 0.85,0.85 0 0 1 -0.43,-0.13 c -2.25,-1.27 -16.23,-18.82 -16.23,-22 0,-2.89 3.79,-16.06 4.27,-17.69 l -4.78,-15.07 a 6.28,6.28 0 0 1 -0.61,-4.43 c 0.48,-2.09 2,-3.94 4.53,-5.51 6.57,-4.09 19.35,-2.41 24.8,-1.7 l 1,0.14 c 4.61,0.57 10.14,7.16 10.38,7.44 a 0.51,0.51 0 0 1 0.09,0.16 c 0.11,0.36 2.81,8.85 3,11.67 a 10.78,10.78 0 0 1 -0.55,3.92 6.37,6.37 0 0 0 -0.38,2.39 12.31,12.31 0 0 0 0.95,2.8 c 0.76,1.8 1.42,3.36 0.83,4.24 -0.74,1.1 -4.14,1.92 -5.39,2.19 -0.58,2.8 -2.34,10.3 -4.63,10.69 a 71,71 0 0 1 -9.22,0 c -2.4,7.69 -6.43,20.21 -7.37,20.77 a 0.52,0.52 0 0 1 -0.26,0.12 z m -0.44,-66.46 c -4.54,0 -9.18,0.57 -12.29,2.5 -6.35,4 -3.68,8.43 -3.56,8.62 a 0.37,0.37 0 0 1 0.05,0.11 l 4.84,15.27 a 0.51,0.51 0 0 1 0,0.3 c 0,0.14 -4.27,14.67 -4.27,17.55 0,2.43 13.19,19.34 15.55,21 0.92,-1.66 4.69,-13.21 6.94,-20.42 a 0.52,0.52 0 0 1 0.51,-0.35 c 0.07,0 7.23,0.37 9.39,0 1.17,-0.2 2.92,-5.46 3.87,-10.22 a 0.5,0.5 0 0 1 0.39,-0.39 c 1.85,-0.37 4.65,-1.19 5.09,-1.84 0.28,-0.43 -0.44,-2.15 -0.92,-3.29 a 12.79,12.79 0 0 1 -1,-3.09 7.59,7.59 0 0 1 0.42,-2.77 9.75,9.75 0 0 0 0.51,-3.57 c -0.17,-2.55 -2.62,-10.38 -2.93,-11.34 -0.61,-0.72 -5.69,-6.51 -9.67,-7 l -1,-0.14 a 92.85,92.85 0 0 0 -11.92,-0.93 z"
     style="fill:#263238"
     id="path590" />
  <path
     d="m 394.11,116.31 a 0.5,0.5 0 0 1 -0.47,-0.35 2.88,2.88 0 0 0 -1.57,-1.69 c -0.87,-0.28 -2,0.06 -3.24,1 a 0.5,0.5 0 0 1 -0.7,-0.11 0.48,0.48 0 0 1 0.1,-0.69 c 1.56,-1.16 3,-1.55 4.15,-1.16 a 3.77,3.77 0 0 1 2.21,2.34 0.49,0.49 0 0 1 -0.32,0.62 0.41,0.41 0 0 1 -0.16,0.04 z"
     style="fill:#263238"
     id="path592" />
  <path
     d="m 391.85,120.46 c 0,1.28 -0.57,2.32 -1.27,2.32 -0.7,0 -1.28,-1 -1.28,-2.32 0,-1.32 0.57,-2.31 1.28,-2.31 0.71,0 1.27,1.04 1.27,2.31 z"
     style="fill:#263238"
     id="path594" />
  <path
     d="m 388,132.51 h -0.05 a 6,6 0 0 1 -3.68,-1.85 0.49,0.49 0 0 1 0.05,-0.7 0.5,0.5 0 0 1 0.7,0 5,5 0 0 0 3,1.51 0.51,0.51 0 0 1 0.46,0.55 0.5,0.5 0 0 1 -0.48,0.49 z"
     style="fill:#263238"
     id="path596" />
  <polygon
     points="371.95,139.27 375.68,146.16 377.54,141.32 "
     style="fill:#263238"
     id="polygon598" />
  <path
     d="m 375.68,146.67 a 0.52,0.52 0 0 1 -0.44,-0.27 l -3.73,-6.89 a 0.48,0.48 0 0 1 0.07,-0.56 0.48,0.48 0 0 1 0.55,-0.14 l 5.58,2 a 0.51,0.51 0 0 1 0.29,0.27 0.55,0.55 0 0 1 0,0.38 l -1.87,4.84 a 0.48,0.48 0 0 1 -0.43,0.32 z m -2.68,-6.47 2.6,4.8 1.29,-3.35 z"
     style="fill:#263238"
     id="path600" />
  <path
     d="m 368.79,130.09 v 0 a 0.5,0.5 0 0 1 -0.46,-0.54 l 0.33,-4 a 16.45,16.45 0 0 1 -2.78,-0.53 5.64,5.64 0 0 1 -2.3,-1.86 0.5010489,0.5010489 0 1 1 0.81,-0.59 4.67,4.67 0 0 0 1.8,1.5 17.77,17.77 0 0 0 3.06,0.53 0.51,0.51 0 0 1 0.45,0.54 l -0.37,4.47 a 0.51,0.51 0 0 1 -0.54,0.48 z"
     style="fill:#263238"
     id="path602" />
  <path
     d="m 364,115.17 a 3.55,3.55 0 0 1 5.08,1.3 c 0.2,0.33 0.41,0.59 0.63,0.64 0.74,0.19 2.23,1.12 3,-0.37 0.77,-1.49 -0.19,-4.84 0.74,-5.77 0.93,-0.93 4.29,-0.93 4.66,-2.42 0.37,-1.49 -3,-5.59 -2.05,-6.52 0.95,-0.93 12.85,2.79 14.9,3.16 2.05,0.37 9.68,-3.72 10.24,-9.87 0.56,-6.15 -5,-11.92 -9.31,-10.8 A 74.75,74.75 0 0 0 378.47,89 c -6,2.61 -19.37,1.49 -24.58,8.75 -5.21,7.26 -1.12,18.07 0.18,19.74 1.3,1.67 3.54,8.39 5.78,8 a 8.14,8.14 0 0 0 4.09,-2.6 c 0,0 -2.94,-5.52 0.06,-7.72 z"
     style="fill:#263238"
     id="path604" />
  <path
     d="m 359.66,126 c -1.79,0 -3.28,-3 -4.59,-5.68 a 19.8,19.8 0 0 0 -1.39,-2.54 c -1.31,-1.68 -5.65,-12.74 -0.2,-20.34 3.58,-5 10.69,-6.12 17,-7.12 a 36.11,36.11 0 0 0 7.83,-1.8 72.31,72.31 0 0 1 12.63,-4.27 l 0.85,-0.22 a 6.72,6.72 0 0 1 5.91,1.79 11.56,11.56 0 0 1 4,9.54 c -0.35,3.85 -3.23,6.57 -4.92,7.86 -2.17,1.65 -4.66,2.69 -5.91,2.46 -0.6,-0.11 -2,-0.49 -3.7,-1 -3.22,-0.88 -9.92,-2.71 -10.8,-2.31 -0.16,0.26 0.67,1.87 1.06,2.65 0.71,1.39 1.39,2.71 1.16,3.6 -0.29,1.16 -1.73,1.57 -3,1.94 a 4.84,4.84 0 0 0 -1.77,0.71 c -0.34,0.34 -0.32,1.48 -0.3,2.49 a 7.26,7.26 0 0 1 -0.35,3.15 c -0.81,1.62 -2.38,1.05 -3.14,0.78 a 3.34,3.34 0 0 0 -0.41,-0.14 1.68,1.68 0 0 1 -0.94,-0.88 3.37,3.37 0 0 0 -2.19,-1.59 2.64,2.64 0 0 0 -2.17,0.45 v 0 c -2.6,1.91 0.06,7 0.09,7.07 a 0.52,0.52 0 0 1 -0.06,0.56 8.64,8.64 0 0 1 -4.4,2.78 z M 393,84.88 a 3.51,3.51 0 0 0 -1,0.13 l -0.86,0.22 a 70.62,70.62 0 0 0 -12.48,4.22 36.11,36.11 0 0 1 -8.07,1.86 c -6.08,1 -13,2.08 -16.31,6.73 -5.11,7.12 -0.89,17.76 0.18,19.14 a 18.58,18.58 0 0 1 1.49,2.7 c 1,2 2.63,5.3 3.81,5.12 a 7.27,7.27 0 0 0 3.58,-2.2 c -0.61,-1.26 -2.54,-5.91 0.36,-8 a 3.69,3.69 0 0 1 3,-0.62 4.32,4.32 0 0 1 2.85,2.06 c 0.21,0.36 0.33,0.42 0.33,0.42 a 5,5 0 0 1 0.51,0.17 c 1,0.38 1.54,0.42 1.89,-0.28 a 6.59,6.59 0 0 0 0.25,-2.69 c 0,-1.33 -0.05,-2.58 0.59,-3.22 a 5.34,5.34 0 0 1 2.21,-1 c 1,-0.29 2.16,-0.62 2.31,-1.22 0.15,-0.6 -0.54,-1.84 -1.08,-2.9 -0.85,-1.66 -1.58,-3.1 -0.83,-3.85 0.75,-0.75 3.2,-0.23 11.72,2.1 1.64,0.44 3.06,0.83 3.62,0.93 0.56,0.1 2.8,-0.51 5.12,-2.27 1.56,-1.18 4.22,-3.69 4.53,-7.15 A 10.53,10.53 0 0 0 397,86.59 6.43,6.43 0 0 0 393,84.88 Z m -29,30.29 z"
     style="fill:#263238"
     id="path606" />
</svg>
